<svg width="40" height="40" viewBox="0 0 40 40" fill="none" xmlns="http://www.w3.org/2000/svg">
<path d="M14.2266 24.286L19.9999 12.8574L25.7732 24.286" stroke="currentcolor" stroke-width="1.5" stroke-linecap="round" stroke-linejoin="round"></path>
<path d="M15.6763 21.4665H24.3429" stroke="currentcolor" stroke-width="1.5" stroke-linecap="round" stroke-linejoin="round"></path>
<path d="M6.66674 9.04785V28.0955" stroke="currentcolor" stroke-width="1.5" stroke-linecap="round" stroke-linejoin="round"></path>
<path d="M33.3337 28.0955V9.04785" stroke="currentcolor" stroke-width="1.5" stroke-linecap="round" stroke-linejoin="round"></path>
<path fill-rule="evenodd" clip-rule="evenodd" d="M35.2382 35.7143H31.4287C30.3773 35.7143 29.5239 34.8609 29.5239 33.8095V30C29.5239 28.9485 30.3773 28.0952 31.4287 28.0952H35.2382C36.2896 28.0952 37.143 28.9485 37.143 30V33.8095C37.143 34.8609 36.2896 35.7143 35.2382 35.7143Z" stroke="currentcolor" stroke-width="1.5" stroke-linecap="round" stroke-linejoin="round"></path>
<path fill-rule="evenodd" clip-rule="evenodd" d="M8.57171 35.7143H4.76218C3.71076 35.7143 2.85742 34.8609 2.85742 33.8095V30C2.85742 28.9485 3.71076 28.0952 4.76218 28.0952H8.57171C9.62314 28.0952 10.4765 28.9485 10.4765 30V33.8095C10.4765 34.8609 9.62314 35.7143 8.57171 35.7143Z" stroke="currentcolor" stroke-width="1.5" stroke-linecap="round" stroke-linejoin="round"></path>
<path fill-rule="evenodd" clip-rule="evenodd" d="M35.2382 9.04776H31.4287C30.3773 9.04776 29.5239 8.19443 29.5239 7.143V3.33347C29.5239 2.28204 30.3773 1.42871 31.4287 1.42871H35.2382C36.2896 1.42871 37.143 2.28204 37.143 3.33347V7.143C37.143 8.19443 36.2896 9.04776 35.2382 9.04776Z" stroke="currentcolor" stroke-width="1.5" stroke-linecap="round" stroke-linejoin="round"></path>
<path fill-rule="evenodd" clip-rule="evenodd" d="M8.57171 9.04776H4.76218C3.71076 9.04776 2.85742 8.19443 2.85742 7.143V3.33347C2.85742 2.28204 3.71076 1.42871 4.76218 1.42871H8.57171C9.62314 1.42871 10.4765 2.28204 10.4765 3.33347V7.143C10.4765 8.19443 9.62314 9.04776 8.57171 9.04776Z" stroke="currentcolor" stroke-width="1.5" stroke-linecap="round" stroke-linejoin="round"></path>
<path d="M10.4766 31.905H29.5242" stroke="currentcolor" stroke-width="1.5" stroke-linecap="round" stroke-linejoin="round"></path>
<path d="M29.5242 5.23803H10.4766" stroke="currentcolor" stroke-width="1.5" stroke-linecap="round" stroke-linejoin="round"></path>
</svg>