<svg width="32" height="33" viewBox="0 0 32 33" fill="none" xmlns="http://www.w3.org/2000/svg">
<g clip-path="url(#clip0_13_3557)">
<path fill-rule="evenodd" clip-rule="evenodd" d="M0 0.5H60.8006V2.96156H0V0.5ZM0 5.42312H60.8006V7.88469H0V5.42312ZM0 10.3462H60.8006V12.8078H0V10.3462ZM0 15.2694H60.8006V17.7309H0V15.2694ZM0 20.1925H60.8006V22.6541H0V20.1925ZM0 25.1156H60.8006V27.5772H0V25.1156ZM0 30.0387H60.8006V32.5003H0V30.0387Z" fill="#D92D20"/>
<path fill-rule="evenodd" clip-rule="evenodd" d="M0 2.96143H60.8006V5.42299H0V2.96143ZM0 7.88455H60.8006V10.3461H0V7.88455ZM0 12.8077H60.8006V15.2692H0V12.8077ZM0 17.7308H60.8006V20.1924H0V17.7308ZM0 22.6539H60.8006V25.1155H0V22.6539ZM0 27.5771H60.8006V30.0386H0V27.5771Z" fill="#F9FAFB"/>
<path fill-rule="evenodd" clip-rule="evenodd" d="M0 0.5H24.3202V17.7309H0V0.5Z" fill="#1718FF"/>
<path fill-rule="evenodd" clip-rule="evenodd" d="M2.01848 1.23828L2.2646 1.92747H2.95385L2.38767 2.34597L2.60923 3.01059L2.01848 2.59209L1.47692 3.01059L1.69848 2.34597L1.10767 1.92747H1.84623L2.01848 1.23828ZM6.08004 1.23828L6.3016 1.92747H7.01542L6.42467 2.34597L6.67079 3.01059L6.08004 2.59209L5.48929 3.01059L5.73542 2.34597L5.14467 1.92747H5.85848L6.08004 1.23828ZM10.1416 1.23828L10.3632 1.92747H11.077L10.4862 2.34597L10.7324 3.01059L10.1416 2.59209L9.55085 3.01059L9.79698 2.34597L9.20623 1.92747H9.9201L10.1416 1.23828ZM14.1786 1.23828L14.4247 1.92747H15.114L14.5478 2.34597L14.7694 3.01059L14.1786 2.59209L13.6124 3.01059L13.834 2.34597L13.2432 1.92747H13.9817L14.1786 1.23828ZM18.2402 1.23828L18.4617 1.92747H19.1755L18.5848 2.34597L18.8309 3.01059L18.2155 2.59209L17.6494 3.01059L17.8709 2.34597L17.2802 1.92747H17.994L18.2402 1.23828ZM22.3017 1.23828L22.5233 1.92747H23.2371L22.6464 2.34597L22.8925 3.01059L22.3017 2.59209L21.711 3.01059L21.9571 2.34597L21.3664 1.92747H22.0802L22.3017 1.23828ZM4.06154 2.96134L4.2831 3.65059H4.99698L4.40617 4.06903L4.65235 4.73366L4.06154 4.31522L3.47079 4.73366L3.71692 4.06903L3.12617 3.65059H3.84004L4.06154 2.96134ZM8.09854 2.96134L8.34467 3.65059H9.03392L8.46773 4.06903L8.68929 4.73366L8.09854 4.31522L7.53235 4.73366L7.75392 4.06903L7.1631 3.65059H7.9016L8.09854 2.96134ZM12.1601 2.96134L12.3817 3.65059H13.0955L12.5047 4.06903L12.7509 4.73366L12.1601 4.31522L11.5693 4.73366L11.8155 4.06903L11.2247 3.65059H11.9385L12.1601 2.96134ZM16.2217 2.96134L16.4432 3.65059H17.157L16.5663 4.06903L16.8125 4.73366L16.2217 4.31522L15.6309 4.73366L15.877 4.06903L15.2863 3.65059H16.0002L16.2217 2.96134ZM20.2587 2.96134L20.5048 3.65059H21.1694L20.6032 4.06903L20.8248 4.73366L20.234 4.31522L19.6679 4.73366L19.8894 4.06903L19.2986 3.65059H20.0371L20.2587 2.96134ZM2.04304 4.68447L2.23998 5.37366H2.97848L2.38767 5.79216L2.60923 6.45678L2.01848 6.03828L1.47692 6.45678L1.69848 5.79216L1.10767 5.37366H1.84623L2.04304 4.68447ZM6.08004 4.68447L6.3016 5.37366H7.01542L6.44929 5.79216L6.67079 6.45678L6.08004 6.03828L5.51385 6.45678L5.73542 5.79216L5.14467 5.37366H5.85848L6.08004 4.68447ZM10.1416 4.68447L10.3632 5.37366H11.077L10.4862 5.79216L10.7324 6.45678L10.1416 6.03828L9.55085 6.45678L9.79698 5.79216L9.20623 5.37366H9.9201L10.1416 4.68447ZM14.1786 4.68447L14.4247 5.37366H15.114L14.5478 5.79216L14.7694 6.45678L14.1786 6.03828L13.6124 6.45678L13.834 5.79216L13.2432 5.37366H13.9817L14.1786 4.68447ZM18.2402 4.68447L18.4617 5.37366H19.1755L18.6094 5.79216L18.8309 6.45678L18.2402 6.03828L17.674 6.45678L17.8955 5.79216L17.3048 5.37366H18.0186L18.2402 4.68447ZM22.3017 4.68447L22.5233 5.37366H23.2371L22.6464 5.79216L22.8925 6.45678L22.3017 6.03828L21.711 6.45678L21.9571 5.79216L21.3664 5.37366H22.0802L22.3017 4.68447ZM4.06154 6.40747L4.2831 7.09672H4.99698L4.40617 7.51516L4.65235 8.17978L4.06154 7.76134L3.47079 8.17978L3.71692 7.51516L3.12617 7.09672H3.84004L4.06154 6.40747ZM8.09854 6.40747L8.34467 7.09672H9.03392L8.46773 7.51516L8.68929 8.17978L8.09854 7.76134L7.53235 8.17978L7.75392 7.51516L7.1631 7.09672H7.9016L8.09854 6.40747ZM12.1601 6.40747L12.3817 7.09672H13.0955L12.5294 7.51516L12.7509 8.17978L12.1601 7.76134L11.5939 8.17978L11.8155 7.51516L11.2247 7.09672H11.9385L12.1601 6.40747ZM16.2217 6.40747L16.4432 7.09672H17.157L16.5663 7.51516L16.8125 8.17984L16.2217 7.76141L15.6309 8.17984L15.877 7.51522L15.2863 7.09678H16.0002L16.2217 6.40747ZM20.2587 6.40747L20.5048 7.09672H21.1694L20.6032 7.51516L20.8248 8.17978L20.234 7.76134L19.6679 8.17978L19.8894 7.51516L19.2986 7.09672H20.0371L20.2587 6.40747ZM2.04304 8.13059L2.23998 8.81978H2.97848L2.38767 9.23828L2.60923 9.90291L2.01848 9.48441L1.47692 9.90291L1.69848 9.23828L1.10767 8.81978H1.84623L2.04304 8.13059ZM6.08004 8.13059L6.3016 8.81978H7.01542L6.44929 9.23828L6.67079 9.90291L6.08004 9.48441L5.51385 9.90291L5.73542 9.23828L5.14467 8.81978H5.85848L6.08004 8.13059ZM10.1416 8.13059L10.3632 8.81978H11.077L10.4862 9.23828L10.7324 9.90291L10.1416 9.48441L9.55085 9.90291L9.79698 9.23828L9.20623 8.81978H9.9201L10.1416 8.13059ZM14.1786 8.13059L14.4247 8.81978H15.114L14.5478 9.23828L14.7694 9.90291L14.1786 9.48441L13.6124 9.90291L13.834 9.23828L13.2432 8.81978H13.9817L14.1786 8.13059ZM18.2402 8.13059L18.4617 8.81978H19.1755L18.6094 9.23828L18.8309 9.90291L18.2402 9.48441L17.674 9.90291L17.8955 9.23828L17.3048 8.81978H18.0186L18.2402 8.13059ZM22.3017 8.13059L22.5233 8.81978H23.2371L22.6464 9.23828L22.8925 9.90291L22.3017 9.48441L21.711 9.90291L21.9571 9.23828L21.3664 8.81978H22.0802L22.3017 8.13059ZM4.06154 9.85366L4.2831 10.5429H4.99698L4.40617 10.9613L4.65235 11.626L4.06154 11.2075L3.47079 11.626L3.71692 10.9613L3.12617 10.5429H3.84004L4.06154 9.85366ZM8.09854 9.85366L8.34467 10.5429H9.03392L8.46773 10.9613L8.68929 11.626L8.09854 11.2075L7.53235 11.626L7.75392 10.9613L7.1631 10.5429H7.9016L8.09854 9.85366ZM12.1601 9.85366L12.3817 10.5429H13.0955L12.5294 10.9613L12.7509 11.626L12.1601 11.2075L11.5939 11.626L11.8155 10.9613L11.2247 10.5429H11.9385L12.1601 9.85366ZM16.2217 9.85366L16.4432 10.5429H17.157L16.5663 10.9613L16.8125 11.626L16.2217 11.2076L15.6309 11.626L15.877 10.9614L15.2863 10.543H16.0002L16.2217 9.85366ZM20.2587 9.85366L20.5048 10.5429H21.1694L20.6032 10.9613L20.8248 11.626L20.234 11.2075L19.6679 11.626L19.8894 10.9613L19.2986 10.5429H20.0371L20.2587 9.85366ZM2.04304 11.5768L2.23998 12.266H2.97848L2.38767 12.6845L2.60923 13.3491L2.01848 12.9306L1.47692 13.3491L1.69848 12.6845L1.10767 12.266H1.84623L2.04304 11.5768ZM6.08004 11.5768L6.3016 12.266H7.01542L6.44929 12.6845L6.67079 13.3491L6.08004 12.9306L5.51385 13.3491L5.73542 12.6845L5.14467 12.266H5.85848L6.08004 11.5768ZM10.1416 11.5768L10.3632 12.266H11.077L10.4862 12.6845L10.7324 13.3491L10.1416 12.9306L9.55085 13.3491L9.79698 12.6845L9.20623 12.266H9.9201L10.1416 11.5768ZM14.1786 11.5768L14.4247 12.266H15.114L14.5478 12.6845L14.7694 13.3491L14.1786 12.9306L13.6124 13.3491L13.834 12.6845L13.2432 12.266H13.9817L14.1786 11.5768ZM18.2402 11.5768L18.4617 12.266H19.1755L18.6094 12.6845L18.8309 13.3491L18.2402 12.9306L17.674 13.3491L17.8955 12.6845L17.3048 12.266H18.0186L18.2402 11.5768ZM22.3017 11.5768L22.5233 12.266H23.2371L22.6464 12.6845L22.8925 13.3491L22.3017 12.9306L21.711 13.3491L21.9571 12.6845L21.3664 12.266H22.0802L22.3017 11.5768ZM4.06154 13.2999L4.2831 13.9892H4.99698L4.40617 14.4076L4.65235 15.0722L4.06154 14.6538L3.47079 15.0722L3.71692 14.4076L3.12617 13.9892H3.84004L4.06154 13.2999ZM8.09854 13.2999L8.34467 13.9892H9.03392L8.46773 14.4076L8.68929 15.0722L8.09854 14.6538L7.53235 15.0722L7.75392 14.4076L7.1631 13.9892H7.9016L8.09854 13.2999ZM12.1601 13.2999L12.3817 13.9892H13.0955L12.5294 14.4076L12.7509 15.0722L12.1601 14.6538L11.5939 15.0722L11.8155 14.4076L11.2247 13.9892H11.9385L12.1601 13.2999ZM16.2217 13.2999L16.4432 13.9892H17.157L16.5663 14.4076L16.8125 15.0723L16.2217 14.6538L15.6309 15.0723L15.877 14.4077L15.2863 13.9892H16.0002L16.2217 13.2999ZM20.2587 13.2999L20.5048 13.9892H21.1694L20.6032 14.4076L20.8248 15.0722L20.234 14.6538L19.6679 15.0722L19.8894 14.4076L19.2986 13.9892H20.0371L20.2587 13.2999ZM2.04304 15.023L2.23998 15.7122H2.97848L2.38767 16.1307L2.60923 16.7953L2.01848 16.3768L1.47692 16.7953L1.69848 16.1307L1.10767 15.7122H1.84623L2.04304 15.023ZM6.08004 15.023L6.3016 15.7122H7.01542L6.44929 16.1307L6.67079 16.7953L6.08004 16.3768L5.51385 16.7953L5.73542 16.1307L5.14467 15.7122H5.85848L6.08004 15.023ZM10.1416 15.023L10.3632 15.7122H11.077L10.4862 16.1307L10.7324 16.7953L10.1416 16.3768L9.55085 16.7953L9.79698 16.1307L9.20623 15.7122H9.9201L10.1416 15.023ZM14.1786 15.023L14.4247 15.7122H15.114L14.5478 16.1307L14.7694 16.7953L14.1786 16.3768L13.6124 16.7953L13.834 16.1307L13.2432 15.7122H13.9817L14.1786 15.023ZM18.2402 15.023L18.4617 15.7122H19.1755L18.6094 16.1307L18.8309 16.7953L18.2402 16.3768L17.674 16.7953L17.8955 16.1307L17.3048 15.7122H18.0186L18.2402 15.023ZM22.3017 15.023L22.5233 15.7122H23.2371L22.6464 16.1307L22.8925 16.7953L22.3017 16.3768L21.711 16.7953L21.9571 16.1307L21.3664 15.7122H22.0802L22.3017 15.023Z" fill="#F9FAFB"/>
</g>
<defs>
<clipPath id="clip0_13_3557">
<rect y="0.5" width="32" height="32" rx="16" fill="white"/>
</clipPath>
</defs>
</svg>
