<svg width="32" height="33" viewBox="0 0 32 33" fill="none" xmlns="http://www.w3.org/2000/svg">
<g clip-path="url(#clip0_13_3615)">
<path fill-rule="evenodd" clip-rule="evenodd" d="M0 0.5H32V32.5H0V0.5Z" fill="#039855"/>
<path fill-rule="evenodd" clip-rule="evenodd" d="M16.3375 25.8376L30.7 16.5126L16.25 7.1626L1.83124 16.5376L16.3312 25.8376H16.3375Z" fill="#FEC84B"/>
<path fill-rule="evenodd" clip-rule="evenodd" d="M22.5937 16.4998C22.619 17.3136 22.4804 18.1241 22.1862 18.8833C21.8921 19.6425 21.4483 20.3348 20.8813 20.919C20.3143 21.5033 19.6356 21.9677 18.8856 22.2845C18.1356 22.6013 17.3296 22.7641 16.5154 22.7633C15.7012 22.7624 14.8955 22.598 14.1462 22.2796C13.3968 21.9612 12.7191 21.4955 12.1533 20.9101C11.5875 20.3246 11.1452 19.6314 10.8526 18.8716C10.56 18.1119 10.423 17.301 10.45 16.4873C10.5022 14.9107 11.1656 13.4162 12.2999 12.32C13.4342 11.2237 14.9504 10.6117 16.5279 10.6133C18.1054 10.6149 19.6204 11.2301 20.7524 12.3287C21.8845 13.4272 22.5448 14.9231 22.5937 16.4998Z" fill="#2857FF"/>
<path fill-rule="evenodd" clip-rule="evenodd" d="M14.5187 20.1376L14.3312 20.0251L14.1375 20.1251L14.1812 19.9063L14.0312 19.7501L14.2437 19.7251L14.3437 19.5251L14.4375 19.7313L14.65 19.7688L14.4875 19.9188M18.5937 21.1688L18.4062 21.0563L18.2062 21.1563L18.25 20.9376L18.1 20.7813L18.3187 20.7563L18.4187 20.5563L18.5062 20.7626L18.7187 20.8001L18.5625 20.9501M16.8375 19.5188L16.675 19.4251L16.5062 19.5063L16.5437 19.3188L16.4187 19.1813L16.6 19.1626L16.6875 18.9938L16.7625 19.1688L16.95 19.2001L16.8125 19.3251M20.95 18.9251L20.7875 18.8313L20.625 18.9126L20.6625 18.7313L20.5375 18.6001L20.7187 18.5751L20.8 18.4126L20.8812 18.5813L21.0625 18.6126L20.925 18.7376M16.7625 17.6938L16.575 17.5813L16.3812 17.6813L16.425 17.4626L16.275 17.3063L16.4875 17.2813L16.5875 17.0876L16.6812 17.2876L16.8937 17.3251L16.7312 17.4751M11.75 15.8126L11.5625 15.7001L11.375 15.8001L11.4125 15.5813L11.2625 15.4251L11.4812 15.4001L11.5812 15.2001L11.6687 15.4063L11.8812 15.4438L11.725 15.5938M12.3562 18.3126L12.1687 18.2063L11.975 18.3001L12.0187 18.0876L11.8687 17.9251L12.0812 17.9001L12.1812 17.7126L12.275 17.9063L12.4875 17.9501L12.325 18.0938M18.6125 14.8876L18.45 14.7938L18.275 14.8751L18.3125 14.6876L18.1875 14.5438L18.375 14.5251L18.4625 14.3501L18.5437 14.5313L18.7312 14.5626L18.5875 14.6938M18.275 16.5188L18.125 16.4376L17.9937 16.5001L18.0187 16.3501L17.9187 16.2438L18.0687 16.2251L18.1375 16.0876L18.2 16.2313L18.35 16.2563L18.2375 16.3563M11.4625 18.7626L11.3375 18.6876L11.2062 18.7501L11.2312 18.6063L11.1312 18.5001L11.2812 18.4876L11.3437 18.3626L11.4062 18.4876L11.55 18.5188L11.4437 18.6188M20.9812 19.3376L20.875 19.2876L20.7687 19.3313L20.7937 19.2251L20.7125 19.1438L20.8312 19.1313L20.8875 19.0376L20.9312 19.1376L21.05 19.1563L20.9625 19.2313" fill="#FCFCFD"/>
<path fill-rule="evenodd" clip-rule="evenodd" d="M11.4688 18.7687L11.3438 18.6937L11.2125 18.7562L11.2438 18.6124L11.1375 18.5062L11.2813 18.4937L11.35 18.3687L11.4125 18.4937L11.5563 18.5249L11.45 18.6249" fill="#FCFCFD"/>
<path fill-rule="evenodd" clip-rule="evenodd" d="M11.4688 18.7687L11.3438 18.6937L11.2125 18.7562L11.2438 18.6124L11.1375 18.5062L11.2813 18.4937L11.35 18.3687L11.4125 18.4937L11.5563 18.5249L11.45 18.6249M13.4625 18.7687L13.3375 18.6937L13.2125 18.7562L13.2375 18.6124L13.1375 18.5062L13.2813 18.4937L13.3438 18.3624L13.4063 18.4937L13.55 18.5249L13.4438 18.6249M13.2125 19.4374L13.0875 19.3624L12.9625 19.4249L12.9875 19.2812L12.8875 19.1749L13.0313 19.1562L13.0938 19.0312L13.1563 19.1562L13.3 19.1874L13.1938 19.2874M17.3625 18.2249L17.2375 18.1499L17.1063 18.2124L17.1313 18.0687L17.0313 17.9624L17.175 17.9499L17.2438 17.8187L17.3063 17.9499L17.4438 17.9749L17.3375 18.0749M16.1438 18.2249L16.0188 18.1499L15.8875 18.2124L15.9188 18.0687L15.8188 17.9624L15.9625 17.9499L16.025 17.8187L16.0875 17.9499L16.2313 17.9749L16.125 18.0749M12.8438 17.7999L12.7688 17.7562L12.6875 17.7937L12.7 17.6999L12.6375 17.6374L12.7313 17.6249L12.775 17.5437L12.8063 17.6312L12.9 17.6437L12.8375 17.7062M20.825 19.8749L20.7 19.8062L20.5688 19.8687L20.6 19.7249L20.5 19.6187L20.6438 19.5999L20.7063 19.4749L20.7688 19.5999L20.9125 19.6312L20.8063 19.7312M19.8063 20.0062L19.7063 19.9437L19.6 20.0062L19.625 19.8812L19.5375 19.7937L19.6625 19.7812L19.7125 19.6749L19.7625 19.7812L19.8875 19.8062L19.7938 19.8874M20.2938 19.9999L20.1938 19.9374L20.0938 19.9937L20.1125 19.8812L20.0375 19.7999L20.15 19.7874L20.2 19.6874L20.2438 19.7874L20.3563 19.8062L20.275 19.8874M21.6625 18.7999L21.5688 18.7437L21.4688 18.7937L21.4938 18.6874L21.4188 18.6062L21.525 18.5937L21.575 18.4999L21.6188 18.5999L21.725 18.6187L21.6438 18.6937M19.8125 20.6812L19.6875 20.6124L19.5625 20.6749L19.5938 20.5374L19.4938 20.4437L19.6313 20.4249L19.7 20.3062L19.7625 20.4312L19.8938 20.4562L19.7938 20.5437M19.8188 21.2249L19.7063 21.1624L19.5938 21.2187L19.6188 21.0812L19.5313 20.9874L19.6563 20.9687L19.7188 20.8499L19.7688 20.9749L19.8938 20.9999L19.8 21.0874M18.8938 19.9999L18.8 19.9437L18.7 19.9937L18.725 19.8812L18.65 19.8062L18.7563 19.7937L18.8063 19.6937L18.85 19.7937L18.9563 19.8124L18.875 19.8874M18.0313 19.9999L17.9375 19.9437L17.8375 19.9937L17.8625 19.8812L17.7875 19.8062L17.8938 19.7937L17.9438 19.6937L17.9875 19.7937L18.0938 19.8124L18.0188 19.8874M16.5625 18.7124L16.4688 18.6562L16.3688 18.7062L16.3938 18.5999L16.3188 18.5187L16.425 18.5062L16.475 18.4124L16.5188 18.5124L16.625 18.5312L16.5438 18.5999M16.725 21.3187L16.6438 21.2749L16.5625 21.3187L16.5813 21.2249L16.5188 21.1624L16.6063 21.1437L16.65 21.0624L16.6875 21.1499L16.7813 21.1624L16.7125 21.2249M14.5125 17.0999L14.325 16.9937L14.1313 17.0874L14.175 16.8749L14.025 16.7124L14.2375 16.6874L14.3375 16.4937L14.4313 16.6937L14.6438 16.7312L14.4813 16.8812" fill="#FCFCFD"/>
<path fill-rule="evenodd" clip-rule="evenodd" d="M22.1937 18.6876C22.3113 18.3812 22.4033 18.0655 22.4687 17.7438C19.2437 14.9063 15.6437 13.4501 11.0937 13.7501C10.9307 14.0686 10.7968 14.4012 10.6937 14.7438C12.7811 14.533 14.8893 14.7757 16.8742 15.4553C18.8591 16.1349 20.6736 17.2354 22.1937 18.6813V18.6876Z" fill="#FCFCFD"/>
<path d="M20.7437 17.0874L20.8563 17.1499C20.8387 17.1847 20.8343 17.2246 20.8437 17.2624C20.85 17.2874 20.875 17.3187 20.9062 17.3374C20.9437 17.3624 20.975 17.3749 21.0062 17.3749C21.0312 17.3749 21.0563 17.3562 21.0687 17.3374C21.075 17.3249 21.0813 17.3124 21.075 17.2937L21.0562 17.2437L20.9813 17.1624C20.9414 17.1219 20.9114 17.0727 20.8937 17.0187C20.8828 16.978 20.8869 16.9348 20.9053 16.8969C20.9237 16.859 20.9551 16.829 20.9937 16.8124C21.0271 16.7976 21.0641 16.7933 21.1 16.7999C21.1451 16.8097 21.1877 16.8289 21.225 16.8562C21.2792 16.8942 21.3223 16.946 21.35 17.0062C21.3576 17.0338 21.3587 17.0629 21.3533 17.091C21.3479 17.1192 21.336 17.1458 21.3187 17.1687L21.2062 17.0999C21.2187 17.0687 21.225 17.0374 21.2187 17.0124C21.2125 16.9937 21.1875 16.9687 21.1562 16.9499C21.125 16.9249 21.0938 16.9187 21.0687 16.9187C21.0615 16.9189 21.0544 16.9207 21.0479 16.9239C21.0415 16.9271 21.0358 16.9317 21.0312 16.9374C21.0269 16.9437 21.0241 16.951 21.023 16.9585C21.0219 16.9661 21.0226 16.9739 21.025 16.9812C21.025 17.0062 21.0563 17.0437 21.1 17.0874L21.1937 17.2124C21.2108 17.2435 21.2187 17.2788 21.2165 17.3142C21.2142 17.3496 21.202 17.3837 21.1812 17.4124C21.1594 17.4434 21.129 17.4673 21.0937 17.4812C21.0566 17.4981 21.0149 17.5025 20.975 17.4937C20.9276 17.4816 20.883 17.4603 20.8437 17.4312C20.7847 17.3957 20.7404 17.3403 20.7187 17.2749C20.7 17.2187 20.7062 17.1562 20.7437 17.0874ZM20.1937 16.7312L20.3187 16.7937C20.3041 16.8248 20.2997 16.8598 20.3062 16.8937C20.3125 16.9249 20.3375 16.9562 20.3687 16.9749C20.4062 16.9999 20.4375 17.0062 20.4687 16.9999C20.4937 16.9999 20.5187 16.9874 20.5312 16.9624C20.5372 16.9509 20.5394 16.9377 20.5375 16.9249C20.5375 16.9062 20.5313 16.8937 20.5125 16.8749L20.4375 16.7937C20.3963 16.7554 20.3643 16.7084 20.3437 16.6562C20.3355 16.6313 20.3328 16.605 20.3361 16.579C20.3393 16.5531 20.3484 16.5282 20.3625 16.5062C20.3811 16.4786 20.4071 16.4569 20.4375 16.4437C20.471 16.4293 20.5079 16.4249 20.5438 16.4312C20.5813 16.4312 20.6188 16.4499 20.6688 16.4812C20.7313 16.5249 20.7813 16.5687 20.7938 16.6249C20.8031 16.6516 20.8063 16.6802 20.803 16.7083C20.7998 16.7365 20.7902 16.7635 20.775 16.7874L20.6562 16.7187C20.675 16.6874 20.675 16.6562 20.6688 16.6374C20.6563 16.6124 20.6375 16.5937 20.6063 16.5749C20.5794 16.5542 20.5464 16.5432 20.5125 16.5437C20.5047 16.5446 20.4973 16.5473 20.4908 16.5517C20.4843 16.556 20.4789 16.5618 20.475 16.5687C20.4717 16.5755 20.47 16.5829 20.47 16.5905C20.47 16.5981 20.4717 16.6056 20.475 16.6124C20.475 16.6312 20.5062 16.6687 20.55 16.7187C20.6 16.7624 20.6312 16.8062 20.65 16.8312C20.6692 16.8624 20.6789 16.8986 20.6778 16.9352C20.6767 16.9719 20.6648 17.0074 20.6437 17.0374C20.6225 17.0698 20.5922 17.0953 20.5567 17.1108C20.5212 17.1264 20.482 17.1313 20.4437 17.1249C20.3947 17.1154 20.348 17.0962 20.3062 17.0687C20.2464 17.0355 20.1999 16.9824 20.175 16.9187C20.1572 16.856 20.1639 16.789 20.1937 16.7312ZM19.5187 16.5437L19.8687 15.9812L20.2875 16.2312L20.225 16.3312L19.925 16.1437L19.8437 16.2687L20.1312 16.4437L20.0687 16.5437L19.7875 16.3687L19.6937 16.5249L20.0062 16.7124L19.95 16.8124L19.5187 16.5499V16.5437ZM18.5312 15.7374L18.5875 15.6374L18.8375 15.7749L18.7187 16.0062C18.6174 16.0286 18.5114 16.0154 18.4188 15.9687C18.3628 15.9396 18.3154 15.8966 18.2812 15.8437C18.2482 15.7959 18.2308 15.7392 18.2313 15.6812C18.2313 15.6187 18.25 15.5624 18.2812 15.5062C18.3101 15.4484 18.3531 15.399 18.4062 15.3624C18.45 15.3249 18.5125 15.3062 18.575 15.3062C18.6188 15.3062 18.675 15.3249 18.7313 15.3499C18.7929 15.3789 18.8433 15.4271 18.875 15.4874C18.9 15.5374 18.9062 15.5937 18.8937 15.6562L18.7625 15.6187C18.7696 15.5869 18.7651 15.5537 18.75 15.5249C18.7334 15.4943 18.707 15.4701 18.675 15.4562C18.6528 15.4424 18.6279 15.4336 18.602 15.4304C18.5762 15.4272 18.5499 15.4295 18.525 15.4374C18.4812 15.4562 18.4375 15.4999 18.4 15.5624C18.3695 15.6199 18.3586 15.6857 18.3687 15.7499C18.3812 15.7999 18.4125 15.8374 18.4687 15.8624L18.55 15.8874H18.6312L18.6688 15.8124L18.5312 15.7374ZM14.2312 14.6749L14.3313 14.0124L14.5312 14.0437L14.5813 14.5124L14.7688 14.0749L14.9625 14.1062L14.8687 14.7687L14.7437 14.7499L14.8188 14.2312L14.6125 14.7312L14.4875 14.7124L14.4312 14.1687L14.3562 14.6937L14.2312 14.6749ZM13.5625 14.5937L13.625 13.9312L14.1125 13.9749L14.1062 14.0874L13.7437 14.0562L13.7312 14.1999L14.0625 14.2312L14.0562 14.3437L13.725 14.3124L13.7063 14.4999L14.075 14.5312L14.0625 14.6437L13.5625 14.5937Z" fill="#039855"/>
<path d="M11.3375 14.1749C11.3375 14.1124 11.35 14.0499 11.3688 14.0061L11.4313 13.9186L11.525 13.8561C11.5712 13.8402 11.6201 13.8339 11.6688 13.8374C11.7121 13.8371 11.7551 13.8458 11.7949 13.863C11.8347 13.8802 11.8705 13.9056 11.9 13.9374C11.9625 13.9999 11.9813 14.0811 11.9813 14.1874C11.9813 14.2999 11.9438 14.3811 11.8875 14.4374C11.8562 14.4677 11.8189 14.4912 11.778 14.5062C11.7371 14.5213 11.6935 14.5276 11.65 14.5249C11.6071 14.526 11.5644 14.5182 11.5246 14.5021C11.4848 14.4859 11.4488 14.4618 11.4188 14.4311C11.3879 14.3978 11.3646 14.3582 11.3506 14.3151C11.3365 14.2719 11.3321 14.2262 11.3375 14.1811V14.1749Z" fill="#039855"/>
<path d="M11.475 14.1747C11.475 14.2497 11.4875 14.3122 11.525 14.3497C11.5562 14.3935 11.6 14.4122 11.65 14.4122C11.6755 14.4127 11.7009 14.408 11.7246 14.3983C11.7482 14.3886 11.7696 14.3742 11.7875 14.356C11.8188 14.3185 11.8375 14.2622 11.8438 14.1872C11.8438 14.106 11.8312 14.0497 11.7937 14.0122C11.7786 13.9935 11.7596 13.9782 11.738 13.9674C11.7165 13.9566 11.6928 13.9506 11.6687 13.9497C11.6062 13.9497 11.5625 13.9685 11.5312 14.006C11.4937 14.0435 11.475 14.0997 11.4688 14.1747H11.475Z" fill="#F0F8FF"/>
<path d="M12.125 14.5252L12.1313 13.8564H12.4125C12.4875 13.8564 12.5375 13.8689 12.5688 13.8814C12.6 13.8939 12.6313 13.9127 12.6438 13.9439C12.6563 13.9752 12.675 14.0064 12.675 14.0502C12.675 14.1002 12.6563 14.1377 12.6313 14.1752C12.6 14.2064 12.5562 14.2252 12.4937 14.2377C12.525 14.2502 12.55 14.2689 12.5688 14.2877L12.6438 14.4002L12.725 14.5252H12.5625L12.4688 14.3814C12.4459 14.3466 12.4208 14.3132 12.3938 14.2814C12.3833 14.2704 12.3705 14.2618 12.3562 14.2564C12.3361 14.2493 12.3151 14.245 12.2937 14.2439H12.2625V14.5252H12.125Z" fill="#039855"/>
<path d="M12.2625 14.1376H12.3625C12.404 14.1428 12.446 14.1428 12.4875 14.1376L12.5188 14.1063C12.5313 14.0938 12.5375 14.0751 12.5375 14.0563C12.5375 14.0313 12.5313 14.0126 12.5188 14.0001C12.5056 13.9861 12.4879 13.9773 12.4688 13.9751H12.2688V14.1376H12.2625Z" fill="#FCFCFD"/>
<path d="M12.8875 13.8877L13.1312 13.9002C13.1735 13.9008 13.2156 13.9072 13.2562 13.9189C13.2918 13.9324 13.3239 13.9537 13.35 13.9814C13.3792 14.016 13.4005 14.0566 13.4125 14.1002C13.425 14.1439 13.425 14.1939 13.425 14.2564C13.4268 14.3043 13.4183 14.352 13.4 14.3962C13.3816 14.4405 13.3539 14.4802 13.3187 14.5127C13.2937 14.5314 13.2625 14.5502 13.225 14.5627H13.1L12.85 14.5564L12.8875 13.8877Z" fill="#039855"/>
<path d="M13.0125 14.0063L12.9937 14.4438L13.0937 14.4563H13.175L13.2312 14.4251C13.25 14.4126 13.2562 14.3938 13.2687 14.3626L13.2875 14.2376L13.2812 14.1251C13.2687 14.0938 13.2625 14.0751 13.2437 14.0626C13.2271 14.0442 13.2053 14.0311 13.1812 14.0251C13.1462 14.0178 13.1107 14.0136 13.075 14.0126H13.0125V14.0063Z" fill="#FCFCFD"/>
<path d="M16.1562 15.0812L16.3125 14.4312L16.5187 14.4812C16.6 14.4999 16.65 14.5187 16.675 14.5312C16.7062 14.5499 16.7375 14.5749 16.75 14.6124C16.7688 14.6562 16.7688 14.6999 16.7563 14.7499C16.7507 14.7821 16.7368 14.8124 16.716 14.8376C16.6952 14.8628 16.6681 14.8821 16.6375 14.8937C16.616 14.9042 16.5927 14.9106 16.5688 14.9124C16.5222 14.9084 16.4762 14.9 16.4312 14.8874L16.3438 14.8687L16.2812 15.1124L16.1562 15.0812Z" fill="#039855"/>
<path d="M16.4125 14.5747L16.3688 14.7622L16.4438 14.7747C16.4938 14.7872 16.5313 14.7935 16.55 14.7872C16.5673 14.7854 16.5837 14.7785 16.5971 14.7674C16.6104 14.7563 16.6201 14.7414 16.625 14.7247L16.6188 14.656C16.608 14.6358 16.5902 14.6202 16.5688 14.6122L16.475 14.5872L16.4125 14.5747Z" fill="#FCFCFD"/>
<path d="M16.775 15.2689L16.9938 14.6377L17.2625 14.7314C17.3113 14.7452 17.3576 14.7663 17.4 14.7939C17.425 14.8189 17.4438 14.8502 17.4563 14.8877C17.4688 14.9252 17.4563 14.9564 17.4438 14.9939C17.4313 15.0439 17.4 15.0752 17.3625 15.0939C17.341 15.1065 17.3172 15.1146 17.2925 15.1178C17.2679 15.121 17.2428 15.1193 17.2188 15.1127L17.2688 15.1877L17.3063 15.3127L17.3375 15.4627L17.1875 15.4127L17.1438 15.2439C17.134 15.2035 17.1215 15.1639 17.1063 15.1252C17.1009 15.111 17.0924 15.0981 17.0813 15.0877C17.0623 15.0739 17.0412 15.0633 17.0188 15.0564L16.9938 15.0502L16.9 15.3127L16.775 15.2689Z" fill="#039855"/>
<path d="M17.025 14.9501L17.1188 14.9813L17.2375 15.0126C17.2563 15.0126 17.2688 15.0126 17.2813 15.0001L17.3125 14.9563V14.8938C17.3046 14.8775 17.2914 14.8643 17.275 14.8563L17.1813 14.8251L17.0813 14.7876L17.025 14.9501Z" fill="#FCFCFD"/>
<path d="M17.5562 15.2436C17.5721 15.1864 17.5998 15.1331 17.6375 15.0873C17.6562 15.0561 17.6875 15.0373 17.7187 15.0186C17.7496 15.0015 17.7836 14.9909 17.8187 14.9873C17.8625 14.9873 17.9125 14.9873 17.9625 15.0061C18.0049 15.0167 18.0446 15.036 18.0791 15.063C18.1135 15.0899 18.1419 15.1237 18.1625 15.1623C18.2 15.2373 18.2062 15.3311 18.1687 15.4311C18.1584 15.476 18.1393 15.5185 18.1124 15.556C18.0856 15.5936 18.0517 15.6254 18.0125 15.6498C17.9739 15.669 17.9318 15.68 17.8888 15.6822C17.8458 15.6843 17.8028 15.6776 17.7625 15.6623C17.7201 15.6517 17.6804 15.6323 17.6459 15.6054C17.6115 15.5785 17.583 15.5446 17.5625 15.5061C17.5257 15.4228 17.5235 15.3284 17.5562 15.2436Z" fill="#039855"/>
<path d="M17.6875 15.281C17.6687 15.3498 17.6687 15.406 17.6875 15.456C17.7125 15.506 17.75 15.5373 17.8 15.556C17.85 15.5685 17.8937 15.5623 17.9375 15.5373C17.9812 15.5123 18.0187 15.4623 18.0437 15.3873C18.0625 15.3123 18.0625 15.256 18.0437 15.206C18.0332 15.1829 18.0176 15.1625 17.9982 15.1463C17.9787 15.1301 17.9558 15.1184 17.9312 15.1123C17.9074 15.1045 17.8821 15.1022 17.8572 15.1054C17.8324 15.1087 17.8085 15.1174 17.7875 15.131C17.7437 15.156 17.7125 15.206 17.6875 15.281Z" fill="#FCFCFD"/>
<path d="M18.8563 16.1748L19.1625 15.5811L19.4125 15.7061C19.475 15.7436 19.5188 15.7686 19.5375 15.7936C19.5625 15.8248 19.575 15.8561 19.5813 15.8873C19.5875 15.9186 19.5813 15.9623 19.5563 15.9936C19.5375 16.0373 19.5063 16.0686 19.4625 16.0873C19.4188 16.0998 19.375 16.0998 19.3188 16.0811C19.3375 16.1061 19.35 16.1373 19.3563 16.1623L19.375 16.2936L19.3875 16.4498L19.2438 16.3748L19.225 16.1998L19.2063 16.0748C19.2009 16.0606 19.1923 16.0477 19.1813 16.0373C19.1646 16.022 19.1456 16.0093 19.125 15.9998L19.1 15.9873L18.975 16.2373L18.8563 16.1748Z" fill="#039855"/>
<path d="M19.15 15.8937L19.2375 15.9374L19.35 15.9874C19.3688 15.9874 19.3813 15.9874 19.3938 15.9749C19.4106 15.9662 19.4244 15.9525 19.4333 15.9358C19.4423 15.9191 19.4459 15.9 19.4438 15.8812C19.437 15.8625 19.4237 15.8469 19.4063 15.8374C19.3798 15.8198 19.3527 15.8031 19.325 15.7874L19.2313 15.7437L19.15 15.8937Z" fill="#FCFCFD"/>
<path d="M21.325 17.3938C21.3625 17.3313 21.4 17.2938 21.45 17.2688C21.4805 17.2484 21.5143 17.2336 21.55 17.225C21.583 17.2186 21.617 17.2186 21.65 17.225C21.6937 17.2313 21.7437 17.25 21.7875 17.2875C21.8244 17.3101 21.8563 17.34 21.881 17.3756C21.9058 17.4111 21.9229 17.4513 21.9312 17.4938C21.9403 17.5847 21.9159 17.6758 21.8625 17.75C21.8387 17.7904 21.8071 17.8255 21.7696 17.8534C21.732 17.8813 21.6892 17.9014 21.6437 17.9125C21.6014 17.9204 21.5579 17.9195 21.516 17.9098C21.474 17.9002 21.4345 17.8819 21.4 17.8563C21.363 17.8337 21.3312 17.8037 21.3065 17.7682C21.2817 17.7327 21.2646 17.6925 21.2562 17.65C21.2493 17.6053 21.2512 17.5596 21.2619 17.5157C21.2727 17.4717 21.292 17.4303 21.3187 17.3938H21.325Z" fill="#039855"/>
<path d="M21.4375 17.4627C21.4 17.5252 21.3812 17.5877 21.3875 17.6377C21.3918 17.663 21.4012 17.6872 21.4151 17.7087C21.4291 17.7302 21.4474 17.7486 21.4687 17.7627C21.4885 17.7765 21.511 17.7858 21.5348 17.7902C21.5585 17.7945 21.5829 17.7936 21.6062 17.7877C21.6562 17.7752 21.7062 17.7377 21.75 17.669C21.7937 17.6065 21.8125 17.5502 21.8 17.5002C21.8 17.4502 21.7687 17.4127 21.725 17.3752C21.6812 17.3377 21.6312 17.3377 21.5812 17.3502C21.5312 17.3627 21.4875 17.4002 21.4437 17.4627H21.4375Z" fill="#FCFCFD"/>
<path d="M15.4 14.8124L15.5063 14.3374L15.8563 14.4187L15.8375 14.4999L15.5875 14.4374L15.5625 14.5437L15.7938 14.5999L15.775 14.6812L15.5438 14.6187L15.5125 14.7499L15.775 14.8124L15.7563 14.8937L15.4 14.8124Z" fill="#039855"/>
</g>
<defs>
<clipPath id="clip0_13_3615">
<rect y="0.5" width="32" height="32" rx="16" fill="white"/>
</clipPath>
</defs>
</svg>
