<svg width="119" height="22" viewBox="0 0 119 22" fill="none" xmlns="http://www.w3.org/2000/svg">
<mask id="mask0_225_8217" style="mask-type:alpha" maskUnits="userSpaceOnUse" x="0" y="0" width="22" height="22">
<path d="M0 3.36428C0 2.64516 0 2.28561 0.129476 1.9919C0.243637 1.73294 0.42766 1.51089 0.660923 1.35063C0.925477 1.16887 1.27878 1.10211 1.98539 0.968581L5.57697 0.2899C6.13275 0.184876 6.41065 0.132364 6.67044 0.172954C6.90011 0.208837 7.11852 0.296789 7.30897 0.430079C7.52439 0.580851 7.68834 0.811287 8.01625 1.27216L10.543 4.82347L13.3096 1.19644C13.6409 0.762095 13.8066 0.544923 14.0189 0.403534C14.2068 0.278499 14.42 0.196728 14.6432 0.164124C14.8957 0.127256 15.1641 0.177972 15.7008 0.279405L19.3479 0.96858C20.0546 1.1021 20.4079 1.16887 20.6724 1.35063C20.9057 1.51089 21.0897 1.73294 21.2039 1.9919C21.3333 2.2856 21.3333 2.64516 21.3333 3.36428V17.9691C21.3333 18.6882 21.3333 19.0477 21.2039 19.3414C21.0897 19.6004 20.9057 19.8224 20.6724 19.9827C20.4079 20.1645 20.0546 20.2312 19.3479 20.3648L15.7008 21.0539C15.1641 21.1554 14.8957 21.2061 14.6432 21.1692C14.42 21.1366 14.2068 21.0548 14.0189 20.9298C13.8066 20.7884 13.6409 20.5712 13.3096 20.1369L10.543 16.5099L8.01625 20.0612C7.68834 20.522 7.52439 20.7525 7.30897 20.9033C7.11852 21.0365 6.90011 21.1245 6.67044 21.1604C6.41065 21.201 6.13276 21.1485 5.57697 21.0434L1.98539 20.3648C1.27878 20.2312 0.925477 20.1645 0.660923 19.9827C0.42766 19.8224 0.243637 19.6004 0.129476 19.3414C0 19.0477 0 18.6882 0 17.9691V3.36428Z" fill="#D9D9D9"/>
</mask>
<g mask="url(#mask0_225_8217)">
<path d="M14.2222 21.3333L7.11108 12.0105V0L21.3333 19.9895L14.2222 21.3333Z" fill="#00018F"/>
<path d="M0 1.34383L7.11111 0V21.3333L0 19.9895V1.34383Z" fill="#9EBFFF"/>
<path d="M14.2224 0L21.3335 1.34383V19.9895L14.2224 21.3333V0Z" fill="#1718FF"/>
<path d="M14.2222 0L7.11108 9.32283V21.3333L21.3333 1.34383L14.2222 0Z" fill="#4E80FF"/>
</g>
<path d="M29.3335 19.3955V8.77424C29.3335 6.39983 30.0546 4.57662 31.4969 3.30461C32.9392 2.03261 34.8588 1.39661 37.2555 1.39661C39.6947 1.39661 41.6248 2.03261 43.0459 3.30461C44.4882 4.55542 45.2093 6.37863 45.2093 8.77424V19.3955C45.2093 19.6075 45.1139 19.7135 44.923 19.7135H41.137C40.9249 19.7135 40.8188 19.6075 40.8188 19.3955V8.80603C40.8188 6.43163 39.631 5.24442 37.2555 5.24442C34.9012 5.24442 33.724 6.43163 33.724 8.80603V19.3955C33.724 19.6075 33.618 19.7135 33.4059 19.7135H29.6198C29.4289 19.7135 29.3335 19.6075 29.3335 19.3955Z" fill="#FCFCFD"/>
<path d="M60.6176 13.7033H64.2764C64.4885 13.7033 64.5945 13.8093 64.5945 14.0213C64.5945 14.2545 64.5203 14.5831 64.3718 15.0071C64.2233 15.4311 63.9476 15.9399 63.5446 16.5335C63.1416 17.1059 62.6432 17.6465 62.0493 18.1553C61.4766 18.6429 60.7025 19.0669 59.7268 19.4273C58.7511 19.7877 57.6694 19.9679 56.4816 19.9679C53.8516 19.9679 51.7199 19.1199 50.0868 17.4239C48.4748 15.7279 47.6688 13.4701 47.6688 10.6504C47.6688 7.89443 48.4854 5.65782 50.1186 3.94062C51.7518 2.22341 53.8622 1.36481 56.4498 1.36481C59.1435 1.36481 61.2221 2.19161 62.6856 3.84522C64.1703 5.47762 64.9127 7.48103 64.9127 9.85544C64.9127 11.297 64.1597 12.0178 62.6538 12.0178H52.0593C52.2078 13.2687 52.6744 14.2969 53.4592 15.1025C54.2652 15.8869 55.2939 16.2791 56.5453 16.2791C58.4966 16.2791 59.7268 15.5265 60.2358 14.0213C60.3207 13.8093 60.4479 13.7033 60.6176 13.7033ZM52.0593 8.96504H60.6176C60.5752 7.75663 60.1828 6.74963 59.4404 5.94402C58.7193 5.13842 57.7012 4.73562 56.3862 4.73562C55.2408 4.73562 54.2758 5.12782 53.491 5.91222C52.7062 6.67543 52.229 7.69303 52.0593 8.96504Z" fill="#FCFCFD"/>
<path d="M65.7083 19.3637L71.1805 10.555L65.7401 2.00081C65.6765 1.89481 65.6659 1.81001 65.7083 1.74641C65.7507 1.66161 65.8356 1.61921 65.9628 1.61921H70.3533C70.5654 1.61921 70.7245 1.71461 70.8306 1.90541L74.3621 7.97923L77.8936 1.90541C77.9996 1.71461 78.1587 1.61921 78.3708 1.61921H82.634C82.9098 1.61921 82.9734 1.74641 82.8249 2.00081L77.3527 10.555L82.7931 19.3637C82.9204 19.5969 82.8461 19.7135 82.5704 19.7135H78.1799C77.9678 19.7135 77.8087 19.6181 77.7027 19.4273L74.203 13.3217L70.6397 19.4273C70.5336 19.6181 70.3745 19.7135 70.1624 19.7135H65.931C65.6341 19.7135 65.5598 19.5969 65.7083 19.3637Z" fill="#FCFCFD"/>
<path d="M84.9966 12.5584V1.93721C84.9966 1.72521 85.092 1.61921 85.2829 1.61921H89.0689C89.281 1.61921 89.3871 1.72521 89.3871 1.93721V12.5266C89.3871 14.9011 90.5748 16.0883 92.9504 16.0883C95.3047 16.0883 96.4819 14.9011 96.4819 12.5266V1.93721C96.4819 1.72521 96.5879 1.61921 96.8 1.61921H100.586C100.777 1.61921 100.872 1.72521 100.872 1.93721V12.5584C100.872 14.9329 100.151 16.7561 98.7089 18.0281C97.2667 19.3001 95.3365 19.9361 92.9186 19.9361C90.5006 19.9361 88.5705 19.3107 87.1282 18.0599C85.7071 16.7879 84.9966 14.9541 84.9966 12.5584Z" fill="#FCFCFD"/>
<path d="M103.809 13.8941H107.372C107.585 13.8941 107.722 14.0001 107.786 14.2121C107.956 14.9541 108.348 15.5689 108.963 16.0565C109.599 16.5229 110.384 16.7561 111.317 16.7561C112.272 16.7561 113.014 16.5653 113.545 16.1837C114.096 15.7809 114.372 15.2615 114.372 14.6255C114.372 14.0107 114.107 13.5337 113.576 13.1945C113.046 12.834 112.378 12.6008 111.572 12.4948C110.766 12.3888 109.896 12.2404 108.963 12.0496C108.03 11.8376 107.16 11.5938 106.354 11.3182C105.548 11.0426 104.88 10.5444 104.35 9.82364C103.82 9.08164 103.555 8.13823 103.555 6.99343C103.555 5.25502 104.265 3.87702 105.686 2.85941C107.128 1.84181 108.921 1.33301 111.063 1.33301C112.314 1.33301 113.417 1.51321 114.372 1.87361C115.347 2.21281 116.09 2.62621 116.599 3.11381C117.108 3.60142 117.521 4.14202 117.84 4.73562C118.158 5.32922 118.359 5.81682 118.444 6.19843C118.529 6.55883 118.571 6.86623 118.571 7.12063C118.571 7.33263 118.476 7.43863 118.285 7.43863H114.785C114.552 7.43863 114.425 7.33263 114.404 7.12063C114.234 6.33623 113.852 5.71082 113.258 5.24442C112.686 4.77802 111.922 4.54482 110.968 4.54482C109.992 4.54482 109.228 4.75682 108.677 5.18082C108.125 5.58362 107.85 6.10303 107.85 6.73903C107.85 7.29023 108.051 7.72483 108.454 8.04283C108.857 8.36083 109.366 8.59403 109.981 8.74243C110.618 8.89083 111.317 9.01804 112.081 9.12404C112.866 9.23004 113.64 9.37844 114.404 9.56924C115.188 9.76004 115.888 10.025 116.503 10.3642C117.14 10.6822 117.659 11.191 118.062 11.8906C118.465 12.569 118.667 13.4065 118.667 14.4029C118.667 16.1201 117.956 17.4875 116.535 18.5051C115.135 19.5015 113.375 19.9997 111.254 19.9997C109.981 19.9997 108.847 19.8195 107.85 19.4591C106.874 19.0987 106.121 18.6747 105.591 18.1871C105.06 17.6995 104.626 17.1695 104.286 16.5971C103.947 16.0035 103.724 15.5159 103.618 15.1343C103.533 14.7527 103.491 14.4453 103.491 14.2121C103.491 14.0001 103.597 13.8941 103.809 13.8941Z" fill="#FCFCFD"/>
</svg>
