<svg width="54" height="14" viewBox="0 0 54 14" fill="none" xmlns="http://www.w3.org/2000/svg">
<path fill-rule="evenodd" clip-rule="evenodd" d="M46.8677 0.759235C46.8677 0.724187 46.8833 0.686188 46.9244 0.651643C46.9668 0.616019 47.0318 0.589391 47.1086 0.589391H48.7705C48.7981 0.589391 48.8512 0.603785 48.9127 0.654018C48.9704 0.701157 49.0188 0.767079 49.045 0.838542C49.619 2.92474 50.194 4.99395 50.8116 7.08252L50.8537 7.23265C50.8897 7.36147 51.0165 7.44409 51.1505 7.4261C51.2845 7.4081 51.3843 7.29504 51.3843 7.1614V0.759235C51.3843 0.684964 51.4498 0.589391 51.604 0.589391H52.9462C53.0233 0.589391 53.0884 0.616091 53.1308 0.651643C53.1719 0.686188 53.1874 0.724187 53.1874 0.759235V13.2406C53.1874 13.2756 53.1719 13.3137 53.1308 13.3482C53.0884 13.3838 53.0233 13.4104 52.9462 13.4104H51.5188C51.4912 13.4104 51.4393 13.396 51.3825 13.3482C51.3276 13.302 51.2863 13.2392 51.2696 13.1745L51.268 13.1687L50.0906 9.00888L49.2225 5.96803C49.1859 5.83964 49.059 5.75767 48.9254 5.77595C48.7916 5.79423 48.6921 5.90722 48.6921 6.04058V13.2406C48.6921 13.2756 48.6766 13.3137 48.6354 13.3482C48.5931 13.3838 48.5279 13.4104 48.4509 13.4104H47.1086C47.0318 13.4104 46.9668 13.3839 46.9244 13.3482C46.8833 13.3137 46.8677 13.2757 46.8677 13.2406V0.759235ZM49.5641 0.689138C49.9851 2.2196 50.4062 3.73884 50.8438 5.26232V0.759235C50.8438 0.339592 51.2049 0.0551758 51.604 0.0551758H52.9462C53.3298 0.0551758 53.728 0.325846 53.728 0.759235V13.2406C53.728 13.674 53.3298 13.9446 52.9462 13.9446H51.5188C51.3336 13.9446 51.1619 13.8641 51.0323 13.7551C50.9016 13.6452 50.7942 13.4908 50.7466 13.31L49.5702 9.15339L49.2327 7.97103V13.2406C49.2327 13.674 48.8345 13.9446 48.4509 13.9446H47.1086C46.7253 13.9446 46.3272 13.674 46.3272 13.2406V0.759235C46.3272 0.325918 46.7253 0.0551758 47.1086 0.0551758H48.7705C48.9561 0.0551758 49.1269 0.135852 49.2571 0.242292C49.3894 0.350387 49.4995 0.500294 49.5591 0.673089C49.5603 0.676543 49.5614 0.679926 49.5624 0.683381C49.563 0.685324 49.5636 0.687195 49.5641 0.689138ZM43.5508 0.0931741C43.1512 0.0931741 42.7907 0.377734 42.7907 0.797233V13.2406C42.7907 13.6601 43.1512 13.9446 43.5508 13.9446H44.8931C45.306 13.9446 45.6745 13.6672 45.6745 13.2406V0.797233C45.6745 0.370681 45.306 0.0931741 44.8931 0.0931741H43.5508ZM43.3312 0.797233C43.3312 0.722891 43.3964 0.62739 43.5508 0.62739H44.8931C45.0767 0.62739 45.134 0.729871 45.134 0.797233V13.2406C45.134 13.308 45.0767 13.4104 44.8931 13.4104H43.5508C43.3964 13.4104 43.3312 13.315 43.3312 13.2406V0.797233ZM32.5303 4.28723C32.3273 3.01794 32.1225 1.73792 31.8968 0.55132C31.8747 0.426816 31.8117 0.323903 31.7175 0.250496C31.6298 0.182199 31.5296 0.150749 31.4463 0.134412C31.3154 0.108791 31.1591 0.110519 31.0437 0.111742C31.021 0.111958 30.9999 0.112173 30.9809 0.112173C30.9725 0.112173 30.9641 0.112605 30.9558 0.113325C30.9353 0.110806 30.9139 0.109512 30.8917 0.109512H29.5258C29.2394 0.109512 28.9089 0.326349 28.8429 0.582554L27.3448 5.94335H26.9041V0.582554C26.9041 0.326349 26.6618 0.109512 26.3754 0.109512H24.9635C24.677 0.109512 24.4808 0.326349 24.4808 0.582554V13.472C24.4808 13.7282 24.7011 13.9253 24.9875 13.9253H26.3754C26.6618 13.9253 26.9041 13.7282 26.9041 13.472V8.11123H27.3888L29.0611 13.472C29.1493 13.7282 29.4798 13.9253 29.7661 13.9253H31.1541C31.3438 13.9253 31.4659 13.8388 31.5011 13.706C31.6634 13.8569 31.8872 13.9446 32.1101 13.9446H33.9636C33.9726 13.9446 33.9816 13.9442 33.9906 13.9433C34.3399 13.9087 34.5775 13.5921 34.6342 13.2892C34.6349 13.285 34.6356 13.281 34.6361 13.2769C34.9172 11.2534 35.2174 9.22968 35.5188 7.20465C35.8202 9.22968 36.1203 11.2534 36.4016 13.2769L36.4016 13.2778L36.4028 13.2855C36.4636 13.638 36.7711 13.9446 37.1379 13.9446H39.0555C39.378 13.9446 39.7037 13.7184 39.7487 13.3767C39.9506 12.3248 40.1472 11.2777 40.3438 10.2312C40.5409 9.18146 40.738 8.13195 40.9403 7.07821L40.9408 7.07569C41.3242 4.96718 41.7074 2.87846 42.112 0.771037C42.1133 0.764272 42.1143 0.757508 42.1151 0.750671C42.1332 0.5886 42.0885 0.425233 41.9759 0.300945C41.8626 0.175793 41.7005 0.112173 41.5268 0.112173H39.9504C39.6166 0.112173 39.3102 0.34542 39.2389 0.663517L39.2371 0.671938C38.8325 2.79944 38.4276 4.94703 38.0439 7.09497L38.0437 7.09598L37.9522 7.58565L37.8956 7.21811C37.5975 5.07297 37.2782 2.92812 36.959 0.803351C36.9405 0.615876 36.8519 0.448695 36.7316 0.327573C36.6109 0.20602 36.4385 0.112173 36.2433 0.112173H34.7946C34.4551 0.112173 34.1775 0.38745 34.0992 0.688059C34.0974 0.695112 34.0959 0.702308 34.0946 0.709577L34.0807 0.790253L34.0797 0.79601C33.7603 2.92323 33.4406 5.07053 33.1421 7.21818L33.0856 7.58565L33.0153 7.20998L33.0152 7.2089C32.8484 6.27569 32.69 5.2852 32.5305 4.28817L32.5303 4.28723ZM31.0517 12.1153L30.119 7.07914L30.1187 7.07785C30.0164 6.55407 29.922 6.04662 29.8318 5.54767L29.4157 6.98789L31.0517 12.1153ZM30.1718 4.37086C30.3192 5.21446 30.4715 6.06605 30.6497 6.97781L30.6502 6.98033L31.8013 13.1957C31.818 13.2925 31.9411 13.4104 32.1101 13.4104H33.9438C33.9828 13.4003 34.0735 13.3372 34.1016 13.1974C34.3996 11.0517 34.7191 8.90618 35.0383 6.7622L35.2514 5.28103C35.2703 5.1494 35.3844 5.05153 35.5189 5.05153C35.6535 5.05153 35.7676 5.1494 35.7865 5.2811L35.9992 6.76162C36.3185 8.90625 36.6381 11.053 36.9363 13.1993C36.9621 13.3384 37.0794 13.4104 37.1379 13.4104H39.0555C39.1557 13.4104 39.2093 13.3378 39.2129 13.3062C39.2132 13.3036 39.2135 13.301 39.2138 13.2984C39.2145 13.2942 39.2151 13.29 39.216 13.2858C39.4181 12.2324 39.6151 11.1835 39.8122 10.1342L39.8124 10.1334L39.8125 10.1324C40.0095 9.08365 40.2066 8.03415 40.409 6.97997C40.7916 4.87585 41.1744 2.7898 41.5783 0.684604C41.5788 0.674241 41.5775 0.667476 41.5763 0.663734C41.575 0.659344 41.5736 0.657689 41.5731 0.657185C41.5727 0.656753 41.5708 0.654737 41.5653 0.652434C41.5595 0.650059 41.5475 0.646389 41.5268 0.646389H39.9504C39.8593 0.646389 39.783 0.714975 39.7673 0.776147C39.363 2.90185 38.9588 5.04555 38.5761 7.18882L38.5756 7.19091L38.1922 9.24263C38.1682 9.37088 38.0541 9.46328 37.9222 9.4612C37.7902 9.45911 37.679 9.36325 37.6592 9.23428L37.3603 7.29274C37.0622 5.1476 36.7428 3.0021 36.4232 0.874454C36.4229 0.871719 36.4224 0.868913 36.4221 0.866178C36.4218 0.863444 36.4215 0.860637 36.4213 0.857903C36.4164 0.8022 36.3887 0.744913 36.3459 0.701805C36.3015 0.657113 36.2609 0.646389 36.2433 0.646389H34.7946C34.756 0.646389 34.6589 0.69871 34.6252 0.812275L34.6139 0.877333C34.2946 3.00405 33.9754 5.14854 33.6774 7.29274L33.6769 7.29655L33.3786 9.23428C33.3588 9.36325 33.2476 9.45911 33.1157 9.4612C32.9837 9.46328 32.8696 9.37088 32.8456 9.24263L32.4831 7.30282C32.3116 6.34298 32.1527 5.34854 31.9935 4.35315L31.9935 4.35229C31.7938 3.10264 31.5937 1.85113 31.3684 0.665101C31.3618 0.663086 31.3529 0.66071 31.3412 0.658479C31.3157 0.653441 31.2847 0.65006 31.2474 0.647973L30.1718 4.37086ZM6.19525 0.641712V11.8165C6.19525 12.9005 5.26996 13.807 4.05824 13.9253H1.45863C1.19422 13.9253 0.951904 13.7282 0.951904 13.472V12.2698C0.951904 12.0136 1.19422 11.8165 1.48065 11.8165H3.19902C3.55152 11.7377 3.81593 11.442 3.81593 11.107V0.641712C3.81593 0.385435 4.03622 0.168668 4.32258 0.168668H5.6665C5.95286 0.168668 6.19525 0.385435 6.19525 0.641712ZM15.4482 9.16239L16.2413 13.472C16.2853 13.7085 16.1091 13.9253 15.8007 13.9253H13.906L13.0909 9.56965L10.1387 12.0136L9.78621 13.9253H7.89159C7.58314 13.9253 7.40697 13.7085 7.45094 13.472C7.70743 12.1438 7.94737 10.8229 8.18594 9.50949C8.33679 8.67912 8.48705 7.85171 8.64063 7.02725C9.0592 4.87902 9.45581 2.71107 9.83033 0.562835C9.8964 0.286912 10.1828 0.109512 10.4692 0.109512H13.223C13.5095 0.109512 13.7959 0.286912 13.862 0.562835C14.0005 1.31339 14.1364 2.06631 14.2723 2.81995C14.5256 4.22354 14.7793 5.62957 15.0516 7.02725C15.1838 7.73678 15.316 8.44847 15.4482 9.16239ZM11.8572 2.88847L10.6896 9.17548L12.7163 7.48058L11.8572 2.88847ZM23.247 13.472C23.247 13.7282 23.0047 13.9253 22.6963 13.9253H19.7882C18.4884 13.9253 17.4089 12.9793 17.4089 11.7968V2.2381C17.4089 1.05552 18.4884 0.109512 19.7882 0.109512H22.6963C23.0047 0.109512 23.247 0.30663 23.247 0.543116V1.76505C23.247 2.00161 23.0047 2.19866 22.6963 2.19866H20.6254C20.1848 2.19866 19.8323 2.53367 19.8323 2.92791V11.107C19.8323 11.5012 20.1848 11.8362 20.6254 11.8362H22.6963C23.0047 11.8362 23.247 12.0332 23.247 12.2698V13.472Z" fill="#475467"/>
</svg>
