<svg width="54" height="14" viewBox="0 0 54 14" fill="none" xmlns="http://www.w3.org/2000/svg">
<path d="M6.28164 0.417986V0.874379C6.16118 0.832915 6.08087 0.832915 6.04072 0.874379C6.00056 0.915843 5.96041 0.95738 5.8801 1.04038C5.83995 1.12331 5.79979 1.24784 5.79979 1.45531V9.09011C5.79979 9.21457 5.79979 9.33911 5.79979 9.46357C5.79979 9.58804 5.79979 9.7125 5.79979 9.83704V10.003C5.79979 10.0445 5.79979 10.1274 5.79979 10.169C5.79979 10.2104 5.79979 10.2934 5.79979 10.3349C5.75964 10.8328 5.71948 11.2893 5.63917 11.7042C5.55886 12.1191 5.4384 12.4511 5.23763 12.7415C5.07701 13.032 4.83608 13.281 4.51485 13.4469C4.23377 13.6129 3.83222 13.7374 3.39045 13.7789C2.9086 13.8204 2.50706 13.7374 2.18582 13.5299C1.86458 13.3639 1.5835 13.115 1.38273 12.8245C1.18196 12.5341 1.02134 12.2022 0.941032 11.8287C0.860723 11.4553 0.820569 11.1233 0.860724 10.8328C0.900878 10.5009 1.02134 10.252 1.18196 10.0445C1.34258 9.83704 1.5835 9.7125 1.86458 9.7125C2.10551 9.7125 2.34644 9.7955 2.50706 9.9615C2.70783 10.1274 2.78814 10.3764 2.78814 10.6254C2.78814 10.8328 2.70783 11.0403 2.58736 11.2063C2.4669 11.3723 2.30628 11.4968 2.10551 11.5382C2.06536 11.5382 2.06536 11.5382 2.0252 11.5382C1.82443 11.5798 1.74412 11.7457 1.70397 11.9531C1.66381 12.1607 1.74412 12.3682 1.86458 12.6171C1.98505 12.8245 2.18582 13.032 2.42675 13.198C2.66767 13.3639 2.98891 13.4055 3.31014 13.3225C3.55107 13.281 3.75191 13.198 3.91253 13.032C4.07315 12.9075 4.19361 12.7415 4.27392 12.5341C4.35423 12.3266 4.43454 12.1191 4.47469 11.8287C4.51485 11.5798 4.555 11.2893 4.555 10.9988V10.3764V1.41377C4.555 1.24784 4.51485 1.08184 4.47469 0.998843C4.43454 0.915843 4.35423 0.874379 4.31408 0.832915C4.27392 0.791379 4.19361 0.791379 4.11331 0.832915V0.376449H6.28164V0.417986ZM12.4254 7.01546C12.4254 7.80378 12.4254 8.50918 12.4254 9.09011C12.4254 9.67104 12.4254 10.2104 12.3853 10.6254C12.3451 11.0818 12.305 11.4138 12.2246 11.7457C12.1443 12.0362 12.0239 12.3266 11.8633 12.5341C11.6223 12.9075 11.3412 13.198 10.9397 13.3639C10.5783 13.5714 10.2169 13.6544 9.81538 13.6544C9.45392 13.6544 9.09253 13.5714 8.69098 13.3639C8.32959 13.1565 8.00836 12.9075 7.76743 12.5341C7.60681 12.2852 7.48635 12.0362 7.40604 11.7457C7.32573 11.4553 7.28558 11.0818 7.24542 10.6254C7.20527 10.2104 7.20527 9.67104 7.20527 9.09011C7.20527 8.50918 7.20527 7.80378 7.20527 7.01546C7.20527 5.9366 7.20527 5.06521 7.20527 4.35981C7.20527 3.65449 7.28558 3.07356 7.36589 2.6171C7.40604 2.2437 7.5265 1.87024 7.72728 1.57977C7.92805 1.28931 8.12882 1.04038 8.4099 0.832915C8.8516 0.54245 9.2933 0.417986 9.77523 0.417986C10.0162 0.417986 10.2169 0.45945 10.4579 0.542451C10.6988 0.625451 10.8995 0.708378 11.1003 0.874379C11.3814 1.04038 11.6223 1.28931 11.8231 1.62124C12.0239 1.9117 12.1443 2.28517 12.1845 2.65863C12.2648 3.11503 12.305 3.69596 12.3451 4.40135C12.3853 5.06521 12.4254 5.9366 12.4254 7.01546ZM11.1806 11.1233C11.1806 10.6254 11.1806 10.003 11.1806 9.25611C11.1806 8.55072 11.1806 7.76232 11.1806 7.01546C11.1806 6.26853 11.1806 5.52167 11.1806 4.77482C11.1806 4.06942 11.1806 3.44695 11.1806 2.90756C11.1806 2.11917 11.0602 1.57977 10.7791 1.28931C10.498 0.998843 10.2169 0.832915 9.81538 0.832915C9.45392 0.832915 9.13268 0.998843 8.8516 1.28931C8.57052 1.57977 8.45006 2.11917 8.45006 2.90756V6.97393V11.0818C8.45006 11.8702 8.57052 12.4096 8.81145 12.7415C9.05237 13.0735 9.37361 13.2395 9.85553 13.2395C10.3374 13.2395 10.6586 13.0735 10.8594 12.7415C11.0602 12.4511 11.1806 11.9117 11.1806 11.1233ZM19.533 0.417986V0.874379C19.4527 0.832915 19.3724 0.832915 19.292 0.874379C19.2117 0.915843 19.1314 0.95738 19.0511 1.04038C18.9708 1.12331 18.9307 1.24784 18.8503 1.45531C18.8503 1.49677 18.77 1.70424 18.6496 2.11917C18.5291 2.5341 18.3283 3.11503 18.1275 3.77896C17.9267 4.44281 17.6858 5.18975 17.4449 6.0196C17.2039 6.84946 16.9229 7.63786 16.6819 8.42625V12.5756C16.6819 12.7415 16.7221 12.866 16.7622 12.949C16.8024 13.032 16.8425 13.0735 16.9229 13.0735C17.0032 13.115 17.0835 13.115 17.1638 13.0735V13.5714H15.0355V13.115C15.0757 13.115 15.1158 13.115 15.156 13.115C15.1961 13.115 15.2363 13.115 15.2765 13.115C15.3166 13.115 15.3568 13.0735 15.3969 13.032C15.4371 12.949 15.4773 12.7831 15.4773 12.5756V8.42625C15.2765 7.63786 15.0757 6.808 14.8749 5.97807C14.6741 5.14821 14.4734 4.40135 14.3127 3.73742C14.1521 3.07356 13.9915 2.49263 13.871 2.0777C13.7506 1.62124 13.7104 1.41377 13.7104 1.41377C13.6703 1.24784 13.6301 1.08184 13.5498 0.998843C13.4695 0.915843 13.3892 0.874379 13.3089 0.832915C13.1884 0.791379 13.1081 0.791379 13.0278 0.832915V0.376449H15.2765V0.832915C15.1961 0.791379 15.1158 0.791379 15.0757 0.832915C15.0355 0.874379 14.9552 0.915843 14.9552 0.998843C14.9151 1.08184 14.9151 1.20631 14.9954 1.41377C14.9954 1.41377 15.0355 1.62124 15.1158 1.95324C15.1961 2.28517 15.3166 2.74156 15.4371 3.32249C15.5576 3.86196 15.7182 4.52582 15.919 5.23121C16.0796 5.9366 16.2804 6.642 16.441 7.38886C16.6819 6.68346 16.8827 5.9366 17.1236 5.23121C17.3646 4.52582 17.5653 3.90342 17.7259 3.32249C17.8866 2.7831 18.0472 2.32663 18.1676 1.95324C18.2881 1.62124 18.3283 1.41377 18.3283 1.41377C18.3685 1.24784 18.4086 1.08184 18.3685 0.998843C18.3283 0.915843 18.2881 0.874379 18.248 0.832915C18.2078 0.791379 18.1275 0.791379 18.0472 0.832915V0.376449H19.533V0.417986ZM22.8257 0.874379C22.6249 0.915843 22.4643 0.95738 22.3037 1.04038C22.1431 1.12331 21.9825 1.24785 21.862 1.37231C21.7415 1.53831 21.6211 1.74577 21.5809 1.9947C21.5006 2.2437 21.4605 2.57563 21.4605 2.9491C21.4605 3.44695 21.4605 4.06942 21.4605 4.81628C21.4605 5.52167 21.4605 6.26853 21.4605 7.05693C21.4605 7.84532 21.4605 8.59218 21.4605 9.29757C21.4605 10.003 21.4605 10.6254 21.4605 11.1648C21.4605 11.9531 21.5809 12.4926 21.862 12.8245C22.1029 13.1565 22.4242 13.3225 22.8257 13.3225C23.1469 13.3225 23.428 13.281 23.6689 13.198C23.9099 13.115 24.1509 12.9905 24.3115 12.7831C24.4721 12.5756 24.6327 12.3266 24.713 11.9947C24.7933 11.6628 24.8737 11.2478 24.8737 10.7914V10.2104H25.2752V11.1648C25.2752 11.9531 25.0744 12.5756 24.6327 13.032C24.191 13.4885 23.6288 13.6959 22.8257 13.6959C22.4643 13.6959 22.1029 13.6129 21.7014 13.4055C21.34 13.198 21.0187 12.949 20.7778 12.5756C20.6171 12.3266 20.4967 12.0777 20.4164 11.7872C20.3762 11.4553 20.2959 11.0818 20.2959 10.6254C20.2558 10.2104 20.2557 9.67104 20.2557 9.09011C20.2557 8.50918 20.2557 7.80378 20.2557 7.01546C20.2557 5.9366 20.2557 5.06521 20.2557 4.35981C20.2557 3.65449 20.2959 3.07356 20.4164 2.6171C20.4565 2.2437 20.577 1.87024 20.7778 1.57977C20.9785 1.28931 21.2195 1.04038 21.5006 0.832915C21.9423 0.54245 22.384 0.417986 22.8659 0.417986C22.906 0.417986 22.9863 0.417986 23.0265 0.417986C23.0666 0.417986 23.1469 0.417986 23.1871 0.417986L23.1469 0.376449C23.2273 0.417986 23.2674 0.417986 23.3076 0.417986C23.5886 0.45945 23.7894 0.54245 23.95 0.625451C24.1106 0.708378 24.2713 0.791379 24.3918 0.832915C24.4721 0.874379 24.5524 0.874379 24.6327 0.832915C24.7933 0.749915 24.8335 0.583914 24.8335 0.334986C24.8737 0.334986 24.8737 0.334986 24.8737 0.334986H24.9138H25.235V3.57149H24.8335C24.8335 3.36403 24.7933 3.15656 24.7933 2.9491C24.7532 2.7831 24.7532 2.57563 24.713 2.36817C24.6729 2.1607 24.5926 1.95324 24.5123 1.74577C24.4721 1.70424 24.432 1.62124 24.3516 1.49677C24.2713 1.37231 24.1508 1.24785 24.0303 1.12331C23.9099 0.998844 23.7091 0.915843 23.5083 0.832915C23.3076 0.832915 23.0666 0.832915 22.8257 0.874379ZM31.6599 12.6171C31.7001 12.7831 31.7402 12.9075 31.8205 12.9905C31.9008 13.0735 31.9811 13.115 32.0614 13.1565C32.1418 13.198 32.2622 13.198 32.3827 13.1565V13.6129H29.7726V13.115C29.893 13.1565 29.9733 13.1565 30.0536 13.115C30.0939 13.0735 30.1742 13.032 30.2143 12.949C30.2545 12.866 30.2545 12.7415 30.2545 12.5756C30.2545 12.5341 30.2143 12.3266 30.1742 11.9117C30.0939 11.4968 30.0136 10.9574 29.9332 10.2934H27.6444C27.5239 10.9574 27.4436 11.4968 27.3633 11.9117C27.283 12.3266 27.283 12.5341 27.283 12.5756C27.2428 12.7415 27.2428 12.866 27.283 12.949C27.3231 13.032 27.3633 13.0735 27.4436 13.115C27.5239 13.1565 27.6042 13.1565 27.7247 13.115V13.5714H25.998V13.115C26.1184 13.1565 26.1987 13.1565 26.3192 13.115C26.3995 13.0735 26.52 13.032 26.5601 12.949C26.6404 12.866 26.6806 12.7415 26.7208 12.5756C26.7208 12.5756 26.7609 12.3682 26.8011 12.0362C26.8412 11.7042 26.9215 11.2063 27.042 10.6669C27.1625 10.086 27.2428 9.46358 27.4035 8.71672C27.5239 8.01132 27.6845 7.26439 27.805 6.476L28.8892 0.417986H29.8127C30.1742 2.65863 30.4553 4.69182 30.7363 6.43453C30.8568 7.18139 30.9773 7.92832 31.0576 8.67518C31.178 9.38057 31.2584 10.0445 31.3387 10.6254C31.419 11.2063 31.4993 11.6628 31.5796 12.0362C31.6197 12.4096 31.6599 12.5756 31.6599 12.6171ZM27.7247 9.83704H29.893C29.8127 9.33911 29.7324 8.79964 29.6521 8.21879C29.5718 7.63786 29.4915 7.05693 29.371 6.476C29.2907 5.89514 29.2104 5.31421 29.0899 4.77482C29.0096 4.23535 28.9293 3.69596 28.849 3.23949C28.7687 3.69596 28.6482 4.23535 28.5679 4.77482C28.4876 5.31421 28.3672 5.89514 28.2869 6.476C28.1664 7.05693 28.0861 7.63786 28.0058 8.21879C27.8853 8.79964 27.805 9.33911 27.7247 9.83704ZM35.6353 5.89514C36.4384 6.93246 37.0006 7.92832 37.362 8.84118C37.7234 9.75404 37.8438 10.6254 37.6832 11.4968C37.6029 11.7872 37.5226 12.0362 37.4021 12.3266C37.2817 12.5756 37.1612 12.8245 36.9604 13.032C36.7998 13.2395 36.5589 13.4055 36.318 13.5299C36.0369 13.6544 35.7557 13.7374 35.3542 13.7374C35.1132 13.7374 34.9125 13.6959 34.7117 13.6129C34.5109 13.4885 34.3503 13.4055 34.1897 13.3225C34.0291 13.2395 33.9086 13.198 33.8283 13.2395C33.748 13.2395 33.7078 13.3639 33.6677 13.6129H33.1858V10.3349H33.6677C33.6275 10.6254 33.6275 10.8744 33.6275 11.0818C33.6275 11.3308 33.6677 11.5382 33.7078 11.7872C33.748 11.9531 33.8283 12.1607 33.8685 12.3266C33.9488 12.4926 34.0291 12.6585 34.1495 12.8245C34.27 12.9905 34.4306 13.115 34.5912 13.198C34.7519 13.281 34.9928 13.3639 35.2337 13.3639C35.3943 13.3639 35.5951 13.3225 35.836 13.198C36.0369 13.0735 36.2376 12.949 36.3581 12.7831C36.6392 12.3682 36.7998 11.9117 36.7195 11.4553C36.6793 10.9574 36.5187 10.5009 36.318 10.0445C36.077 9.58804 35.836 9.17311 35.5148 8.75818C35.1936 8.34325 34.9526 8.01132 34.7117 7.67932C34.3102 7.18139 33.9488 6.642 33.7078 6.14407C33.4669 5.64614 33.2661 5.14821 33.1457 4.69182C33.0252 4.23535 32.9851 3.77896 32.9851 3.32249C32.9851 2.8661 33.0252 2.49263 33.1055 2.0777C33.2661 1.49677 33.5071 1.04038 33.8283 0.708379C34.1495 0.37645 34.6715 0.210449 35.3542 0.210449C35.5951 0.210449 35.7959 0.251985 35.9566 0.376449C36.1573 0.500914 36.318 0.583915 36.4384 0.666915C36.5589 0.749916 36.6793 0.791379 36.7597 0.791379C36.84 0.791379 36.8801 0.62545 36.9203 0.376449H37.4021V3.61296H36.9203C36.9604 3.03203 36.9203 2.57563 36.7998 2.1607C36.7195 1.78724 36.5589 1.45531 36.3581 1.16484C36.1573 0.87438 35.836 0.708379 35.3943 0.708379C35.1534 0.708379 34.9526 0.749914 34.7117 0.874379C34.5109 0.957379 34.3503 1.08184 34.1897 1.24784C33.9086 1.66277 33.7882 2.0777 33.7882 2.49263C33.7882 2.90756 33.9086 3.32249 34.1094 3.73742C34.3102 4.15235 34.5109 4.52581 34.792 4.89928C35.1936 5.27267 35.4345 5.60467 35.6353 5.89514ZM40.0524 12.5756C40.0524 12.7415 40.0925 12.866 40.1327 12.949C40.1729 13.032 40.2532 13.0735 40.2933 13.0735C40.3335 13.115 40.4138 13.115 40.5342 13.0735V13.5714H38.3658V13.115C38.4461 13.1565 38.5264 13.1565 38.6068 13.115C38.6469 13.115 38.6871 13.0735 38.7272 12.9905C38.7674 12.9075 38.8075 12.7831 38.8075 12.6171V1.41377C38.8075 1.24784 38.7674 1.08184 38.7272 0.998843C38.6871 0.915843 38.6469 0.874379 38.6068 0.832915C38.5264 0.791379 38.4461 0.791379 38.3658 0.832915V0.376449H40.5342V0.832915C40.4539 0.791379 40.3736 0.791379 40.2933 0.832915C40.2532 0.874379 40.213 0.915843 40.1327 0.998843C40.0925 1.08184 40.0524 1.20631 40.0524 1.41377V12.5756ZM45.7946 0.417986H47.3606V0.874379C47.2402 0.832915 47.1599 0.832915 47.0796 0.874379C47.0394 0.915843 46.9591 0.95738 46.9189 1.04038C46.8788 1.12331 46.8386 1.24784 46.8386 1.41377V13.5714H45.3529L42.3814 2.99056V12.5756C42.3814 12.7415 42.4216 12.866 42.4617 12.949C42.5019 13.032 42.5822 13.0735 42.6223 13.115C42.7027 13.1565 42.783 13.1565 42.9034 13.115V13.6129H41.3373V13.115C41.4176 13.1565 41.4979 13.1565 41.5783 13.115C41.6184 13.0735 41.6987 13.032 41.7389 12.949C41.779 12.866 41.8192 12.7415 41.8192 12.5756V1.41377C41.8192 1.24784 41.779 1.12331 41.7389 1.04038C41.6987 0.95738 41.6184 0.915843 41.5783 0.874379C41.4979 0.832915 41.4176 0.832915 41.3373 0.874379V0.417986H43.1444L46.3166 11.6212V1.41377C46.3166 1.24784 46.2765 1.12331 46.2363 1.04038C46.1962 0.95738 46.1159 0.915843 46.0757 0.874379C45.9954 0.832915 45.9151 0.832915 45.8348 0.874379V0.417986H45.7946ZM53.7053 7.01546C53.7053 7.80378 53.7053 8.50918 53.7053 9.09011C53.7053 9.67104 53.7053 10.2104 53.6651 10.6254C53.625 11.0818 53.5848 11.4138 53.5045 11.7457C53.4242 12.0362 53.3037 12.3266 53.143 12.5341C52.9021 12.9075 52.621 13.198 52.2195 13.3639C51.8581 13.5714 51.4565 13.6544 51.0951 13.6544C50.7338 13.6544 50.3723 13.5714 49.9708 13.3639C49.6094 13.1565 49.2881 12.9075 49.0472 12.5341C48.8866 12.2852 48.7661 12.0362 48.6858 11.7457C48.6055 11.4553 48.5653 11.0818 48.5252 10.6254C48.485 10.2104 48.485 9.67104 48.485 9.09011C48.485 8.50918 48.485 7.80378 48.485 7.01546C48.485 5.9366 48.485 5.06521 48.485 4.35981C48.485 3.65449 48.5653 3.07356 48.6457 2.6171C48.6858 2.2437 48.8063 1.87024 49.007 1.57977C49.2078 1.28931 49.4487 1.04038 49.6897 0.832915C50.1314 0.54245 50.5731 0.417986 51.055 0.417986C51.2959 0.417986 51.4967 0.45945 51.7376 0.542451C51.9785 0.625451 52.1793 0.708378 52.3801 0.874379C52.6612 1.04038 52.9021 1.28931 53.1029 1.62124C53.3036 1.9117 53.4241 2.28517 53.4643 2.65863C53.5446 3.11503 53.5848 3.69596 53.6249 4.40135C53.7053 5.06521 53.7053 5.9366 53.7053 7.01546ZM52.5006 11.1233C52.5006 10.6254 52.5006 10.003 52.5006 9.25611C52.5006 8.55072 52.5006 7.76232 52.5006 7.01546C52.5006 6.26853 52.5006 5.52167 52.5006 4.77482C52.5006 4.06942 52.5006 3.44695 52.5006 2.90756C52.5006 2.11917 52.3801 1.57977 52.099 1.28931C51.8179 0.998843 51.4967 0.832915 51.1353 0.832915C50.7739 0.832915 50.4526 0.998843 50.1715 1.28931C49.8904 1.57977 49.77 2.11917 49.77 2.90756V6.97393V11.0818C49.77 11.8702 49.8904 12.4096 50.1314 12.7415C50.3723 13.0735 50.6936 13.2395 51.1755 13.2395C51.6172 13.2395 51.9785 13.0735 52.1793 12.7415C52.3801 12.4511 52.5006 11.9117 52.5006 11.1233Z" fill="#475467"/>
</svg>
