<svg width="1562" height="1562" viewBox="0 0 1562 1562" fill="none" xmlns="http://www.w3.org/2000/svg">
<path d="M771.86 1214.21L771.956 1214.34M771.956 1214.34L998.99 1516.2C1024.74 1550.44 1067.34 1567.01 1109.06 1559.02L1469.61 1489.92C1522.62 1479.76 1561 1432.79 1561 1378.07V183.926C1561 129.215 1522.62 82.2433 1469.61 72.0839L1109.06 2.98303C1067.34 -5.01341 1024.74 11.5555 998.99 45.7953L521 681.339L521 781M771.956 1214.34L1041 830.831M771.956 1214.34L562.665 1512.67C537.269 1548.87 493.424 1566.78 450.379 1558.53L92.3901 1489.92C39.3818 1479.76 1 1432.79 1 1378.07V183.926C1 129.214 39.3818 82.2432 92.3902 72.0838L450.379 3.47296C493.425 -4.777 537.269 13.1287 562.666 49.3298L771.86 347.524M1041 830.831V1539.34M1041 830.831L1041 14.1252M521 781V14.1252M521 781V1539.34" stroke="url(#paint0_linear_241_9047)" stroke-opacity="0.3" stroke-linejoin="round"/>
<defs>
<linearGradient id="paint0_linear_241_9047" x1="781" y1="1" x2="781" y2="494" gradientUnits="userSpaceOnUse">
<stop stop-color="#475467"/>
<stop offset="1" stop-color="#475467" stop-opacity="0"/>
</linearGradient>
</defs>
</svg>
