<svg width="89" height="12" viewBox="0 0 89 12" fill="none" xmlns="http://www.w3.org/2000/svg">
<path fill-rule="evenodd" clip-rule="evenodd" d="M0.558594 0.837891H5.9719C6.62213 0.837891 7.26464 0.898538 7.88201 1.11059C9.58298 1.69468 10.1921 3.47638 9.1955 4.95483C9.06838 5.13969 8.9216 5.31083 8.75767 5.46532C8.64521 5.57263 8.51826 5.66553 8.39876 5.75303C8.34729 5.79069 8.29728 5.82732 8.25036 5.86361C8.34849 5.92537 8.45006 5.98404 8.55205 6.04298C8.77543 6.17199 9.00035 6.30195 9.19388 6.467C9.95571 7.11714 10.1621 8.13975 9.75703 9.1603C9.2951 10.3252 8.34283 10.8738 7.14205 11.0875C6.91782 11.1266 6.69058 11.1462 6.46283 11.146C4.49696 11.1521 2.52887 11.1528 0.558594 11.1481V0.837891ZM2.99024 8.91016H4.81987C4.9744 8.91016 5.129 8.91076 5.28367 8.91127C5.73857 8.91307 6.19382 8.91479 6.64838 8.90158C7.18855 8.88545 7.50543 8.57947 7.53888 8.07858C7.57113 7.60189 7.26524 7.2417 6.74857 7.15523C6.61346 7.1367 6.47716 7.12915 6.34085 7.13267H3.25569C3.19597 7.13267 3.13625 7.13781 3.07456 7.14313C3.04691 7.14545 3.01886 7.14785 2.99024 7.14991V8.91016ZM3.0001 3.10116V4.88337H3.50909C3.78753 4.88063 4.06606 4.87943 4.3446 4.87831C5.04109 4.87531 5.73789 4.87239 6.43332 4.84477C6.95325 4.82324 7.22578 4.4808 7.2329 3.97245C7.24002 3.48924 6.997 3.2144 6.4727 3.13016C6.31082 3.10528 6.14724 3.09276 5.98339 3.09259C5.08074 3.08933 4.17844 3.08933 3.27648 3.09259C3.20922 3.09019 3.14406 3.0937 3.07478 3.09739C3.05048 3.09868 3.02568 3.10005 3.0001 3.10116ZM34.9139 0.842951V7.32731C34.9491 7.28141 34.9794 7.24281 35.0062 7.20867C35.0527 7.14957 35.0892 7.10299 35.1225 7.05512C36.5177 5.05597 37.9111 3.05527 39.3027 1.05286C39.4122 0.891848 39.5265 0.834373 39.7224 0.838148C40.216 0.847069 40.7099 0.845611 41.2117 0.844152C41.403 0.843552 41.5962 0.842951 41.7901 0.842951V11.1398H39.3919V4.88312L39.3372 4.86759C39.312 4.9031 39.2867 4.93862 39.2613 4.97404C39.2266 5.0226 39.1918 5.07115 39.1576 5.11987L35.0786 10.9305C34.9637 11.0948 34.8488 11.1661 34.6408 11.1618C34.1319 11.1513 33.6227 11.1529 33.1013 11.1546C32.9051 11.1553 32.7067 11.1559 32.5064 11.1559V4.86433L32.4423 4.84126C32.3905 4.91297 32.3416 4.9846 32.2923 5.05674L32.2841 5.06883C30.9517 7.02329 29.6199 8.97895 28.2889 10.9358C28.1723 11.1076 28.0514 11.1645 27.8466 11.1618C27.1848 11.154 26.523 11.1551 25.8395 11.1562C25.5934 11.1566 25.3443 11.157 25.0915 11.157C25.1175 11.1193 25.1406 11.0855 25.1618 11.0545C25.2048 10.9915 25.2404 10.9392 25.2771 10.8886C27.6254 7.60893 29.9749 4.32879 32.3257 1.04806C32.4395 0.886959 32.5567 0.833344 32.7493 0.838663C33.2605 0.846812 33.7712 0.84544 34.2961 0.844067C34.4993 0.843552 34.7056 0.842951 34.9139 0.842951ZM83.4699 0.842951H78.0558V11.1382H80.4716V7.83831C80.6686 7.83831 80.8629 7.83891 81.0554 7.83951C81.544 7.84105 82.0204 7.84251 82.4962 7.83402C82.5803 7.82613 82.6652 7.84165 82.7398 7.8788C82.8153 7.91594 82.878 7.97316 82.9217 8.04393C83.2983 8.57132 83.6792 9.09562 84.06 9.61992L84.0609 9.62078L84.0618 9.62163L84.0626 9.62283V9.62369C84.3877 10.0704 84.712 10.5172 85.0337 10.9659C85.1332 11.1044 85.2344 11.1667 85.4128 11.1613C85.7268 11.1513 86.0399 11.1531 86.3538 11.155C86.4782 11.1558 86.6018 11.1564 86.7261 11.1564H88.0592L85.2618 7.51405C85.3133 7.48635 85.3605 7.4613 85.406 7.43779C85.4977 7.38933 85.5792 7.34704 85.6564 7.29934C85.7808 7.22591 85.9001 7.14356 86.0124 7.05297C87.1233 6.12481 87.445 4.92927 87.2168 3.56362C87.0315 2.4572 86.4165 1.65299 85.3613 1.1908C84.7609 0.928305 84.1227 0.842951 83.4699 0.842951ZM81.4131 5.58147C81.1014 5.57941 80.7881 5.57727 80.4727 5.57727V3.13573C80.4772 3.1323 80.4814 3.12879 80.4853 3.12518L80.4931 3.11798C80.5045 3.10734 80.5138 3.09868 80.5231 3.09868C80.8182 3.09842 81.1134 3.09525 81.4087 3.09207C82.1153 3.08452 82.8222 3.07697 83.5265 3.10837C84.5061 3.15504 85.0148 3.8889 84.7411 4.76551C84.5739 5.29864 84.1527 5.5493 83.6328 5.56706C82.8968 5.59168 82.1595 5.58662 81.4131 5.58147ZM51.6768 0.843467V11.136H49.2544V9.38325C49.2195 9.38016 49.1875 9.37655 49.1572 9.37312C49.0991 9.36652 49.0477 9.36068 48.9966 9.36068C48.7881 9.36068 48.5794 9.36086 48.3708 9.36103C47.6408 9.36163 46.9108 9.36214 46.1807 9.35588C46.1052 9.34996 46.0296 9.36514 45.9625 9.39971C45.8955 9.43437 45.8398 9.48687 45.802 9.55129C45.4655 10.0377 45.1185 10.5175 44.7654 10.9922C44.7107 11.0662 44.6012 11.1484 44.5159 11.1494C43.8539 11.1582 43.192 11.1576 42.5075 11.1568C42.3165 11.1566 42.1237 11.1564 41.9288 11.1564C41.9433 11.1317 41.9565 11.1088 41.9688 11.0874C42.0028 11.0283 42.0305 10.9802 42.0618 10.9385C44.4174 7.63157 46.7744 4.3257 49.1329 1.02061C49.1876 0.943831 49.2921 0.85256 49.3748 0.851016C49.9571 0.841065 50.5401 0.841923 51.1387 0.842866C51.3165 0.843209 51.4958 0.843467 51.6768 0.843467ZM49.2314 7.26494V4.38867L47.2611 7.26494H49.2314ZM14.2808 7.13026H17.3916V4.87934H14.2835V3.08367H17.7129V0.861738H11.8568V11.1403H17.7676V8.90175H14.2808V7.13026ZM69.9177 0.851016H75.7574V3.07998H72.3368V4.88372H75.4564V7.12546H72.333V8.90235H75.8264V11.1388H69.9156L69.9177 0.851016ZM59.6724 3.09276V0.878895C59.3083 0.878895 58.9451 0.873919 58.5827 0.868858C57.7565 0.857363 56.9344 0.845954 56.115 0.894507C55.0379 0.958414 54.2054 1.50648 53.8108 2.51836C53.3977 3.58343 53.4277 4.64962 54.189 5.57075C54.4879 5.93275 54.9088 6.21137 55.3118 6.47823L55.3383 6.49573C55.659 6.70804 55.9911 6.9032 56.3234 7.09852C56.6069 7.2652 56.8908 7.43196 57.1679 7.60961C57.3163 7.70089 57.4282 7.83908 57.4853 8.00147C57.5424 8.16377 57.541 8.34039 57.4816 8.50183C57.3912 8.77239 57.145 8.91033 56.7285 8.91033H54.0215H53.7397V11.1387C53.7614 11.1408 53.7809 11.1433 53.7991 11.1456C53.8318 11.1497 53.86 11.1532 53.8885 11.1532C54.2073 11.1529 54.5262 11.155 54.845 11.1571C55.556 11.1619 56.2671 11.1667 56.9775 11.1441C59.4715 11.0647 60.4282 8.74451 59.7052 6.89891C59.4753 6.31319 58.9992 5.94493 58.4651 5.63148C57.7628 5.21973 57.0617 4.8042 56.3755 4.36774C56.0312 4.14874 55.9217 3.80569 56.0279 3.48633C56.1171 3.22486 56.3629 3.09276 56.7941 3.09276H59.3665H59.6724ZM19.1729 3.09276V0.864999H26.6676V3.08101H24.1473V11.1334H21.7288V3.09276H19.1729ZM63.4978 11.1452H65.9191L65.9218 3.08152H68.4323V0.859593H60.9638V3.09765H63.4978V11.1452Z" fill="#475467"/>
</svg>
