<svg width="60" height="14" viewBox="0 0 60 14" fill="none" xmlns="http://www.w3.org/2000/svg">
<path fill-rule="evenodd" clip-rule="evenodd" d="M50.2214 0.740234V2.67987H48.9339V5.32473H50.2214V7.26436H57.2604V11.9371H51.509V9.99742H48.9339V11.32H50.2214V13.2595H58.548V11.2318H59.8357V8.05778H58.548V6.03002H52.7109V2.0627H57.2604V4.00226H59.7498V2.67987H58.548V0.740234H50.2214ZM43.7832 0.740234V9.38025H42.4957V2.768H41.2081V0.740234H35.4567V13.2595H39.2338V5.32473H41.2081V11.2318H42.4957V13.2595H46.2728V0.740234H43.7832ZM22.5807 0.740234V2.0627H21.293V11.9371H22.5807V13.2595H31.5081V11.9371H32.7957V2.0627H31.5081V0.740234H22.5807ZM25.1558 11.9371H30.3062V2.0627H25.1558V11.9371ZM5.24059 0.740234V2.0627H7.21496V3.38524H8.50254V11.9371H5.92723V13.2595H17.43V11.9371H18.7176V7.35264H17.43V6.03002H18.7176V2.0627H17.43V0.740234H5.24059ZM12.2795 6.03002H16.1423V2.0627H12.2795V6.03002ZM12.2795 11.9371H16.1423V7.35264H12.2795V11.9371ZM2.06441 4.00226H3.35207V2.67995H2.06441V4.00226ZM3.95324 6.64735H5.84168V5.32488H3.95324V6.64735ZM0.17627 7.26436H1.46385V5.94197H0.17627V7.26436ZM5.92723 9.29213H7.81583V7.96966H5.92723V9.29213ZM2.15087 11.2318H4.64026V9.9093H2.15087V11.2318Z" fill="#475467"/>
</svg>
