<svg width="93" height="96" viewBox="0 0 93 96" fill="none" xmlns="http://www.w3.org/2000/svg">
<path d="M28.8963 85.6705C28.9836 85.4696 29.1158 85.3026 29.2931 85.1695C29.4663 85.0346 29.6755 84.9488 29.9207 84.912C30.1619 84.8735 30.4183 84.8989 30.6899 84.9882L30.9019 84.5001L31.2936 84.6702L31.0816 85.1584C31.4435 85.3586 31.6974 85.6097 31.8432 85.9118C31.9889 86.2139 31.9903 86.5297 31.8472 86.8591L31.1119 86.5398C31.1679 86.3779 31.1744 86.2255 31.1314 86.0826C31.0867 85.9438 30.988 85.8245 30.8355 85.7249L30.2596 87.0507C30.4991 87.2359 30.6884 87.3993 30.8275 87.5409C30.9648 87.6865 31.0606 87.8618 31.1148 88.0669C31.165 88.2702 31.1325 88.5044 31.0173 88.7695C30.8725 89.103 30.6364 89.3276 30.3092 89.4433C29.9802 89.5631 29.619 89.559 29.2256 89.4311L29.0136 89.9193L28.6219 89.7491L28.8339 89.261C28.4943 89.0753 28.2599 88.8397 28.1308 88.5544C27.9958 88.2713 27.9867 87.957 28.1035 87.6113L28.8387 87.9306C28.7966 88.0604 28.7969 88.1919 28.8394 88.3249C28.8801 88.462 28.9629 88.5792 29.0878 88.6764L29.6533 87.3747C29.412 87.1935 29.2227 87.0301 29.0854 86.8845C28.9463 86.7429 28.8517 86.5704 28.8015 86.3672C28.7495 86.1679 28.7811 85.9357 28.8963 85.6705ZM30.3026 88.502C30.3741 88.3373 30.3818 88.1878 30.3255 88.0535C30.2652 87.9175 30.1568 87.7821 30.0005 87.6473L29.4717 88.8646C29.6532 88.9196 29.8188 88.9175 29.9687 88.8584C30.1145 88.7976 30.2258 88.6788 30.3026 88.502ZM30.4438 85.5547C30.2548 85.5061 30.0857 85.5162 29.9364 85.585C29.7853 85.6579 29.6749 85.7747 29.6051 85.9354C29.5353 86.0961 29.5314 86.2425 29.5934 86.3745C29.6497 86.5088 29.756 86.6433 29.9124 86.7781L30.4438 85.5547Z" fill="white"/>
<path d="M20.2998 80.9269C20.0528 81.2056 19.7807 81.4004 19.4833 81.5114C19.1797 81.6228 18.8771 81.6473 18.5754 81.5848C18.2738 81.5223 17.9935 81.3763 17.7345 81.1468C17.4067 80.8563 17.2059 80.5379 17.1323 80.1917C17.0525 79.8459 17.1027 79.4953 17.283 79.14L17.8878 79.676C17.8179 79.854 17.8036 80.0286 17.8449 80.1999C17.8863 80.3712 17.9889 80.5295 18.1528 80.6747C18.3823 80.8781 18.6385 80.9588 18.9215 80.9169C19.1982 80.8754 19.4659 80.7088 19.7245 80.417C19.983 80.1253 20.1177 79.8379 20.1286 79.5549C20.1362 79.2689 20.0252 79.0243 19.7958 78.8209C19.4712 78.5333 19.1301 78.4856 18.7725 78.6778L18.1676 78.1418C18.4904 77.9362 18.8325 77.8473 19.1942 77.8751C19.5529 77.9062 19.8929 78.0641 20.2141 78.3489C20.4731 78.5784 20.6517 78.8391 20.75 79.1311C20.8454 79.4263 20.8575 79.7297 20.7863 80.0412C20.7089 80.353 20.5467 80.6483 20.2998 80.9269Z" fill="white"/>
<path d="M14.8497 75.6614C14.561 75.8824 14.2601 76.019 13.947 76.0711C13.6312 76.1198 13.3339 76.0881 13.0551 75.9761C12.7701 75.8632 12.5318 75.6816 12.3401 75.4311C12.167 75.205 12.0618 74.9739 12.0244 74.7377C11.9809 74.5007 11.9867 74.2812 12.0416 74.0792L11.6242 74.3987L11.165 73.7987L14.0397 71.5981L14.499 72.1981L14.0712 72.5256C14.2841 72.5227 14.5023 72.5735 14.7258 72.6782C14.9494 72.7829 15.1464 72.9465 15.3168 73.1691C15.5058 73.4161 15.6162 73.6901 15.6481 73.9912C15.6765 74.2949 15.6242 74.5942 15.4913 74.889C15.3523 75.183 15.1384 75.4404 14.8497 75.6614ZM13.059 73.3004C12.8608 73.4522 12.7205 73.6257 12.6383 73.821C12.5535 74.0128 12.5234 74.2041 12.5481 74.3949C12.5727 74.5856 12.6436 74.7575 12.7608 74.9105C12.8779 75.0636 13.0253 75.1769 13.203 75.2505C13.3772 75.3268 13.5693 75.3507 13.7793 75.3224C13.9832 75.2932 14.1842 75.2028 14.3825 75.051C14.5807 74.8992 14.724 74.7261 14.8124 74.5316C14.898 74.3337 14.9303 74.138 14.9091 73.9446C14.8818 73.7503 14.8109 73.5784 14.6964 73.4289C14.5792 73.2758 14.4318 73.1625 14.2541 73.0889C14.0764 73.0153 13.8839 72.9944 13.6766 73.0262C13.4631 73.0573 13.2573 73.1486 13.059 73.3004Z" fill="white"/>
<path d="M11.1916 66.6894C11.3202 66.9434 11.391 67.1948 11.404 67.4435C11.4111 67.6903 11.3662 67.9119 11.2693 68.1082C11.1684 68.3066 11.0223 68.4592 10.8308 68.5659L10.4806 67.8742C10.6114 67.7932 10.6941 67.6704 10.7285 67.5057C10.757 67.339 10.7258 67.1658 10.6348 66.986C10.5398 66.7985 10.4314 66.6717 10.3096 66.6057C10.1819 66.5378 10.0614 66.5325 9.9481 66.5899C9.82696 66.6512 9.76676 66.7554 9.7675 66.9023C9.76626 67.0453 9.79379 67.2596 9.85009 67.5454C9.90634 67.8213 9.94178 68.0513 9.95643 68.2354C9.97107 68.4194 9.94261 68.6008 9.87103 68.7794C9.79747 68.9541 9.65518 69.0949 9.44416 69.2018C9.27221 69.2888 9.09017 69.3172 8.89804 69.2868C8.702 69.2584 8.51546 69.1712 8.33842 69.0252C8.15939 68.8752 8.00755 68.6772 7.88289 68.431C7.69689 68.0636 7.64129 67.7211 7.71608 67.4034C7.78498 67.0837 7.9757 66.8349 8.28823 66.6571L8.62659 67.3253C8.48794 67.4102 8.40234 67.5272 8.36979 67.6763C8.33724 67.8253 8.36648 67.9897 8.4575 68.1695C8.54654 68.3453 8.64802 68.4633 8.76195 68.5235C8.87587 68.5836 8.98754 68.586 9.09696 68.5306C9.18294 68.4871 9.2394 68.4192 9.26636 68.327C9.29332 68.2348 9.30163 68.1349 9.29129 68.0272C9.27704 67.9215 9.2508 67.7678 9.21256 67.5662C9.15636 67.3001 9.12388 67.076 9.11513 66.8938C9.10048 66.7098 9.12798 66.5314 9.19763 66.3586C9.26728 66.1859 9.40467 66.0451 9.60981 65.9363C9.79348 65.8433 9.98334 65.811 10.1794 65.8394C10.3754 65.8678 10.562 65.955 10.739 66.101C10.9141 66.2432 11.0649 66.4393 11.1916 66.6894Z" fill="white"/>
<path d="M8.71242 60.562C8.79642 60.8341 8.82389 61.0938 8.79482 61.3412C8.76028 61.5856 8.67869 61.7965 8.55004 61.9737C8.41721 62.1523 8.24746 62.278 8.04077 62.351L7.81204 61.6102C7.95465 61.5524 8.0568 61.4453 8.11847 61.2887C8.17468 61.1292 8.17305 60.9532 8.11361 60.7607C8.05158 60.5598 7.9661 60.4166 7.85716 60.331C7.74275 60.2426 7.62486 60.2171 7.50348 60.2546C7.37374 60.2946 7.29686 60.3871 7.27285 60.5321C7.24754 60.6728 7.23858 60.8888 7.24595 61.1799C7.25492 61.4613 7.25112 61.694 7.23455 61.8779C7.21799 62.0618 7.15938 62.2358 7.05875 62.3998C6.95681 62.5596 6.79284 62.6745 6.56684 62.7442C6.38268 62.8011 6.19847 62.7984 6.0142 62.7361C5.82574 62.6751 5.65655 62.5577 5.50663 62.3839C5.35542 62.206 5.2391 61.9852 5.15769 61.7215C5.03622 61.3281 5.0391 60.9811 5.16633 60.6805C5.28809 60.377 5.51798 60.1639 5.85601 60.0412L6.07699 60.7569C5.92601 60.8173 5.82193 60.9182 5.76474 61.0596C5.70756 61.201 5.70869 61.368 5.76813 61.5605C5.82628 61.7489 5.90644 61.8823 6.00861 61.9608C6.11077 62.0392 6.22045 62.0604 6.33764 62.0242C6.42972 61.9958 6.49681 61.9384 6.53891 61.852C6.58101 61.7657 6.60604 61.6686 6.61398 61.5607C6.61774 61.4541 6.61775 61.2982 6.61401 61.0931C6.60344 60.8213 6.60917 60.5949 6.63122 60.4139C6.64778 60.2299 6.70494 60.0587 6.80269 59.9002C6.90043 59.7416 7.05957 59.626 7.2801 59.5534C7.47681 59.4926 7.66939 59.4928 7.85785 59.5538C8.04631 59.6148 8.2155 59.7321 8.36542 59.9059C8.51405 60.0755 8.62971 60.2942 8.71242 60.562Z" fill="white"/>
<path d="M3.32333 55.6573C3.34407 55.7915 3.31601 55.9111 3.23915 56.0161C3.16229 56.121 3.05676 56.1839 2.92257 56.2046C2.78837 56.2253 2.66879 56.1973 2.56384 56.1204C2.45888 56.0436 2.39604 55.938 2.3753 55.8038C2.35523 55.674 2.38362 55.5566 2.46048 55.4516C2.53734 55.3467 2.64287 55.2838 2.77706 55.2631C2.91126 55.2423 3.03083 55.2704 3.13579 55.3473C3.24075 55.4241 3.30326 55.5275 3.32333 55.6573ZM3.74115 55.2205L7.31899 54.6676L7.43338 55.4078L3.85554 55.9607L3.74115 55.2205Z" fill="white"/>
<path d="M3.2314 48.7676C3.23374 48.4829 3.29496 48.2293 3.41506 48.0069C3.53519 47.7801 3.71186 47.6041 3.94505 47.479C4.17824 47.3539 4.45909 47.2927 4.7876 47.2954L6.92292 47.3129L6.91682 48.0553L4.8932 48.0387C4.56907 48.0361 4.32092 48.1151 4.14876 48.2757C3.97223 48.4364 3.88281 48.6568 3.88051 48.9372C3.8782 49.2175 3.96397 49.4416 4.13781 49.6095C4.3073 49.7729 4.55412 49.856 4.87825 49.8587L6.90187 49.8753L6.89572 50.6243L3.27553 50.5946L3.28168 49.8456L3.69561 49.849C3.54769 49.7251 3.43289 49.5686 3.35122 49.3796C3.26958 49.1862 3.22964 48.9822 3.2314 48.7676Z" fill="white"/>
<path d="M7.74104 41.2827C7.67298 41.6175 7.53636 41.9049 7.33115 42.1448C7.12166 42.3838 6.86384 42.5526 6.55771 42.6513C6.24729 42.7492 5.90965 42.761 5.54478 42.6868C5.18421 42.6135 4.88056 42.4691 4.63383 42.2536C4.38709 42.0381 4.21653 41.7777 4.12213 41.4724C4.02773 41.1672 4.01499 40.845 4.08391 40.5059C4.15284 40.1667 4.29034 39.8751 4.49642 39.6309C4.70249 39.3867 4.96118 39.2136 5.27247 39.1115C5.58377 39.0094 5.9197 38.9949 6.28027 39.0682C6.64084 39.1415 6.94406 39.2881 7.18992 39.5079C7.43578 39.7277 7.60718 39.995 7.70413 40.3097C7.79766 40.6193 7.80996 40.9436 7.74104 41.2827ZM7.1036 41.1531C7.14199 40.9643 7.13269 40.7791 7.0757 40.5977C7.01958 40.4119 6.91185 40.2493 6.7525 40.1096C6.59316 39.9699 6.38471 39.8739 6.12715 39.8216C5.8696 39.7692 5.6428 39.7745 5.44674 39.8375C5.24639 39.8996 5.08456 40.003 4.96126 40.1478C4.83797 40.2926 4.75712 40.4594 4.71874 40.6483C4.68035 40.8372 4.68965 41.0223 4.74664 41.2038C4.8045 41.3809 4.91397 41.535 5.07507 41.6661C5.23187 41.7963 5.43904 41.8876 5.69659 41.9399C6.07863 42.0176 6.39444 41.9812 6.64403 41.8308C6.89021 41.6752 7.0434 41.4493 7.1036 41.1531Z" fill="white"/>
<path d="M11.4432 28.052C11.6337 28.16 11.7858 28.3092 11.8994 28.4996C12.0152 28.6861 12.0784 28.9032 12.0889 29.1509C12.1017 29.3948 12.0493 29.6471 11.9317 29.9077L12.3946 30.1703L12.1839 30.5417L11.721 30.2792C11.4836 30.6179 11.2069 30.8437 10.8911 30.9567C10.5752 31.0696 10.2611 31.0375 9.94867 30.8603L10.3441 30.163C10.4992 30.2359 10.65 30.2585 10.7966 30.2309C10.9394 30.2011 11.0685 30.1156 11.1837 29.9745L9.92638 29.2614C9.71683 29.48 9.53428 29.6509 9.37875 29.7742C9.21941 29.8953 9.03494 29.972 8.82532 30.0042C8.61787 30.0325 8.38841 29.9754 8.13694 29.8328C7.82069 29.6534 7.62236 29.3949 7.54194 29.0573C7.45771 28.7174 7.50002 28.3587 7.66885 27.9811L7.20591 27.7185L7.4166 27.347L7.87954 27.6096C8.10018 27.2916 8.35921 27.0835 8.65662 26.9853C8.95239 26.8811 9.26596 26.9053 9.59733 27.058L9.20189 27.7553C9.07729 27.6997 8.94658 27.686 8.80975 27.7142C8.66912 27.7401 8.54384 27.8101 8.43392 27.924L9.66842 28.6241C9.87416 28.4034 10.0567 28.2325 10.216 28.1114C10.3716 27.9881 10.5531 27.9122 10.7605 27.8839C10.9642 27.8533 11.1917 27.9094 11.4432 28.052ZM8.47864 29.1504C8.63486 29.239 8.78271 29.2624 8.92221 29.2207C9.06387 29.1751 9.20999 29.0817 9.36057 28.9405L8.20609 28.2858C8.13222 28.4604 8.11672 28.6254 8.15961 28.7806C8.20465 28.932 8.31099 29.0553 8.47864 29.1504ZM11.3944 29.603C11.4628 29.4202 11.4707 29.251 11.418 29.0952C11.3616 28.9373 11.2571 28.8151 11.1047 28.7287C10.9523 28.6423 10.8072 28.6229 10.6693 28.6706C10.5298 28.7123 10.3848 28.8038 10.2342 28.945L11.3944 29.603Z" fill="white"/>
<path d="M17.3677 17.2115C17.5795 17.0213 17.808 16.8955 18.0532 16.8342C18.3017 16.77 18.5508 16.7818 18.8004 16.8697C19.05 16.9575 19.2846 17.1236 19.5042 17.368L20.9311 18.9567L20.3787 19.4528L19.0264 17.9472C18.8098 17.7061 18.5842 17.5761 18.3494 17.5573C18.1118 17.5353 17.8887 17.6179 17.6801 17.8052C17.4716 17.9926 17.3639 18.207 17.3571 18.4486C17.3507 18.684 17.4558 18.9223 17.6724 19.1634L19.0247 20.669L18.4674 21.1695L16.0483 18.4761L16.6055 17.9756L16.8821 18.2835C16.8738 18.0908 16.912 17.9005 16.9965 17.7127C17.0843 17.522 17.208 17.355 17.3677 17.2115Z" fill="white"/>
<path d="M26.4293 12.9174C26.499 13.034 26.5545 13.1437 26.5957 13.2466L24.2225 14.6676C24.3898 14.9044 24.6011 15.0485 24.8565 15.0998C25.1119 15.1511 25.3598 15.1048 25.6003 14.9607C25.9461 14.7537 26.1037 14.4628 26.0733 14.0879L26.7666 13.6727C26.8437 14.0146 26.8133 14.3519 26.6756 14.6845C26.5393 15.0112 26.2889 15.2836 25.9243 15.5019C25.6275 15.6797 25.3212 15.7737 25.0057 15.7839C24.6917 15.7881 24.3951 15.7105 24.1158 15.551C23.838 15.3854 23.6034 15.143 23.4122 14.8235C23.2209 14.5041 23.1171 14.1859 23.1009 13.8688C23.0862 13.5458 23.1559 13.2487 23.3102 12.9777C23.4682 12.7044 23.6994 12.4766 24.0038 12.2944C24.2969 12.1188 24.5964 12.0263 24.9021 12.0169C25.2079 12.0074 25.4944 12.0809 25.7617 12.2374C26.0267 12.3901 26.2493 12.6168 26.4293 12.9174ZM25.6369 13.1162C25.4914 12.8817 25.2932 12.7425 25.0424 12.6987C24.7915 12.6549 24.5439 12.7061 24.2996 12.8524C24.0779 12.9852 23.9309 13.1702 23.8585 13.4075C23.784 13.6411 23.8036 13.8871 23.9176 14.1456L25.6369 13.1162Z" fill="white"/>
<path d="M31.7433 10.6047L33.487 11.9038L32.6945 12.2045L31.5277 11.333L31.2754 12.7428L30.5444 13.0201L31.0063 10.9405L29.2603 9.63519L30.0528 9.33456L31.2196 10.206L31.4719 8.79622L32.2029 8.5189L31.7433 10.6047Z" fill="white"/>
<path d="M39.8262 6.66891L40.4671 10.232L39.7299 10.3646L39.6543 9.94431C39.5642 10.1118 39.4321 10.2558 39.2579 10.3761C39.0873 10.4913 38.8963 10.568 38.6851 10.606C38.4049 10.6564 38.1422 10.6435 37.8971 10.5675C37.6563 10.4906 37.4507 10.3496 37.2802 10.1443C37.1141 9.93834 37.002 9.67367 36.9438 9.35034L36.567 7.25514L37.2977 7.12371L37.6548 9.10897C37.7122 9.42799 37.8361 9.65938 38.0266 9.80313C38.2164 9.94258 38.4492 9.98748 38.7251 9.93785C39.0011 9.88823 39.2036 9.765 39.3329 9.56818C39.4657 9.36627 39.5034 9.1058 39.446 8.78678L39.089 6.80151L39.8262 6.66891Z" fill="white"/>
<path d="M46.3228 9.9123C46.0381 9.91041 45.7822 9.85833 45.5551 9.75607C45.3324 9.64946 45.1559 9.50812 45.0257 9.33204C44.8955 9.15157 44.8267 8.95181 44.8194 8.73274L45.5947 8.7379C45.6068 8.89129 45.6783 9.02099 45.809 9.12698C45.9441 9.22863 46.1124 9.28012 46.3139 9.28146C46.5241 9.28286 46.6865 9.24452 46.8009 9.16643C46.9197 9.08399 46.9795 8.97926 46.9804 8.85224C46.9813 8.71645 46.9162 8.61527 46.7853 8.54869C46.6587 8.48215 46.4555 8.40852 46.1757 8.32781C45.9046 8.25154 45.6839 8.1778 45.5135 8.10658C45.3431 8.03536 45.1949 7.92706 45.0689 7.78167C44.9472 7.6363 44.8871 7.44536 44.8887 7.20883C44.89 7.0161 44.9481 6.84127 45.063 6.68434C45.178 6.52303 45.3409 6.39708 45.5518 6.3065C45.767 6.21594 46.0126 6.17158 46.2885 6.17341C46.7003 6.17615 47.0303 6.28347 47.2786 6.49538C47.5312 6.70294 47.6652 6.98637 47.6803 7.34566L46.9313 7.34068C46.9192 7.17852 46.8544 7.04887 46.7367 6.95172C46.6191 6.85457 46.4596 6.80533 46.2581 6.80399C46.061 6.80267 45.9096 6.8389 45.804 6.91267C45.6984 6.98643 45.6451 7.08464 45.6443 7.20728C45.6437 7.30364 45.6782 7.38491 45.7478 7.45108C45.8175 7.51725 45.9025 7.57038 46.003 7.61047C46.1035 7.64618 46.2522 7.69316 46.4489 7.75142C46.7112 7.82325 46.9254 7.89695 47.0913 7.97252C47.2617 8.04374 47.4077 8.14984 47.5294 8.29082C47.6512 8.4318 47.7134 8.61838 47.7163 8.85056C47.7149 9.05643 47.6567 9.24002 47.5418 9.40133C47.4268 9.56264 47.2639 9.68859 47.053 9.77917C46.8466 9.86979 46.6032 9.91416 46.3228 9.9123Z" fill="white"/>
<path d="M59.6785 10.8897C59.6108 11.098 59.4951 11.2768 59.3314 11.4263C59.1718 11.577 58.9717 11.6824 58.7311 11.7424C58.4947 11.8037 58.2371 11.8028 57.9582 11.7398L57.7936 12.2459L57.3875 12.1139L57.552 11.6077C57.1726 11.4429 56.896 11.2171 56.7221 10.9303C56.5482 10.6435 56.5168 10.3293 56.6279 9.98767L57.3902 10.2355C57.3498 10.402 57.3579 10.5544 57.4143 10.6925C57.4721 10.8264 57.5817 10.9357 57.743 11.0204L58.1899 9.64572C57.9338 9.48417 57.7298 9.33954 57.5779 9.21184C57.4273 9.07998 57.3153 8.91458 57.2418 8.71566C57.1724 8.51809 57.1825 8.28183 57.2718 8.0069C57.3843 7.66115 57.5978 7.41508 57.9126 7.26869C58.2287 7.11813 58.5886 7.08776 58.9924 7.17757L59.1569 6.67144L59.5631 6.80349L59.3985 7.30962C59.7543 7.46213 60.01 7.67425 60.1658 7.94598C60.3271 8.2149 60.3661 8.52697 60.2828 8.8822L59.5205 8.63436C59.55 8.50116 59.5373 8.37035 59.4823 8.24194C59.4287 8.10935 59.3351 8.00062 59.2015 7.91572L58.7626 9.2654C59.0201 9.42279 59.2241 9.56741 59.3747 9.69928C59.5266 9.82698 59.6372 9.98961 59.7066 10.1872C59.7773 10.3806 59.7679 10.6148 59.6785 10.8897ZM58.0089 8.20506C57.9533 8.37586 57.96 8.52541 58.0288 8.65372C58.1018 8.78339 58.2225 8.90786 58.391 9.02712L58.8014 7.76493C58.6155 7.72752 58.4508 7.74536 58.3073 7.81846C58.1679 7.89291 58.0684 8.02178 58.0089 8.20506ZM58.1491 11.1524C58.3419 11.1829 58.5093 11.1567 58.6514 11.0739C58.7948 10.987 58.8936 10.8602 58.9478 10.6936C59.0019 10.5269 58.9919 10.3809 58.9175 10.2554C58.8487 10.127 58.73 10.0033 58.5615 9.884L58.1491 11.1524Z" fill="white"/>
<path d="M70.4355 13.2639C70.3234 13.1873 70.2552 13.0851 70.2311 12.9573C70.207 12.8295 70.2332 12.7095 70.3098 12.5973C70.3863 12.4852 70.4885 12.417 70.6164 12.3929C70.7442 12.3688 70.8642 12.395 70.9763 12.4716C71.0849 12.5457 71.1512 12.6466 71.1753 12.7745C71.1994 12.9023 71.1732 13.0223 71.0966 13.1344C71.0201 13.2466 70.9179 13.3147 70.7901 13.3388C70.6622 13.3629 70.544 13.338 70.4355 13.2639ZM70.469 13.8675L68.4279 16.8576L67.8093 16.4353L69.8504 13.4452L70.469 13.8675Z" fill="white"/>
<path d="M75.5286 17.9043C75.7349 18.1006 75.8782 18.3185 75.9585 18.5582C76.042 18.8009 76.0498 19.0501 75.9818 19.3059C75.9138 19.5616 75.7666 19.8085 75.5401 20.0465L74.0682 21.5936L73.5303 21.0818L74.9252 19.6157C75.1487 19.3808 75.2605 19.1457 75.2609 18.9102C75.2642 18.6715 75.1643 18.4556 74.9612 18.2624C74.7581 18.0691 74.5359 17.9786 74.2945 17.9908C74.0594 18.0029 73.8301 18.1263 73.6066 18.3612L72.2118 19.8273L71.6691 19.311L74.1645 16.6881L74.7072 17.2044L74.4218 17.5043C74.6134 17.481 74.806 17.504 74.9998 17.5736C75.1968 17.6461 75.3731 17.7564 75.5286 17.9043Z" fill="white"/>
<path d="M77.9116 26.3116C77.7136 26.0332 77.5972 25.7371 77.5623 25.4233C77.5309 25.107 77.5838 24.8034 77.7209 24.5125C77.8616 24.219 78.0837 23.9644 78.3871 23.7486C78.687 23.5354 78.9999 23.4124 79.3259 23.3795C79.6519 23.3467 79.9585 23.4001 80.2459 23.5397C80.5333 23.6794 80.7772 23.8902 80.9777 24.1723C81.1782 24.4543 81.2972 24.754 81.3347 25.0713C81.3722 25.3886 81.3218 25.6958 81.1837 25.9929C81.0455 26.2899 80.8265 26.5451 80.5266 26.7582C80.2267 26.9714 79.9125 27.0927 79.584 27.122C79.2555 27.1513 78.9433 27.0938 78.6472 26.9495C78.3573 26.8063 78.1121 26.5937 77.9116 26.3116ZM78.4418 25.9348C78.5534 26.0918 78.695 26.2116 78.8664 26.2939C79.0403 26.3799 79.2328 26.4124 79.4436 26.3915C79.6545 26.3706 79.867 26.284 80.0812 26.1317C80.2954 25.9794 80.4465 25.8102 80.5345 25.624C80.6261 25.4353 80.6611 25.2465 80.6397 25.0575C80.6182 24.8686 80.5516 24.6955 80.44 24.5385C80.3283 24.3814 80.1867 24.2616 80.0153 24.1793C79.8465 24.1005 79.6591 24.0751 79.4534 24.1032C79.2511 24.1287 79.0429 24.2176 78.8287 24.3698C78.511 24.5957 78.3217 24.8512 78.261 25.1362C78.2064 25.4222 78.2666 25.6884 78.4418 25.9348Z" fill="white"/>
<path d="M82.1284 32.0806L85.2363 31.7719L85.5701 32.4934L81.7051 32.7615L81.3298 31.9506L84.0388 29.184L84.3754 29.9115L82.1284 32.0806Z" fill="white"/>
<path d="M85.3569 37.1123C85.71 37.0255 86.0404 37.021 86.3482 37.0986C86.657 37.1806 86.9167 37.3288 87.1273 37.5431C87.3432 37.7607 87.4887 38.0226 87.564 38.3289C87.632 38.6053 87.6358 38.8593 87.5754 39.0906C87.5203 39.3252 87.4271 39.524 87.2958 39.6871L87.8062 39.5616L87.9866 40.2954L84.471 41.1597L84.2906 40.426L84.8138 40.2973C84.6176 40.2148 84.438 40.0807 84.2752 39.8952C84.1123 39.7098 83.9974 39.4809 83.9304 39.2087C83.8562 38.9067 83.8648 38.6113 83.9562 38.3227C84.0519 38.0331 84.2197 37.7798 84.4596 37.563C84.7047 37.3493 85.0039 37.1991 85.3569 37.1123ZM86.0516 39.993C86.2941 39.9334 86.4921 39.8306 86.6456 39.6846C86.8002 39.5428 86.9044 39.3796 86.9583 39.195C87.0121 39.0103 87.016 38.8244 86.97 38.6373C86.924 38.4501 86.8343 38.2872 86.701 38.1486C86.572 38.0089 86.4056 37.91 86.2018 37.8518C86.0034 37.7969 85.7829 37.7992 85.5404 37.8588C85.298 37.9184 85.0973 38.0196 84.9385 38.1624C84.7807 38.3095 84.6727 38.4759 84.6146 38.6615C84.5618 38.8504 84.5579 39.0363 84.6029 39.2193C84.6489 39.4064 84.7386 39.5693 84.8719 39.7079C85.0052 39.8466 85.1732 39.9428 85.3759 39.9968C85.5839 40.0539 85.8092 40.0526 86.0516 39.993Z" fill="white"/>
<path d="M85.7555 46.9755C85.7766 47.4087 85.9809 47.6859 86.3684 47.8074L86.4078 48.6146C86.0706 48.5345 85.7887 48.3751 85.5621 48.1362C85.3402 47.9014 85.2026 47.5989 85.1495 47.2288L84.8804 47.2419C84.8928 47.4956 84.8438 47.7042 84.7333 47.8674C84.6185 48.0309 84.4517 48.118 84.233 48.1287C84.0142 48.1393 83.8376 48.069 83.703 47.9177C83.5641 47.7666 83.4887 47.5707 83.477 47.3301L83.4347 46.4639L83.9072 46.4408L83.9421 47.1561C83.9481 47.2786 83.9701 47.3696 84.0081 47.4292C84.0461 47.4887 84.111 47.5163 84.2029 47.5118C84.2947 47.5073 84.3567 47.4736 84.3887 47.4106C84.4207 47.3477 84.4337 47.2549 84.4277 47.1324L84.4101 46.7715L85.132 46.7362C85.1525 46.437 85.2381 46.1697 85.3889 45.9343C85.5441 45.6987 85.7498 45.511 86.0061 45.3714C86.267 45.2358 86.5681 45.1597 86.9093 45.1431C87.2812 45.1249 87.6108 45.1834 87.8981 45.3185C88.1899 45.4577 88.4189 45.6571 88.5851 45.9165C88.7512 46.1759 88.8427 46.4784 88.8596 46.824C88.8809 47.2616 88.7936 47.6276 88.5974 47.9222C88.4059 48.221 88.1201 48.4301 87.74 48.5496L87.7006 47.7424C87.8768 47.668 88.0116 47.5561 88.1052 47.4069C88.1988 47.2576 88.2403 47.0735 88.2296 46.8548C88.2146 46.5485 88.0933 46.3089 87.8656 46.1358C87.6424 45.9669 87.3362 45.8919 86.9468 45.9109C86.5574 45.9299 86.2577 46.0344 86.0477 46.2245C85.8379 46.4189 85.7405 46.6693 85.7555 46.9755Z" fill="white"/>
<path d="M86.9533 52.7212C87.3131 52.7732 87.6211 52.893 87.8773 53.0805C88.1328 53.2723 88.3179 53.5071 88.4327 53.7848C88.5512 54.0675 88.5878 54.3649 88.5427 54.677C88.502 54.9588 88.4102 55.1956 88.2674 55.3874C88.1283 55.5842 87.9673 55.7335 87.7844 55.8354L88.3047 55.9106L88.1966 56.6585L84.6135 56.1406L84.7216 55.3927L85.2548 55.4698C85.1039 55.3196 84.9878 55.128 84.9064 54.895C84.825 54.6619 84.8044 54.4067 84.8445 54.1292C84.889 53.8214 85.0077 53.5509 85.2008 53.3177C85.3981 53.0851 85.6487 52.9133 85.9524 52.8023C86.2598 52.6962 86.5935 52.6692 86.9533 52.7212ZM86.5164 55.6521C86.7635 55.6879 86.9856 55.6669 87.1827 55.5891C87.3792 55.5157 87.5371 55.4036 87.6562 55.2526C87.7754 55.1017 87.8488 54.9308 87.8764 54.7401C87.9039 54.5493 87.8819 54.3647 87.8104 54.1861C87.7432 54.0082 87.626 53.8541 87.459 53.7238C87.2956 53.5984 87.0904 53.5178 86.8433 53.4821C86.5962 53.4464 86.3722 53.4649 86.1714 53.5376C85.97 53.6148 85.8075 53.7285 85.684 53.8788C85.5641 54.0341 85.4908 54.2049 85.4638 54.3913C85.4362 54.5821 85.4582 54.7667 85.5298 54.9453C85.6014 55.1238 85.721 55.2761 85.8887 55.4021C86.06 55.5331 86.2693 55.6164 86.5164 55.6521ZM88.9686 53.9353C89.215 54.0063 89.3917 54.116 89.4986 54.2642C89.6099 54.413 89.6514 54.585 89.6232 54.7801C89.6113 54.8625 89.588 54.9321 89.5532 54.9891C89.5184 55.046 89.4687 55.1141 89.4042 55.1932C89.3514 55.252 89.3111 55.3015 89.2831 55.3417C89.2546 55.3863 89.2362 55.4367 89.2281 55.4931C89.2174 55.5668 89.2303 55.6306 89.2668 55.6846C89.3069 55.7435 89.3716 55.786 89.4608 55.8122L89.4006 56.2284C89.1542 56.1573 88.9753 56.0474 88.8641 55.8985C88.7571 55.7503 88.7178 55.5787 88.746 55.3836C88.7579 55.3012 88.7815 55.2294 88.817 55.1681C88.8567 55.1075 88.9082 55.0419 88.9715 54.9714C89.0305 54.9002 89.0718 54.8442 89.0954 54.8034C89.1227 54.7675 89.1401 54.7236 89.1476 54.6715C89.1583 54.5978 89.1435 54.5315 89.1034 54.4726C89.0626 54.418 88.9976 54.3777 88.9084 54.3515L88.9686 53.9353Z" fill="white"/>
<path d="M83.0108 61.8494C83.1234 61.5268 83.2976 61.2605 83.5333 61.0505C83.7731 60.8419 84.0514 60.7094 84.368 60.6529C84.6888 60.5979 85.0249 60.6317 85.3765 60.7544C85.7238 60.8757 86.0052 61.0597 86.2206 61.3066C86.436 61.5534 86.5699 61.8345 86.6223 62.1497C86.6746 62.4649 86.6438 62.7858 86.5297 63.1125C86.4157 63.4392 86.2401 63.7097 86.0029 63.9238C85.7658 64.138 85.4861 64.2746 85.1639 64.3338C84.8417 64.393 84.5069 64.3619 84.1595 64.2407C83.8121 64.1194 83.5314 63.9333 83.3175 63.6823C83.1035 63.4313 82.9697 63.1434 82.9161 62.8184C82.8652 62.4991 82.8968 62.1761 83.0108 61.8494ZM83.625 62.0637C83.5615 62.2457 83.5457 62.4304 83.5777 62.6179C83.6082 62.8095 83.693 62.9852 83.8321 63.1451C83.9711 63.305 84.1647 63.4283 84.4128 63.5149C84.661 63.6015 84.8864 63.6268 85.0892 63.5909C85.2961 63.5564 85.4704 63.4758 85.6121 63.3489C85.7538 63.2221 85.8564 63.0677 85.9199 62.8857C85.9834 62.7038 85.9992 62.5191 85.9672 62.3316C85.9338 62.1483 85.8461 61.9808 85.7042 61.8292C85.5664 61.679 85.3734 61.5606 85.1253 61.474C84.7572 61.3455 84.4394 61.3389 84.1718 61.4543C83.9068 61.5752 83.7246 61.7784 83.625 62.0637Z" fill="white"/>
<path d="M77.558 74.4595C77.3838 74.3267 77.2533 74.1584 77.1664 73.9544C77.0768 73.754 77.0435 73.5303 77.0664 73.2835C77.0867 73.0401 77.1727 72.7972 77.3244 72.5548L76.9011 72.2322L77.16 71.8925L77.5833 72.2151C77.8642 71.9116 78.1688 71.7251 78.497 71.6558C78.8252 71.5865 79.1321 71.6607 79.4178 71.8785L78.9319 72.516C78.788 72.4229 78.6416 72.3801 78.4926 72.3877C78.3471 72.398 78.2077 72.4653 78.0745 72.5895L79.2241 73.4657C79.4613 73.2775 79.6652 73.1327 79.8359 73.0316C80.0102 72.933 80.2033 72.882 80.4153 72.8783C80.6247 72.8782 80.8444 72.9658 81.0743 73.141C81.3635 73.3614 81.5251 73.6443 81.5592 73.9897C81.5968 74.3378 81.5065 74.6876 81.2883 75.0389L81.7116 75.3615L81.4527 75.7012L81.0294 75.3786C80.7679 75.6639 80.4831 75.8352 80.1752 75.8924C79.8681 75.9557 79.5606 75.8894 79.2529 75.6934L79.7388 75.0559C79.8548 75.1277 79.9824 75.1589 80.1218 75.1495C80.2647 75.1427 80.3982 75.0903 80.5225 74.9923L79.3938 74.132C79.1601 74.3229 78.9562 74.4677 78.782 74.5662C78.6112 74.6674 78.4212 74.718 78.2118 74.7182C78.0059 74.7209 77.788 74.6347 77.558 74.4595ZM80.6437 73.7711C80.5008 73.6622 80.3575 73.6191 80.2136 73.6416C80.0671 73.6676 79.9097 73.7404 79.7415 73.86L80.7971 74.6646C80.8938 74.5015 80.9314 74.3401 80.9099 74.1805C80.8857 74.0244 80.7969 73.8879 80.6437 73.7711ZM77.8156 72.9292C77.7232 73.1011 77.6925 73.2677 77.7237 73.4292C77.7583 73.5933 77.8453 73.7284 77.9847 73.8346C78.124 73.9408 78.2652 73.9796 78.4083 73.9509C78.5521 73.9284 78.7082 73.8573 78.8764 73.7377L77.8156 72.9292Z" fill="white"/>
<path d="M69.635 85.3016C69.3958 85.4561 69.1503 85.5442 68.8985 85.566C68.643 85.5902 68.3989 85.5393 68.1662 85.4132C67.9336 85.287 67.7282 85.086 67.5499 84.81L66.3916 83.0161L67.0153 82.6133L68.1131 84.3134C68.2889 84.5857 68.4912 84.7497 68.7201 84.8053C68.9513 84.8645 69.1846 84.8181 69.4201 84.6661C69.6556 84.514 69.7958 84.3192 69.8406 84.0817C69.884 83.8503 69.8179 83.5984 69.642 83.3261L68.5443 81.6261L69.1735 81.2197L71.1374 84.2611L70.5081 84.6674L70.2836 84.3197C70.2613 84.5113 70.1937 84.6932 70.0806 84.8653C69.9638 85.0397 69.8153 85.1852 69.635 85.3016Z" fill="white"/>
<path d="M60.009 88.1122C59.9585 87.9861 59.921 87.869 59.8965 87.7608L62.4643 86.7321C62.3364 86.4719 62.1505 86.2963 61.9064 86.2053C61.6623 86.1144 61.4102 86.121 61.15 86.2253C60.7759 86.3751 60.5743 86.6376 60.5452 87.0126L59.795 87.3131C59.7729 86.9634 59.8561 86.6351 60.0446 86.3284C60.2307 86.0273 60.521 85.7978 60.9154 85.6398C61.2366 85.5111 61.5538 85.4666 61.867 85.5062C62.1777 85.5516 62.4584 85.6751 62.7091 85.8767C62.9573 86.084 63.1506 86.3604 63.2891 86.706C63.4275 87.0517 63.4798 87.3823 63.4458 87.6979C63.4093 88.0192 63.2936 88.3015 63.0985 88.5448C62.8994 88.7898 62.6351 88.9782 62.3058 89.1102C61.9886 89.2372 61.6783 89.2813 61.3749 89.2425C61.0715 89.2036 60.8001 89.0858 60.5609 88.8891C60.3233 88.6964 60.1393 88.4375 60.009 88.1122ZM60.8227 88.041C60.9294 88.2955 61.1032 88.4642 61.344 88.547C61.5848 88.6298 61.8374 88.6183 62.1017 88.5124C62.3416 88.4163 62.516 88.2568 62.6248 88.0339C62.7353 87.815 62.7547 87.5689 62.683 87.2957L60.8227 88.041Z" fill="white"/>
<path d="M54.3963 89.5578L52.8795 87.9998L53.7094 87.828L54.7242 88.8726L55.1957 87.5203L55.9614 87.3618L55.177 89.3425L56.6952 90.9069L55.8653 91.0787L54.8505 90.0341L54.379 91.3864L53.6134 91.5449L54.3963 89.5578Z" fill="white"/>
<path d="M45.7941 92.1687L45.7235 88.549L46.4724 88.5344L46.4807 88.9614C46.596 88.8102 46.7492 88.6889 46.9402 88.5976C47.1269 88.5107 47.3275 88.4652 47.5421 88.461C47.8268 88.4554 48.0841 88.5095 48.3142 88.6233C48.5398 88.7372 48.7206 88.9089 48.8565 89.1385C48.9881 89.3681 49.0571 89.6472 49.0635 89.9756L49.105 92.104L48.3627 92.1185L48.3233 90.1018C48.317 89.7777 48.2311 89.5297 48.0656 89.3577C47.9003 89.19 47.6774 89.1089 47.3972 89.1144C47.1169 89.1199 46.8974 89.2096 46.7387 89.3836C46.5757 89.562 46.4973 89.8132 46.5037 90.1373L46.543 92.1541L45.7941 92.1687Z" fill="white"/>
<path d="M39.8911 87.9411C40.1719 87.9879 40.4164 88.0797 40.6245 88.2165C40.8276 88.3569 40.9795 88.5243 41.0804 88.7187C41.1805 88.9175 41.2168 89.1256 41.1895 89.3431L40.4247 89.2156C40.437 89.0623 40.3869 88.9229 40.2746 88.7976C40.1572 88.6759 39.9991 88.5985 39.8004 88.5654C39.593 88.5309 39.4266 88.5431 39.3013 88.6022C39.171 88.6648 39.0954 88.7588 39.0745 88.8841C39.0522 89.018 39.1004 89.1282 39.2193 89.2146C39.3338 89.3003 39.5228 89.4051 39.7864 89.5289C40.042 89.647 40.2483 89.7547 40.4053 89.8519C40.5623 89.9491 40.6916 90.0794 40.7931 90.2429C40.8903 90.4056 40.9195 90.6036 40.8806 90.837C40.849 91.0271 40.764 91.1905 40.6257 91.3274C40.4868 91.4685 40.306 91.5672 40.0835 91.6234C39.8567 91.6788 39.6072 91.6839 39.335 91.6385C38.9288 91.5709 38.6199 91.4128 38.4081 91.1644C38.1914 90.9195 38.1039 90.6185 38.1456 90.2614L38.8845 90.3845C38.8708 90.5465 38.9144 90.6848 39.0152 90.7992C39.116 90.9137 39.2658 90.9875 39.4645 91.0207C39.659 91.0531 39.8142 91.0412 39.9301 90.985C40.046 90.9288 40.1141 90.8402 40.1342 90.7193C40.1501 90.6242 40.1288 90.5385 40.0705 90.4622C40.0122 90.3859 39.9365 90.32 39.8436 90.2645C39.75 90.2134 39.6107 90.1436 39.4256 90.055C39.1779 89.9427 38.978 89.8361 38.8261 89.7353C38.6691 89.6381 38.5416 89.5103 38.4437 89.3518C38.3458 89.1934 38.3137 88.9994 38.3475 88.7696C38.3814 88.5666 38.4678 88.3944 38.6068 88.2533C38.7457 88.1122 38.9265 88.0135 39.149 87.9573C39.3672 87.9004 39.6145 87.895 39.8911 87.9411Z" fill="white"/>
</svg>
