<svg width="145" height="16" viewBox="0 0 145 16" fill="none" xmlns="http://www.w3.org/2000/svg">
<path fill-rule="evenodd" clip-rule="evenodd" d="M17.813 15.8901C17.7906 15.9212 17.7544 15.9396 17.7159 15.9396H16.618C16.5518 15.9396 16.4981 15.8863 16.4981 15.8204V14.8677C16.4981 14.8019 16.4444 14.7486 16.3783 14.7486H15.819C15.7527 14.7486 15.6991 14.6953 15.6991 14.6295V14.0738C15.6991 14.008 15.6454 13.9547 15.5793 13.9547H15.4194C15.3533 13.9547 15.2996 13.9014 15.2996 13.8356V12.0888C15.2996 12.0456 15.3232 12.0059 15.3609 11.9844C16.042 11.5963 16.5419 11.1317 16.7972 10.621C16.8427 10.5298 16.7493 10.4378 16.6515 10.4681C16.5302 10.5058 16.3938 10.5422 16.2436 10.5772C16.1692 10.5946 16.0986 10.538 16.0986 10.462V9.70703C16.0986 9.64128 16.045 9.58797 15.9787 9.58797H15.3076C15.2017 9.58797 15.1467 9.46021 15.2168 9.38127C15.7994 8.72552 16.2217 7.95474 16.4319 7.11425C16.458 7.00947 16.3356 6.9287 16.2407 6.98112C15.8425 7.20095 15.2785 7.39602 14.5913 7.55513C14.4805 7.58077 14.4005 7.45015 14.4687 7.35978C14.9802 6.68187 15.3552 5.88226 15.5493 5.00812C15.5753 4.89096 15.4207 4.81474 15.3303 4.89436C14.7937 5.36754 14.0041 5.76048 13.0528 6.0279C12.9771 6.04918 12.9025 5.9922 12.9025 5.91408V5.61816C12.9025 5.39895 12.7237 5.22121 12.5031 5.22121H7.70895C7.4883 5.22121 7.30941 5.39895 7.30941 5.61816V5.91408C7.30941 5.9922 7.23489 6.04918 7.15921 6.0279C6.20783 5.76048 5.41827 5.36754 4.88166 4.89436C4.79129 4.81474 4.63667 4.89096 4.66271 5.00812C4.85677 5.88226 5.23176 6.68187 5.74322 7.35978C5.81148 7.45022 5.73146 7.58077 5.62069 7.55513C4.93347 7.39602 4.36952 7.20095 3.97134 6.98119C3.87642 6.92876 3.75403 7.00954 3.78021 7.11425C3.99031 7.95474 4.41256 8.72552 4.99521 9.38127C5.06531 9.46021 5.0103 9.58797 4.90437 9.58797H4.23326C4.16703 9.58797 4.11338 9.64128 4.11338 9.70703V10.462C4.11338 10.538 4.04281 10.5946 3.96842 10.5772C3.81808 10.5422 3.68162 10.5058 3.56025 10.4681C3.46247 10.4377 3.36898 10.5298 3.4146 10.6209C3.66992 11.1317 4.16982 11.5963 4.85106 11.9845C4.8888 12.006 4.91239 12.0458 4.91239 12.089V13.8356C4.91239 13.9014 4.85874 13.9547 4.79252 13.9547H4.63273C4.56657 13.9547 4.51292 14.008 4.51292 14.0738V14.6295C4.51292 14.6953 4.45921 14.7486 4.39305 14.7486H3.83372C3.76756 14.7486 3.71385 14.8019 3.71385 14.8677V15.8204C3.71385 15.8863 3.6602 15.9396 3.59404 15.9396H2.49606C2.45758 15.9396 2.4214 15.9212 2.39903 15.8901C1.21694 14.2399 0.517822 12.1969 0.517822 9.98492C0.517822 9.842 0.520746 9.69975 0.526526 9.55826C0.534957 9.35087 0.709431 9.19095 0.918379 9.19095H2.91484C3.13548 9.19095 3.31438 9.01321 3.31438 8.79399C3.31438 8.57478 3.13548 8.39704 2.91484 8.39704H1.10577C0.860856 8.39704 0.673054 8.17987 0.721331 7.9412L0.727722 7.90979C0.76478 7.7294 0.926539 7.60307 1.11176 7.60307H1.71637C1.93701 7.60307 2.11584 7.42533 2.11584 7.20611C2.11584 6.9869 1.93701 6.80909 1.71637 6.80909H1.34885C1.18614 6.80909 1.07082 6.65121 1.12597 6.4991C2.48947 2.73757 5.99568 0.0605469 10.106 0.0605469C11.5946 0.0605469 13.004 0.411672 14.2611 1.03831C14.3712 1.09318 14.3308 1.25147 14.2075 1.25147H12.1035C11.8829 1.25147 11.704 1.42921 11.704 1.64843C11.704 1.86771 11.8829 2.04545 12.1035 2.04545H15.7221C15.8113 2.04545 15.8982 2.07489 15.9677 2.13051C15.9949 2.15241 16.0221 2.17437 16.0491 2.19647C16.3235 2.42105 16.1538 2.83936 15.7983 2.83936H10.106C9.88532 2.83936 9.7065 3.01709 9.7065 3.23638C9.7065 3.45559 9.88532 3.63333 10.106 3.63333H17.2817C17.403 3.63333 17.5181 3.68779 17.5921 3.7834C17.6039 3.79856 17.6156 3.81386 17.6273 3.82909C17.8192 4.07985 17.6317 4.4273 17.3147 4.4273H17.2971C17.0765 4.4273 16.8976 4.60498 16.8976 4.82426C16.8976 5.04347 17.0765 5.22121 17.2971 5.22121H18.2783C18.4266 5.22121 18.5633 5.3026 18.6292 5.43465C19.3098 6.7976 19.6942 8.34482 19.6942 9.98492C19.6942 12.1969 18.995 14.2399 17.813 15.8901ZM6.3906 10.3819C6.45676 10.3819 6.5104 10.4353 6.5104 10.501V14.2326C6.5104 14.2984 6.45676 14.3517 6.3906 14.3517H5.83127C5.76505 14.3517 5.7114 14.2984 5.7114 14.2326V10.501C5.7114 10.4353 5.76505 10.3819 5.83127 10.3819H6.3906ZM8.38815 11.5728C8.4543 11.5728 8.50795 11.6261 8.50795 11.6919V14.2326C8.50795 14.2984 8.4543 14.3517 8.38815 14.3517H7.42928C7.36312 14.3517 7.30941 14.2984 7.30941 14.2326V11.6919C7.30941 11.6261 7.36312 11.5728 7.42928 11.5728H8.38815ZM11.8239 11.5728C11.7577 11.5728 11.704 11.6261 11.704 11.6919V14.2326C11.704 14.2984 11.7577 14.3517 11.8239 14.3517H12.7827C12.8489 14.3517 12.9025 14.2984 12.9025 14.2326V11.6919C12.9025 11.6261 12.8489 11.5728 12.7827 11.5728H11.8239ZM10.7852 11.5728C10.8513 11.5728 10.905 11.6261 10.905 11.6919V14.2326C10.905 14.2984 10.8513 14.3517 10.7852 14.3517H9.42683C9.36061 14.3517 9.30696 14.2984 9.30696 14.2326V11.6919C9.30696 11.6261 9.36061 11.5728 9.42683 11.5728H10.7852ZM7.30941 11.0568C7.30941 11.1225 7.36312 11.1759 7.42928 11.1759H12.7827C12.8489 11.1759 12.9025 11.1225 12.9025 11.0568V10.501C12.9025 10.4353 12.8489 10.3819 12.7827 10.3819H7.42928C7.36312 10.3819 7.30941 10.4353 7.30941 10.501V11.0568ZM14.3807 10.3819C14.4469 10.3819 14.5006 10.4353 14.5006 10.501V14.2326C14.5006 14.2984 14.4469 14.3517 14.3807 14.3517H13.8214C13.7552 14.3517 13.7015 14.2984 13.7015 14.2326V10.501C13.7015 10.4353 13.7552 10.3819 13.8214 10.3819H14.3807ZM26.6176 3.10066C26.6978 2.89538 26.93 2.79373 27.1363 2.87356C27.4975 3.01335 28.2791 3.49061 28.9812 4.39154H32.5005C32.7218 4.39154 32.9012 4.57003 32.9012 4.79026V6.23562C32.9012 6.45586 32.7218 6.63435 32.5005 6.63435C32.2792 6.63435 32.0998 6.45586 32.0998 6.23562V5.18898H23.435V6.23562C23.435 6.45586 23.2556 6.63435 23.0343 6.63435C22.813 6.63435 22.6336 6.45586 22.6336 6.23562V4.79026C22.6336 4.57003 22.813 4.39154 23.0343 4.39154H27.9151C27.4435 3.92299 27.0121 3.68113 26.8459 3.61681C26.6396 3.53698 26.5374 3.30587 26.6176 3.10066ZM24.4868 5.8369C24.2655 5.8369 24.0861 6.01539 24.0861 6.23562C24.0861 6.45586 24.2655 6.63435 24.4868 6.63435H30.9979C31.2192 6.63435 31.3986 6.45586 31.3986 6.23562C31.3986 6.01539 31.2192 5.8369 30.9979 5.8369H24.4868ZM24.7873 7.18259C24.566 7.18259 24.3866 7.36107 24.3866 7.58131V9.17626C24.3866 9.39643 24.566 9.57498 24.7873 9.57498H30.497C30.7184 9.57498 30.8977 9.39643 30.8977 9.17626V7.58131C30.8977 7.36107 30.7184 7.18259 30.497 7.18259H24.7873ZM25.1879 8.77747V7.98003H30.0964V8.77747H25.1879ZM23.8357 10.2229C23.6143 10.2229 23.435 10.4015 23.435 10.6216V14.9578C23.435 15.178 23.6143 15.3565 23.8357 15.3565C24.0569 15.3565 24.2364 15.178 24.2364 14.9578V14.5092H31.2984V14.9578C31.2984 15.178 31.4778 15.3565 31.6991 15.3565C31.9204 15.3565 32.0998 15.178 32.0998 14.9578V10.6216C32.0998 10.4015 31.9204 10.2229 31.6991 10.2229H23.8357ZM24.2364 13.7118V12.8147H27.4418V13.7118H24.2364ZM24.2364 12.0171H27.4418V11.0203H24.2364V12.0171ZM28.2432 13.7118V12.8147H31.2984V13.7118H28.2432ZM28.2432 12.0171H31.2984V11.0203H28.2432V12.0171ZM40.5358 3.54521C40.5625 3.54331 40.5888 3.54405 40.6144 3.54725C40.64 3.54405 40.6663 3.54331 40.693 3.54521C40.9138 3.56092 41.0799 3.75171 41.0642 3.97133C40.8224 7.33952 42.0528 9.81106 43.3459 11.4467C43.9937 12.2659 44.6567 12.8745 45.1566 13.2773C45.4064 13.4785 45.6147 13.6278 45.7591 13.7259C45.8313 13.775 45.8874 13.8112 45.9246 13.8346C45.9432 13.8463 45.9571 13.8548 45.9658 13.8601L45.9723 13.8641L45.9752 13.8658L45.9767 13.8667C46.1672 13.9787 46.2307 14.223 46.1184 14.4126C46.0061 14.6023 45.7604 14.6655 45.5698 14.5537L45.5689 14.5531L45.5675 14.5523L45.5631 14.5497L45.5484 14.5408C45.536 14.5334 45.5184 14.5226 45.4961 14.5085C45.4513 14.4803 45.3874 14.4391 45.3072 14.3845C45.1467 14.2754 44.9207 14.1132 44.6524 13.8971C44.1162 13.465 43.4082 12.8151 42.7161 11.9398C41.883 10.8861 41.0725 9.50434 40.6144 7.78611C40.1563 9.50434 39.3458 10.8861 38.5127 11.9398C37.8207 12.8151 37.1127 13.465 36.5765 13.8971C36.3081 14.1132 36.0821 14.2754 35.9217 14.3845C35.8414 14.4391 35.7775 14.4803 35.7328 14.5085C35.7104 14.5226 35.6929 14.5334 35.6804 14.5408L35.6657 14.5497L35.6614 14.5523L35.66 14.5531C35.66 14.5531 35.6593 14.5536 35.6485 14.5355L35.6591 14.5537C35.4684 14.6655 35.2227 14.6023 35.1104 14.4126C34.9982 14.223 35.0615 13.9788 35.2519 13.8668L35.2536 13.8658L35.258 13.8632L35.2629 13.8601C35.2718 13.8548 35.2856 13.8463 35.3042 13.8346C35.3415 13.8112 35.3976 13.775 35.4697 13.7259C35.6141 13.6278 35.8224 13.4785 36.0721 13.2773C36.5721 12.8745 37.2351 12.2659 37.8829 11.4467C39.1761 9.81106 40.4065 7.33952 40.1647 3.97133C40.1489 3.75171 40.3151 3.56092 40.5358 3.54521ZM49.3293 3.84323C49.3293 3.62306 49.5086 3.44451 49.73 3.44451H58.0943C58.3156 3.44451 58.495 3.62306 58.495 3.84323V5.88674C58.495 6.10698 58.3156 6.28547 58.0943 6.28547H50.1307V8.22923L50.1305 8.23868V8.23991L50.1305 8.24229L50.1302 8.25079L50.1292 8.28199C50.1282 8.30892 50.1267 8.34795 50.1241 8.39813C50.1192 8.49842 50.1107 8.64311 50.0962 8.8235C50.0674 9.18401 50.0149 9.68853 49.9201 10.2671C49.7318 11.4165 49.3716 12.8914 48.6758 14.1083C48.5664 14.2997 48.3217 14.3666 48.1294 14.2577C47.9371 14.1488 47.8698 13.9054 47.9793 13.714C48.6058 12.6183 48.9468 11.2522 49.1292 10.1389C49.2197 9.58607 49.2699 9.10371 49.2974 8.7602C49.3111 8.58858 49.3191 8.45198 49.3237 8.35896C49.326 8.31252 49.3274 8.2769 49.3283 8.25337L49.3292 8.22719L49.3293 8.22386V3.84323ZM50.1307 5.48802H57.6936V4.24202H50.1307V5.48802ZM50.6315 7.63122C50.6315 7.41098 50.8109 7.23243 51.0322 7.23243H58.5951C58.8164 7.23243 58.9958 7.41098 58.9958 7.63122C58.9958 7.85138 58.8164 8.02994 58.5951 8.02994H54.6372C54.4393 8.31157 54.1152 8.67487 53.724 9.04245C53.5878 9.17041 53.4414 9.3009 53.2866 9.43063C53.8424 9.38045 54.4555 9.33612 55.0572 9.32585C55.6792 9.31524 56.3078 9.3402 56.8691 9.43586C56.9152 9.44368 56.9612 9.45212 57.007 9.46109C56.8245 9.27479 56.6566 9.12799 56.546 9.04238C56.3714 8.90721 56.3399 8.65671 56.4758 8.48285C56.6117 8.30906 56.8634 8.27771 57.038 8.41295C57.3615 8.66324 58.1044 9.35142 58.5027 10.1442C58.6017 10.3412 58.5215 10.5807 58.3236 10.6792C58.2578 10.7119 58.1874 10.725 58.119 10.7206C58.0232 10.7265 57.9248 10.6983 57.844 10.6339C57.6083 10.4463 57.2336 10.3071 56.7338 10.2218C56.2412 10.1379 55.6677 10.113 55.071 10.1232C54.1723 10.1385 53.2628 10.2313 52.5339 10.3059C52.2894 10.3308 52.0652 10.3537 51.8687 10.3709C51.6818 10.3872 51.5086 10.2724 51.4517 10.0945C51.3949 9.91666 51.4696 9.72335 51.6316 9.62931C52.2002 9.29926 52.7395 8.87083 53.1737 8.46272C53.3357 8.31048 53.4798 8.16416 53.6034 8.02994H51.0322C50.8109 8.02994 50.6315 7.85138 50.6315 7.63122ZM54.3378 13.7616H50.1808C49.9595 13.7616 49.7801 13.9401 49.7801 14.1603C49.7801 14.3805 49.9595 14.5591 50.1808 14.5591H59.0459C59.2672 14.5591 59.4466 14.3805 59.4466 14.1603C59.4466 13.9401 59.2672 13.7616 59.0459 13.7616H55.1392V12.5654H57.944C58.1653 12.5654 58.3447 12.3869 58.3447 12.1667C58.3447 11.9465 58.1653 11.7679 57.944 11.7679H55.1392V10.9207C55.1392 10.7004 54.9599 10.5219 54.7385 10.5219C54.5173 10.5219 54.3378 10.7004 54.3378 10.9207V11.7679H51.5331C51.3117 11.7679 51.1324 11.9465 51.1324 12.1667C51.1324 12.3869 51.3117 12.5654 51.5331 12.5654H54.3378V13.7616Z" fill="#475467"/>
<path fill-rule="evenodd" clip-rule="evenodd" d="M68.0588 12.7493V3.68652H144.213V12.7525H144.171V12.7493H68.0588ZM124.74 4.64484C124.816 4.7193 124.859 4.81993 124.859 4.92505H126.098C126.097 4.67857 126.039 4.43637 125.929 4.21695H127.801V8.55107H129.202V4.21695H130.989V8.55107H132.389V6.0794L134.911 8.55107H135.48V4.21695H137.475C137.05 4.69339 136.814 5.30629 136.814 5.943C136.816 6.46037 136.974 6.96564 137.267 7.39509C137.562 7.82448 137.979 8.15867 138.467 8.35545C138.956 8.55223 139.492 8.60268 140.01 8.50041C140.527 8.39815 141.002 8.14786 141.374 7.7811C141.746 7.41434 141.999 6.94762 142.1 6.43997C142.202 5.93232 142.148 5.40659 141.945 4.9292C141.833 4.6681 141.68 4.42787 141.492 4.21695H143.56V9.59105H108.167V4.21695H110.683C110.607 4.30174 110.537 4.39143 110.473 4.48553C110.229 4.84359 110.08 5.25503 110.037 5.68339C109.995 6.11176 110.061 6.5438 110.229 6.94116C110.398 7.33852 110.664 7.68897 111.004 7.96122C111.344 8.23354 111.748 8.41937 112.179 8.50218C112.609 8.58507 113.055 8.56229 113.474 8.43609C113.894 8.30983 114.275 8.08395 114.585 7.77845L113.589 6.81544C113.443 6.95544 113.264 7.05825 113.068 7.11489C112.872 7.17153 112.665 7.18023 112.464 7.14025C112.264 7.10027 112.077 7.01289 111.919 6.88561C111.761 6.75832 111.637 6.59514 111.558 6.41019C111.48 6.22524 111.448 6.02425 111.467 5.82469C111.486 5.62519 111.554 5.43317 111.666 5.26543C111.778 5.09775 111.93 4.95945 112.109 4.86256C112.288 4.76574 112.488 4.71331 112.693 4.70991C112.858 4.70597 113.022 4.73419 113.176 4.793C113.33 4.85175 113.47 4.93987 113.589 5.05227L114.434 4.21695H118.076L116.012 8.55107H117.414L117.734 7.8682H119.919L120.246 8.55107H121.647L119.566 4.21695H122.987C122.924 4.34186 122.878 4.47492 122.85 4.61295C122.786 4.9245 122.818 5.24741 122.942 5.54108C123.066 5.83475 123.275 6.08585 123.544 6.26284C123.814 6.43977 124.13 6.53462 124.454 6.5353C124.561 6.53652 124.664 6.57888 124.74 6.65334C124.816 6.72779 124.859 6.82836 124.859 6.93354C124.862 6.98685 124.853 7.04009 124.833 7.08993C124.814 7.13977 124.784 7.18519 124.746 7.22347C124.708 7.26176 124.662 7.29208 124.612 7.31262C124.562 7.33322 124.508 7.34355 124.454 7.34308C124.399 7.34253 124.345 7.33125 124.295 7.30976C124.246 7.28827 124.201 7.25713 124.163 7.21817C124.126 7.17921 124.097 7.13324 124.079 7.08306C124.06 7.03288 124.052 6.97951 124.055 6.9262H122.811C122.809 7.24693 122.905 7.56086 123.086 7.82815C123.267 8.09544 123.524 8.30398 123.826 8.42739C124.128 8.5508 124.461 8.5835 124.782 8.52129C125.103 8.45901 125.398 8.30473 125.629 8.07796C125.86 7.85113 126.018 7.56209 126.081 7.24748C126.145 6.93286 126.112 6.60683 125.986 6.31078C125.86 6.01473 125.647 5.76206 125.374 5.58473C125.102 5.40747 124.781 5.31357 124.454 5.31507C124.402 5.31513 124.35 5.30514 124.302 5.28562C124.253 5.26611 124.209 5.23735 124.172 5.20117C124.135 5.16493 124.106 5.12189 124.086 5.0745C124.066 5.02718 124.055 4.97638 124.055 4.92505C124.055 4.82054 124.097 4.72011 124.171 4.64552C124.246 4.57093 124.348 4.5283 124.454 4.52687C124.561 4.52803 124.664 4.57039 124.74 4.64484ZM108.167 9.78327V12.1126H110.374C110.405 12.0589 110.438 12.0062 110.473 11.9546C110.717 11.5966 111.047 11.303 111.434 11.1001C111.821 10.8972 112.254 10.791 112.693 10.7912C113.042 10.7899 113.387 10.8564 113.709 10.9868C114.032 11.1172 114.325 11.3089 114.571 11.551L114.002 12.1126H117.873L118.503 10.7912H119.136L119.77 12.1126H122.844C122.845 12.1086 122.846 12.1045 122.846 12.1005C122.847 12.0971 122.848 12.0936 122.849 12.0901L122.85 12.0841C122.913 11.7727 123.069 11.4866 123.298 11.262C123.527 11.0374 123.819 10.8844 124.137 10.8222C124.455 10.7601 124.784 10.7916 125.084 10.9128C125.383 11.034 125.639 11.2395 125.82 11.5033C125.946 11.6881 126.032 11.8957 126.072 12.1126H127.801V10.7912H129.202V12.1126H130.989V10.7912H131.557L132.905 12.1126H134.079V10.7912H135.48V12.1126H137.167C137.282 11.9138 137.425 11.729 137.593 11.5639C138.091 11.0726 138.768 10.7948 139.475 10.7912C140.003 10.7897 140.519 10.9417 140.959 11.228C141.308 11.455 141.595 11.7585 141.801 12.1126H143.56V9.78327H108.167ZM68.7116 4.21695H107.513V12.1126H68.7116V4.21695ZM132.471 4.21695L134.079 5.79287V4.21695H132.471ZM124.175 12.1126H124.737C124.661 12.0401 124.56 11.9989 124.454 11.9977C124.349 11.9991 124.249 12.0404 124.175 12.1126ZM118.282 6.71011H119.37L118.829 5.55944L118.282 6.71011ZM73.1612 10.9193L74.0446 9.05641L74.9346 10.9193H75.9488L78.4189 5.68577H76.8818L75.3651 8.88982L74.3472 6.71195H73.7523L72.7344 8.88982L71.2252 5.68577H69.6871L72.1507 10.9193H73.1612ZM90.3522 5.68577L87.8606 10.9193H89.2652L89.5855 10.2355H91.7708L92.0986 10.9193H93.4994L90.9863 5.68577H90.3522ZM91.2198 9.08021H90.1299L90.6782 7.92858L91.2198 9.08021ZM97.9064 9.5306L98.732 10.9193H100.344L99.2121 9.02159C99.5023 8.75934 99.705 8.41726 99.7938 8.04016C99.8825 7.66306 99.853 7.26849 99.7092 6.90805C99.5654 6.54761 99.3141 6.23816 98.9879 6.0201C98.6617 5.80198 98.276 5.6855 97.8813 5.68577H95.6399V10.9193H97.0407V9.5306H97.9064ZM97.9093 8.34783H97.0407V6.84746H97.9093C98.012 6.84393 98.1144 6.86072 98.2104 6.8969C98.3064 6.933 98.394 6.98767 98.4679 7.0577C98.5419 7.12767 98.6007 7.21158 98.6409 7.30439C98.6811 7.39713 98.7018 7.49688 98.7018 7.59765C98.7018 7.69842 98.6811 7.79823 98.6409 7.89098C98.6007 7.98372 98.5419 8.06763 98.4679 8.13766C98.394 8.20763 98.3064 8.26237 98.2104 8.29847C98.1144 8.33458 98.012 8.35137 97.9093 8.34783ZM102.462 5.68577H105.78V6.82366H103.865V7.67407H105.56V8.83305H103.865V9.79605H105.78V10.9193H102.462V5.68577ZM80.4511 5.68577H83.7692V6.82366H81.8538V7.67407H83.5488V8.83305H81.8538V9.79605H83.7692V10.9193H80.4511V5.68577ZM139.475 4.68707C139.223 4.68666 138.977 4.75962 138.767 4.89663C138.557 5.03357 138.393 5.22844 138.297 5.45656C138.2 5.68475 138.174 5.93586 138.223 6.17819C138.272 6.42052 138.393 6.64314 138.571 6.81795C138.75 6.99277 138.977 7.11189 139.224 7.16024C139.471 7.20858 139.727 7.1839 139.96 7.08946C140.193 6.99501 140.392 6.83495 140.532 6.62961C140.672 6.4242 140.747 6.18275 140.747 5.93572C140.747 5.77172 140.715 5.60921 140.651 5.45758C140.587 5.30595 140.494 5.16813 140.375 5.05199C140.258 4.93593 140.117 4.84386 139.963 4.78104C139.808 4.71828 139.642 4.68598 139.475 4.68611V4.68707Z" fill="#475467"/>
</svg>
