<svg width="33" height="26" viewBox="0 0 33 26" fill="none" xmlns="http://www.w3.org/2000/svg">
<path d="M32.3237 6.0543C31.6213 4.39358 29.983 3.28715 28.0799 3.28715C26.7154 3.28715 25.784 3.99184 25.1848 4.802H25.1556V0.975586H23.0259V12.2304H25.1556V10.8345H25.1848C25.6651 11.6447 26.6256 12.4863 28.0799 12.4863C30.6159 12.4863 32.6873 10.5203 32.6873 7.87886C32.6873 7.22358 32.5571 6.60635 32.3237 6.0543ZM27.8106 10.5652C26.3249 10.5652 25.1556 9.34887 25.1556 7.87886C25.1556 6.42238 26.3271 5.20825 27.8106 5.20825C29.2805 5.20825 30.4655 6.4246 30.4655 7.87886C30.4655 9.34887 29.2805 10.5652 27.8106 10.5652Z" fill="#475467"/>
<path d="M17.9968 3.2876C16.7288 3.2876 15.5236 3.76787 14.6282 4.5713L15.9748 6.16246C16.464 5.58347 17.1911 5.20866 17.9968 5.20866C19.4825 5.20866 20.6539 6.42507 20.6539 7.87933C20.6539 8.84659 20.1445 9.70166 19.3748 10.1752L20.6832 11.7192C21.9826 10.9113 22.8757 9.52658 22.8757 7.87933C22.8735 5.25358 20.5777 3.2876 17.9968 3.2876Z" fill="#475467"/>
<path d="M16.1812 17.7462C16.9173 17.7462 17.5906 18.0605 18.0708 18.5407L19.5274 17.0999C18.6431 16.3055 17.4425 15.8252 16.1812 15.8252C13.616 15.8252 11.3044 17.7911 11.3044 20.4169C11.3044 23.0427 13.616 25.0243 16.1812 25.0243C17.4425 25.0243 18.6431 24.5441 19.5274 23.7496L18.0708 22.3087C17.5906 22.7891 16.9151 23.1032 16.1812 23.1032C14.7247 23.1032 13.524 21.8734 13.524 20.4169C13.5262 18.9604 14.727 17.7462 16.1812 17.7462Z" fill="#475467"/>
<path d="M7.13247 17.7466C8.18276 17.7466 9.02436 18.6016 9.02436 19.6676V22.4392L11.1542 24.7666V19.515C11.1542 17.3403 9.77392 15.8232 7.7788 15.8232C6.48837 15.8232 5.67821 16.5885 5.2585 17.4144H5.22934V16.0791H3.20728L5.5323 18.6196C5.86899 18.0944 6.45471 17.7466 7.13247 17.7466Z" fill="#475467"/>
<path d="M2.84088 14.1743C2.84088 13.4831 2.27086 12.9131 1.57962 12.9131C1.22279 12.9131 0.89963 13.0657 0.668457 13.3081L2.36062 15.1573C2.65234 14.9262 2.84088 14.5716 2.84088 14.1743Z" fill="#475467"/>
<path d="M9.04639 24.7693H11.1762V24.767L9.04639 22.4375V24.7693Z" fill="#475467"/>
<path d="M3.11987 24.7688H5.24961V19.6654C5.24961 19.2794 5.36186 18.9203 5.55257 18.6196L3.22984 16.0791H3.11987V24.7688Z" fill="#475467"/>
<path d="M1.60477 15.4353C1.89877 15.4353 2.17035 15.3321 2.38577 15.1593L0.693602 13.3101C0.478181 13.5367 0.343506 13.842 0.343506 14.1741C0.343506 14.8653 0.913534 15.4353 1.60477 15.4353Z" fill="#475467"/>
<path d="M2.66813 16.0791H0.53833V24.7666H2.66813V16.0791Z" fill="#475467"/>
<path d="M9.70459 3.2876C8.50394 3.2876 7.5591 4.15837 7.21351 4.93709C6.85217 4.08208 6.10262 3.2876 4.82789 3.2876C3.73269 3.2876 3.0729 4.09777 2.6824 4.81816H2.65324V3.54343H0.523438V12.2309H2.65324V6.73922C2.65324 5.88421 3.32872 5.20866 4.1681 5.20866C5.02311 5.20866 5.68296 5.88421 5.68296 6.73922V12.2309H7.8127V6.73922C7.8127 5.88421 8.48824 5.20866 9.32756 5.20866C10.1826 5.20866 10.8424 5.88421 10.8424 6.73922V12.2309H12.9722V6.76844C12.9744 4.6678 11.7289 3.2876 9.70459 3.2876Z" fill="#475467"/>
<path d="M13.1248 7.87905C13.1248 10.5205 15.4363 12.4865 18.0015 12.4865C18.9732 12.4865 19.9024 12.2082 20.6856 11.7212L19.3772 10.1771C18.9777 10.4218 18.5087 10.5676 17.9992 10.5676C16.5428 10.5676 15.342 9.35122 15.342 7.88128C15.342 7.23267 15.5822 6.63126 15.9772 6.16446L14.6307 4.57324C13.715 5.39242 13.1248 6.55045 13.1248 7.87905Z" fill="#475467"/>
</svg>
