<svg width="1440" height="1343" viewBox="0 0 1440 1343" fill="none" xmlns="http://www.w3.org/2000/svg">
<g clip-path="url(#clip0_430_8079)">
<path d="M711.86 1191.21L711.956 1191.34M711.956 1191.34L938.99 1493.2C964.742 1527.44 1007.34 1544.01 1049.06 1536.02L1409.61 1466.92C1462.62 1456.76 1501 1409.79 1501 1355.07V160.926C1501 106.215 1462.62 59.2433 1409.61 49.0839L1049.06 -20.017C1007.34 -28.0134 964.742 -11.4445 938.99 22.7953L461 658.339L461 758M711.956 1191.34L981 807.831M711.956 1191.34L502.665 1489.67C477.269 1525.87 433.424 1543.78 390.379 1535.53L32.3901 1466.92C-20.6182 1456.76 -59 1409.79 -59 1355.07V160.926C-59 106.214 -20.6182 59.2432 32.3902 49.0838L390.379 -19.527C433.425 -27.777 477.269 -9.87132 502.666 26.3298L711.86 324.524M981 807.831V1516.34M981 807.831L981 -8.87483M461 758V-8.87483M461 758V1516.34" stroke="url(#paint0_linear_430_8079)" stroke-opacity="0.3" stroke-linejoin="round"/>
</g>
<defs>
<linearGradient id="paint0_linear_430_8079" x1="721" y1="-22" x2="721" y2="1538" gradientUnits="userSpaceOnUse">
<stop stop-color="#475467"/>
<stop offset="1" stop-color="#475467" stop-opacity="0"/>
</linearGradient>
<clipPath id="clip0_430_8079">
<rect width="1440" height="1343" fill="white"/>
</clipPath>
</defs>
</svg>
