<svg width="25" height="24" viewBox="0 0 25 24" fill="none" xmlns="http://www.w3.org/2000/svg">
<path fill-rule="evenodd" clip-rule="evenodd" d="M18.704 5.76205C17.058 4.11505 14.869 3.20705 12.537 3.20605C7.73002 3.20605 3.81902 7.11505 3.81802 11.9201C3.81602 13.4491 4.21702 14.9521 4.98102 16.2771L3.74402 20.7931L8.36602 19.5811C9.64502 20.2771 11.077 20.6421 12.533 20.6421H12.537C17.342 20.6421 21.253 16.7321 21.255 11.9271C21.256 9.59905 20.35 7.41005 18.704 5.76205Z" stroke="#060E1F" stroke-width="1.5" stroke-linecap="round" stroke-linejoin="round"></path>
<path d="M13.595 13.5599L14.001 13.1569C14.374 12.7869 14.964 12.7399 15.394 13.0419C15.81 13.3339 16.186 13.5959 16.536 13.8399C17.092 14.2259 17.159 15.0179 16.68 15.4959L16.321 15.8549" stroke="#060E1F" stroke-width="1.5" stroke-linecap="round" stroke-linejoin="round"></path>
<path d="M8.64502 8.17938L9.00402 7.82038C9.48202 7.34238 10.274 7.40938 10.66 7.96438C10.903 8.31438 11.165 8.69038 11.458 9.10638C11.76 9.53638 11.714 10.1264 11.343 10.4994L10.94 10.9054" stroke="#060E1F" stroke-width="1.5" stroke-linecap="round" stroke-linejoin="round"></path>
<path d="M16.3211 15.8553C14.8401 17.3293 12.3511 16.0773 10.3861 14.1113" stroke="#060E1F" stroke-width="1.5" stroke-linecap="round" stroke-linejoin="round"></path>
<path d="M10.3881 14.1147C8.42307 12.1487 7.17107 9.66069 8.64507 8.17969" stroke="#060E1F" stroke-width="1.5" stroke-linecap="round" stroke-linejoin="round"></path>
<path d="M10.9401 10.9053C11.2591 11.4083 11.6681 11.9063 12.1301 12.3683L12.1321 12.3703C12.5941 12.8323 13.0921 13.2413 13.5951 13.5603" stroke="#060E1F" stroke-width="1.5" stroke-linecap="round" stroke-linejoin="round"></path>
</svg>