<svg width="25" height="24" viewBox="0 0 25 24" fill="none" xmlns="http://www.w3.org/2000/svg">
<path fill-rule="evenodd" clip-rule="evenodd" d="M8 3H17.004C19.487 3 21.5 5.013 21.5 7.496V16.505C21.5 18.987 19.487 21 17.004 21H7.996C5.513 21 3.5 18.987 3.5 16.504V7.5C3.5 5.015 5.515 3 8 3V3Z" stroke="#060E1F" stroke-width="1.5" stroke-linecap="round" stroke-linejoin="round"></path>
<path d="M8.62012 11.0996V16.4996" stroke="#060E1F" stroke-width="1.5" stroke-linecap="round" stroke-linejoin="round"></path>
<path d="M12.2189 16.5006V13.3506C12.2189 12.1076 13.2259 11.1006 14.4689 11.1006V11.1006C15.7119 11.1006 16.7189 12.1076 16.7189 13.3506V16.5006" stroke="#060E1F" stroke-width="1.5" stroke-linecap="round" stroke-linejoin="round"></path>
<path d="M8.6179 7.83848C8.4939 7.83848 8.3929 7.93948 8.3939 8.06348C8.3939 8.18748 8.4949 8.28848 8.6189 8.28848C8.7429 8.28848 8.8439 8.18748 8.8439 8.06348C8.8439 7.93848 8.7429 7.83848 8.6179 7.83848" stroke="#060E1F" stroke-width="1.5" stroke-linecap="round" stroke-linejoin="round"></path>
</svg>