<svg width="25" height="24" viewBox="0 0 25 24" fill="none" xmlns="http://www.w3.org/2000/svg">
<path fill-rule="evenodd" clip-rule="evenodd" d="M7.996 3H17.005C19.487 3 21.5 5.012 21.5 7.496V16.505C21.5 18.987 19.488 21 17.004 21H7.996C5.513 21 3.5 18.988 3.5 16.504V7.496C3.5 5.013 5.512 3 7.996 3V3Z" stroke="#060E1F" stroke-width="1.5" stroke-linecap="round" stroke-linejoin="round"></path>
<path d="M17.449 6.71328C17.263 6.71428 17.112 6.86528 17.112 7.05128C17.112 7.23728 17.264 7.38828 17.45 7.38828C17.636 7.38828 17.787 7.23728 17.787 7.05128C17.788 6.86428 17.636 6.71328 17.449 6.71328" stroke="#060E1F" stroke-width="1.5" stroke-linecap="round" stroke-linejoin="round"></path>
<path d="M15.0455 9.45481C16.4514 10.8607 16.4514 13.1401 15.0455 14.546C13.6396 15.9519 11.3602 15.9519 9.95432 14.546C8.54843 13.1401 8.54843 10.8607 9.95432 9.45481C11.3602 8.04892 13.6396 8.04892 15.0455 9.45481" stroke="#060E1F" stroke-width="1.5" stroke-linecap="round" stroke-linejoin="round"></path>
</svg>