<svg width="89" height="16" viewBox="0 0 89 16" fill="none" xmlns="http://www.w3.org/2000/svg">
<mask id="mask0_328_6814" style="mask-type:alpha" maskUnits="userSpaceOnUse" x="0" y="0" width="16" height="16">
<path d="M0 2.52321C0 1.98387 0 1.7142 0.0971068 1.49393C0.182728 1.2997 0.320745 1.13316 0.495692 1.01297C0.694108 0.876651 0.959087 0.826579 1.48905 0.726435L4.18273 0.217425C4.59957 0.138657 4.80798 0.0992733 5.00283 0.129715C5.17508 0.156628 5.33889 0.222592 5.48172 0.322559C5.64329 0.435638 5.76626 0.608465 6.01219 0.954119L7.90724 3.61761L9.98221 0.89733C10.2307 0.571571 10.3549 0.408692 10.5142 0.30265C10.6551 0.208874 10.815 0.147546 10.9824 0.123093C11.1718 0.095442 11.373 0.133479 11.7756 0.209554L14.511 0.726435C15.0409 0.826578 15.3059 0.87665 15.5043 1.01297C15.6793 1.13316 15.8173 1.2997 15.9029 1.49393C16 1.7142 16 1.98387 16 2.52321V13.4768C16 14.0161 16 14.2858 15.9029 14.5061C15.8173 14.7003 15.6793 14.8668 15.5043 14.987C15.3059 15.1233 15.0409 15.1734 14.511 15.2736L11.7756 15.7904C11.373 15.8665 11.1718 15.9046 10.9824 15.8769C10.815 15.8525 10.6551 15.7911 10.5142 15.6973C10.3549 15.5913 10.2307 15.4284 9.98221 15.1027L7.90724 12.3824L6.01219 15.0459C5.76626 15.3915 5.64329 15.5644 5.48172 15.6774C5.33889 15.7774 5.17508 15.8434 5.00283 15.8703C4.80798 15.9007 4.59957 15.8613 4.18273 15.7826L1.48904 15.2736C0.959087 15.1734 0.694108 15.1233 0.495692 14.987C0.320745 14.8668 0.182728 14.7003 0.0971068 14.5061C0 14.2858 0 14.0161 0 13.4768V2.52321Z" fill="#D9D9D9"></path>
</mask>
<g mask="url(#mask0_328_6814)">
<path d="M10.6666 16L5.33325 9.00787V0L15.9999 14.9921L10.6666 16Z" fill="#00018F"></path>
<path d="M0 1.00787L5.33333 0V16L0 14.9921V1.00787Z" fill="#9EBFFF"></path>
<path d="M10.6667 0L16 1.00787V14.9921L10.6667 16V0Z" fill="#1718FF"></path>
<path d="M10.6666 0L5.33325 6.99213V16L15.9999 1.00787L10.6666 0Z" fill="#4E80FF"></path>
</g>
<path d="M22 14.5468V6.58092C22 4.80011 22.5409 3.43271 23.6226 2.4787C24.7043 1.5247 26.1439 1.0477 27.9415 1.0477C29.7709 1.0477 31.2185 1.5247 32.2843 2.4787C33.366 3.41681 33.9069 4.78421 33.9069 6.58092V14.5468C33.9069 14.7058 33.8353 14.7853 33.6921 14.7853H30.8526C30.6935 14.7853 30.614 14.7058 30.614 14.5468V6.60477C30.614 4.82396 29.7232 3.93356 27.9415 3.93356C26.1758 3.93356 25.2929 4.82396 25.2929 6.60477V14.5468C25.2929 14.7058 25.2133 14.7853 25.0543 14.7853H22.2148C22.0716 14.7853 22 14.7058 22 14.5468Z" fill="currentcolor"></path>
<path d="M45.4631 10.2777H48.2072C48.3662 10.2777 48.4458 10.3572 48.4458 10.5162C48.4458 10.6911 48.3901 10.9375 48.2787 11.2555C48.1674 11.5735 47.9606 11.9551 47.6583 12.4003C47.3561 12.8296 46.9823 13.2351 46.5368 13.6167C46.1073 13.9824 45.5267 14.3004 44.795 14.5707C44.0632 14.841 43.2519 14.9761 42.3611 14.9761C40.3885 14.9761 38.7898 14.3401 37.5649 13.0681C36.356 11.7961 35.7515 10.1028 35.7515 7.98807C35.7515 5.92107 36.3639 4.24361 37.5888 2.95571C38.8137 1.6678 40.3965 1.02385 42.3372 1.02385C44.3575 1.02385 45.9164 1.64395 47.0141 2.88416C48.1276 4.10846 48.6844 5.61102 48.6844 7.39182C48.6844 8.47303 48.1197 9.01363 46.9902 9.01363H39.0443C39.1557 9.95173 39.5057 10.7229 40.0943 11.3271C40.6987 11.9154 41.4703 12.2095 42.4088 12.2095C43.8723 12.2095 44.795 11.6451 45.1767 10.5162C45.2404 10.3572 45.3358 10.2777 45.4631 10.2777ZM39.0443 6.72402H45.4631C45.4313 5.81772 45.137 5.06246 44.5802 4.45826C44.0393 3.85406 43.2758 3.55196 42.2895 3.55196C41.4305 3.55196 40.7067 3.84611 40.1181 4.43441C39.5295 5.00681 39.1716 5.77002 39.0443 6.72402Z" fill="currentcolor"></path>
<path d="M49.2811 14.523L53.3853 7.91652L49.305 1.50085C49.2572 1.42135 49.2493 1.35775 49.2811 1.31005C49.3129 1.24645 49.3765 1.21465 49.472 1.21465H52.7649C52.9239 1.21465 53.0433 1.2862 53.1228 1.4293L55.7714 5.98467L58.42 1.4293C58.4996 1.2862 58.6189 1.21465 58.778 1.21465H61.9754C62.1822 1.21465 62.2299 1.31005 62.1186 1.50085L58.0144 7.91652L62.0947 14.523C62.1901 14.6979 62.1345 14.7853 61.9277 14.7853H58.6348C58.4757 14.7853 58.3564 14.7138 58.2769 14.5707L55.6521 9.99148L52.9796 14.5707C52.9001 14.7138 52.7808 14.7853 52.6217 14.7853H49.4481C49.2254 14.7853 49.1697 14.6979 49.2811 14.523Z" fill="currentcolor"></path>
<path d="M63.7473 9.41908V1.45315C63.7473 1.29415 63.8189 1.21465 63.962 1.21465H66.8016C66.9606 1.21465 67.0402 1.29415 67.0402 1.45315V9.39523C67.0402 11.176 67.931 12.0664 69.7127 12.0664C71.4784 12.0664 72.3613 11.176 72.3613 9.39523V1.45315C72.3613 1.29415 72.4408 1.21465 72.5999 1.21465H75.4394C75.5826 1.21465 75.6542 1.29415 75.6542 1.45315V9.41908C75.6542 11.1999 75.1133 12.5673 74.0316 13.5213C72.9499 14.4753 71.5023 14.9523 69.6888 14.9523C67.8753 14.9523 66.4277 14.4832 65.346 13.5451C64.2802 12.5911 63.7473 11.2158 63.7473 9.41908Z" fill="currentcolor"></path>
<path d="M77.8567 10.4208H80.5292C80.6882 10.4208 80.7916 10.5003 80.8394 10.6593C80.9666 11.2158 81.2609 11.6769 81.7222 12.0426C82.1995 12.3924 82.7881 12.5673 83.488 12.5673C84.2038 12.5673 84.7606 12.4242 85.1583 12.138C85.5719 11.8359 85.7787 11.4463 85.7787 10.9693C85.7787 10.5082 85.5798 10.1505 85.1822 9.89608C84.7845 9.62578 84.2834 9.45088 83.6789 9.37138C83.0744 9.29188 82.4222 9.18058 81.7222 9.03748C81.0223 8.87848 80.3701 8.69563 79.7656 8.48893C79.1611 8.28222 78.66 7.90857 78.2623 7.36797C77.8646 6.81147 77.6658 6.10392 77.6658 5.24531C77.6658 3.94151 78.1987 2.90801 79.2645 2.1448C80.3462 1.3816 81.6904 1 83.2971 1C84.2356 1 85.0628 1.13515 85.7787 1.40545C86.5104 1.65985 87.0672 1.9699 87.449 2.3356C87.8308 2.70131 88.141 3.10676 88.3796 3.55196C88.6182 3.99716 88.7693 4.36286 88.833 4.64906C88.8966 4.91936 88.9284 5.14991 88.9284 5.34071C88.9284 5.49972 88.8568 5.57922 88.7136 5.57922H86.0889C85.9139 5.57922 85.8185 5.49972 85.8025 5.34071C85.6753 4.75241 85.389 4.28336 84.9435 3.93356C84.514 3.58376 83.9414 3.40886 83.2255 3.40886C82.4938 3.40886 81.9211 3.56786 81.5075 3.88586C81.0939 4.18796 80.8871 4.57751 80.8871 5.05451C80.8871 5.46791 81.0382 5.79387 81.3405 6.03237C81.6427 6.27087 82.0245 6.44577 82.4858 6.55707C82.963 6.66837 83.488 6.76377 84.0607 6.84327C84.6492 6.92277 85.2299 7.03407 85.8025 7.17717C86.3911 7.32027 86.9161 7.51902 87.3774 7.77342C87.8546 8.01192 88.2444 8.39353 88.5466 8.91823C88.8489 9.42703 89 10.0551 89 10.8024C89 12.0903 88.4671 13.1158 87.4013 13.879C86.3514 14.6263 85.031 15 83.4403 15C82.4858 15 81.6348 14.8648 80.8871 14.5945C80.1553 14.3242 79.5906 14.0062 79.1929 13.6405C78.7952 13.2748 78.4691 12.8773 78.2146 12.448C77.9601 12.0028 77.7931 11.6371 77.7135 11.3509C77.6499 11.0647 77.6181 10.8342 77.6181 10.6593C77.6181 10.5003 77.6976 10.4208 77.8567 10.4208Z" fill="currentcolor"></path>
</svg>