<svg width="24" height="24" viewBox="0 0 24 24" fill="none" xmlns="http://www.w3.org/2000/svg">
<path fill-rule="evenodd" clip-rule="evenodd" d="M7.5 3H16.504C18.987 3 21 5.013 21 7.496V16.505C21 18.987 18.987 21 16.504 21H7.496C5.013 21 3 18.987 3 16.504V7.5C3 5.015 5.015 3 7.5 3V3Z" stroke="#98A2B3" stroke-width="1.5" stroke-linecap="round" stroke-linejoin="round"></path>
<path d="M8.12012 11.0996V16.4996" stroke="#98A2B3" stroke-width="1.5" stroke-linecap="round" stroke-linejoin="round"></path>
<path d="M11.7189 16.5006V13.3506C11.7189 12.1076 12.7259 11.1006 13.9689 11.1006V11.1006C15.2119 11.1006 16.2189 12.1076 16.2189 13.3506V16.5006" stroke="#98A2B3" stroke-width="1.5" stroke-linecap="round" stroke-linejoin="round"></path>
<path d="M8.1179 7.83848C7.9939 7.83848 7.8929 7.93948 7.8939 8.06348C7.8939 8.18748 7.9949 8.28848 8.1189 8.28848C8.2429 8.28848 8.3439 8.18748 8.3439 8.06348C8.3439 7.93848 8.2429 7.83848 8.1179 7.83848" stroke="#98A2B3" stroke-width="1.5" stroke-linecap="round" stroke-linejoin="round"></path>
</svg>