<svg width="40" height="40" viewBox="0 0 40 40" fill="none" xmlns="http://www.w3.org/2000/svg">
<path d="M27.8685 13.2132C29.3626 12.7203 30.9979 13.3384 31.7924 14.6964L34.5494 19.4107C34.9992 20.1795 35.1226 21.0964 34.8921 21.9569C34.6616 22.8173 34.0965 23.5498 33.3226 23.9909C29.083 26.4073 22.5228 30.1467 16.562 33.5442C14.8795 34.5032 12.9762 35.0071 11.0396 35.0063V35.0063" stroke="currentcolor" stroke-width="1.5" stroke-linecap="round" stroke-linejoin="round"></path>
<path fill-rule="evenodd" clip-rule="evenodd" d="M8.32837 4.99365H13.3305C15.1722 4.99365 16.6652 6.48666 16.6652 8.32837V29.1704C16.6652 32.3934 14.0524 35.0062 10.8294 35.0062V35.0062C7.60641 35.0062 4.99365 32.3934 4.99365 29.1704V8.32837C4.99365 6.48666 6.48666 4.99365 8.32837 4.99365Z" stroke="currentcolor" stroke-width="1.5" stroke-linecap="round" stroke-linejoin="round"></path>
<path d="M10.8296 35.0063V35.0063C13.611 35.0077 16.1841 33.5326 17.5883 31.1317C21.1314 25.0732 24.9273 18.5823 27.5092 14.1674C27.9589 13.3984 28.0823 12.4814 27.8517 11.6209C27.6212 10.7604 27.0559 10.028 26.2819 9.58685L21.4693 6.84381C19.8818 5.93904 17.8618 6.48032 16.9394 8.05765L16.6654 8.52623" stroke="currentcolor" stroke-width="1.5" stroke-linecap="round" stroke-linejoin="round"></path>
<path d="M11.2471 29.1711C11.2468 29.4012 11.0602 29.5875 10.8301 29.5874C10.6 29.5873 10.4135 29.4008 10.4134 29.1708C10.4133 28.9407 10.5997 28.754 10.8297 28.7538C10.9405 28.7536 11.0467 28.7975 11.125 28.8758C11.2033 28.9541 11.2472 29.0604 11.2471 29.1711" stroke="currentcolor" stroke-width="1.5" stroke-linecap="round" stroke-linejoin="round"></path>
</svg>