<svg width="25" height="24" viewBox="0 0 25 24" fill="none" xmlns="http://www.w3.org/2000/svg">
<path fill-rule="evenodd" clip-rule="evenodd" d="M22.083 6.37336C21.854 5.36936 21.176 4.57736 20.314 4.30536C18.755 3.81836 12.5 3.81836 12.5 3.81836C12.5 3.81836 6.248 3.81836 4.686 4.30536C3.827 4.57336 3.149 5.36536 2.917 6.37336C2.5 8.19536 2.5 12.0004 2.5 12.0004C2.5 12.0004 2.5 15.8054 2.917 17.6274C3.146 18.6314 3.824 19.4234 4.686 19.6954C6.248 20.1824 12.5 20.1824 12.5 20.1824C12.5 20.1824 18.755 20.1824 20.314 19.6954C21.173 19.4274 21.851 18.6354 22.083 17.6274C22.5 15.8054 22.5 12.0004 22.5 12.0004C22.5 12.0004 22.5 8.19536 22.083 6.37336Z" stroke="#060E1F" stroke-width="1.5" stroke-linecap="round" stroke-linejoin="round"></path>
<path fill-rule="evenodd" clip-rule="evenodd" d="M10.502 15L15.698 12L10.502 9V15Z" stroke="#060E1F" stroke-width="1.5" stroke-linecap="round" stroke-linejoin="round"></path>
</svg>