<svg width="22" height="18" viewBox="0 0 22 18" fill="none" xmlns="http://www.w3.org/2000/svg">
<path fill-rule="evenodd" clip-rule="evenodd" d="M20.583 3.37336C20.354 2.36936 19.676 1.57736 18.814 1.30536C17.255 0.818359 11 0.818359 11 0.818359C11 0.818359 4.748 0.818359 3.186 1.30536C2.327 1.57336 1.649 2.36536 1.417 3.37336C1 5.19536 1 9.00036 1 9.00036C1 9.00036 1 12.8054 1.417 14.6274C1.646 15.6314 2.324 16.4234 3.186 16.6954C4.748 17.1824 11 17.1824 11 17.1824C11 17.1824 17.255 17.1824 18.814 16.6954C19.673 16.4274 20.351 15.6354 20.583 14.6274C21 12.8054 21 9.00036 21 9.00036C21 9.00036 21 5.19536 20.583 3.37336Z" stroke="#98A2B3" stroke-width="1.5" stroke-linecap="round" stroke-linejoin="round"></path>
<path fill-rule="evenodd" clip-rule="evenodd" d="M9.00195 12L14.198 9L9.00195 6V12Z" stroke="#98A2B3" stroke-width="1.5" stroke-linecap="round" stroke-linejoin="round"></path>
</svg>