<svg width="40" height="40" viewBox="0 0 40 40" fill="none" xmlns="http://www.w3.org/2000/svg">
<path d="M7.32256 24.1194L5.73779 24.6342" stroke="#FCFCFD" stroke-width="1.5" stroke-linecap="round" stroke-linejoin="round"></path>
<path d="M20 35.0002V33.3335" stroke="#FCFCFD" stroke-width="1.5" stroke-linecap="round" stroke-linejoin="round"></path>
<path d="M11.192 7.87661L12.1706 9.22366" stroke="#FCFCFD" stroke-width="1.5" stroke-linecap="round" stroke-linejoin="round"></path>
<path d="M34.2622 24.6343L32.6774 24.1193" stroke="#FCFCFD" stroke-width="1.5" stroke-linecap="round" stroke-linejoin="round"></path>
<path d="M28.808 7.87661L27.8294 9.22366" stroke="#FCFCFD" stroke-width="1.5" stroke-linecap="round" stroke-linejoin="round"></path>
<path fill-rule="evenodd" clip-rule="evenodd" d="M18.5054 13.4761C18.7861 12.9071 19.3655 12.5469 20 12.5469C20.6345 12.5469 21.2139 12.9071 21.4946 13.4761L22.3426 15.1951C22.5853 15.6871 23.0546 16.0282 23.5975 16.1071L25.4944 16.3828C26.1221 16.4741 26.6435 16.9137 26.8395 17.5168C27.0356 18.12 26.8723 18.7822 26.4183 19.2251L25.0452 20.5644C24.6526 20.9473 24.4736 21.4988 24.5663 22.0393L24.8903 23.9281C24.9974 24.5533 24.7404 25.1851 24.2273 25.558C23.7141 25.9309 23.0338 25.9801 22.4723 25.6851L20.7753 24.7932C20.2899 24.5381 19.71 24.5381 19.2246 24.7932L17.5276 25.6851C16.9661 25.9801 16.2858 25.9309 15.7726 25.558C15.2595 25.1851 15.0025 24.5533 15.1097 23.9281L15.4337 22.0393C15.5264 21.4988 15.3473 20.9473 14.9547 20.5644L13.5817 19.2251C13.1277 18.7822 12.9644 18.12 13.1605 17.5168C13.3566 16.9137 13.878 16.474 14.5056 16.3828L16.4025 16.1071C16.9454 16.0282 17.4147 15.6871 17.6574 15.1951L18.5054 13.4761Z" fill="#FCFCFD" stroke="#FCFCFD" stroke-width="1.5" stroke-linecap="round" stroke-linejoin="round"></path>
</svg>