<svg width="107" height="20" viewBox="0 0 107 20" fill="none" xmlns="http://www.w3.org/2000/svg">
<path d="M21.1626 13.0757L23.09 11.9486C23.2706 12.4915 23.6275 12.9585 24.1041 13.2752C24.5806 13.5919 25.1493 13.7402 25.7198 13.6964C27.0756 13.6964 27.5493 13.1247 27.5493 12.4713C27.5493 11.6219 26.7816 11.2952 25.0991 10.8052C23.4167 10.3152 21.6526 9.58014 21.6526 7.39135C21.6526 5.20256 23.4494 3.99383 25.4095 3.99383C26.2673 3.97023 27.113 4.20119 27.8397 4.65757C28.5664 5.11399 29.1417 5.77536 29.493 6.5583L27.5983 7.6527C27.435 7.2082 27.1354 6.82668 26.7423 6.56267C26.3492 6.29863 25.8827 6.16563 25.4095 6.18262C24.4621 6.18262 23.9067 6.67264 23.9067 7.32601C23.9067 7.97938 24.3478 8.40407 26.0792 8.92677C27.8923 9.49846 29.8197 10.1028 29.8197 12.4386C29.8197 14.5784 28.1046 15.8851 25.6708 15.8851C23.3187 15.9056 21.7955 14.7744 21.1626 13.0757Z" fill="#475467"/>
<path d="M31.1873 3.74902H33.2944V15.673H31.1873V3.74902Z" fill="#475467"/>
<path d="M34.6993 11.5891C34.6984 10.7341 34.9512 9.8981 35.4261 9.18691C35.9006 8.47567 36.5756 7.92129 37.3654 7.59391C38.1552 7.26654 39.0246 7.18086 39.8629 7.34776C40.7017 7.51469 41.4718 7.92664 42.0762 8.53154C42.6806 9.13639 43.0918 9.90696 43.2576 10.7457C43.4238 11.5844 43.3372 12.4536 43.0093 13.2431C42.681 14.0327 42.126 14.7071 41.4143 15.181C40.7029 15.6549 39.8666 15.907 39.0115 15.9055C38.4431 15.9115 37.8795 15.8039 37.3532 15.5891C36.8272 15.3742 36.349 15.0564 35.9476 14.6544C35.5458 14.2523 35.2285 13.7741 35.0141 13.2477C34.7997 12.7213 34.6927 12.1574 34.6993 11.5891ZM41.2329 11.5891C41.2211 11.1545 41.081 10.7331 40.8311 10.3775C40.5812 10.0218 40.2317 9.74766 39.827 9.58926C39.4219 9.43086 38.9796 9.39521 38.5545 9.48672C38.1294 9.57828 37.7407 9.79295 37.4373 10.104C37.1335 10.415 36.9281 10.8086 36.8464 11.2356C36.7651 11.6627 36.8109 12.1043 36.9791 12.5053C37.1469 12.9063 37.4291 13.249 37.7905 13.4906C38.1523 13.7321 38.5766 13.8619 39.0115 13.8637C39.3096 13.8707 39.6061 13.8163 39.8825 13.7038C40.1586 13.5913 40.4089 13.4231 40.6171 13.2097C40.8254 12.9964 40.9879 12.7423 41.0937 12.4635C41.1995 12.1847 41.2472 11.8871 41.2329 11.5891Z" fill="#475467"/>
<path d="M47.4811 9.53098V12.9285C47.4811 13.8105 48.1181 13.8269 49.3268 13.7452V15.6563C46.3703 15.983 45.374 15.1173 45.374 12.9122V9.53098H43.9529V7.48921H45.374V5.85578L47.4811 5.21875V7.50554H49.3268V9.54732L47.4811 9.53098Z" fill="#475467"/>
<path d="M54.782 13.99C55.1291 14.0034 55.4749 13.9368 55.7918 13.7951C56.1091 13.6535 56.3897 13.4407 56.6114 13.1732L58.3061 14.1533C57.9079 14.7206 57.3738 15.1785 56.7519 15.4846C56.1304 15.7908 55.4415 15.9354 54.7493 15.9051C52.0051 15.9051 50.2574 14.0267 50.2574 11.5929C50.2366 11.0194 50.3346 10.448 50.5449 9.91411C50.7556 9.38027 51.0737 8.89559 51.48 8.49042C51.8863 8.08525 52.3718 7.76833 52.9064 7.55945C53.4409 7.35058 54.0126 7.25429 54.586 7.27659C56.9993 7.27659 58.7144 9.18769 58.7144 11.5888C58.7132 11.8792 58.6858 12.169 58.6328 12.4545H52.4788C52.7729 13.5326 53.6712 13.99 54.782 13.99ZM56.6114 10.8211C56.5277 10.3473 56.2741 9.92016 55.8984 9.61957C55.5227 9.31898 55.0502 9.16543 54.5696 9.18769C54.0755 9.15412 53.5859 9.30133 53.1922 9.6018C52.7986 9.90231 52.5278 10.3357 52.4298 10.8211H56.6114Z" fill="#475467"/>
<path d="M68.3846 7.50565V15.2644C68.3846 17.9432 66.2775 19.152 64.1214 19.152C62.3736 19.152 60.9689 18.4822 60.2502 17.1592L62.047 16.1301C62.39 16.7672 62.929 17.2735 64.1867 17.2735C65.5098 17.2735 66.3265 16.5548 66.3265 15.2644V14.3987C66.0219 14.7983 65.625 15.1183 65.1701 15.3316C64.7152 15.5449 64.2153 15.6451 63.713 15.6238C62.604 15.6238 61.5406 15.1832 60.7561 14.399C59.9721 13.6148 59.5315 12.5512 59.5315 11.4422C59.5315 10.3332 59.9721 9.26959 60.7561 8.48538C61.5406 7.70118 62.604 7.26064 63.713 7.26064C64.2153 7.23924 64.7152 7.33945 65.1701 7.55278C65.625 7.76606 66.0219 8.08609 66.3265 8.48571V7.50565H68.3846ZM66.3429 11.4585C66.3527 11.0043 66.2269 10.5574 65.9815 10.175C65.736 9.79253 65.3824 9.49181 64.9655 9.3112C64.549 9.13058 64.0875 9.07823 63.6408 9.16088C63.194 9.24349 62.782 9.45731 62.4574 9.77509C62.1323 10.0929 61.9098 10.5002 61.8175 10.9451C61.7252 11.3899 61.7676 11.8522 61.9392 12.273C62.1107 12.6936 62.4035 13.0537 62.7808 13.3072C63.1577 13.5607 63.6016 13.6962 64.0561 13.6963C64.3546 13.7087 64.6527 13.6596 64.9316 13.552C65.2105 13.4443 65.4645 13.2805 65.6772 13.0706C65.8904 12.8608 66.0578 12.6094 66.1693 12.332C66.2812 12.0547 66.3347 11.7574 66.3265 11.4585H66.3429Z" fill="#475467"/>
<path d="M74.8117 7.33062V9.68275C73.7214 9.55208 72.3329 10.0421 72.3329 11.7572V15.6611H70.2258V7.49397H72.3329V8.89871C72.5298 8.41056 72.8748 7.99657 73.3195 7.71521C73.7642 7.43382 74.2861 7.2993 74.8117 7.33062Z" fill="#475467"/>
<path d="M84.208 7.50577V15.6729H82.1009V14.7092C81.7804 15.1013 81.3728 15.4137 80.9106 15.6213C80.4487 15.829 79.9448 15.9263 79.4385 15.9056C77.266 15.9056 75.4692 14.0272 75.4692 11.5934C75.4692 9.15961 77.266 7.28117 79.4385 7.28117C79.9444 7.26002 80.4483 7.35672 80.9102 7.56367C81.3724 7.77059 81.78 8.08208 82.1009 8.47357V7.50577H84.208ZM82.1009 11.5893C82.0928 11.1441 81.9535 10.7111 81.7007 10.3446C81.4476 9.97816 81.0919 9.69455 80.6782 9.52933C80.265 9.36411 79.8117 9.32462 79.376 9.41581C78.9399 9.507 78.5405 9.72481 78.2281 10.0419C77.9153 10.3591 77.7034 10.7615 77.6184 11.1986C77.5335 11.6358 77.5792 12.0883 77.7503 12.4994C77.9214 12.9106 78.2101 13.2621 78.5801 13.5099C78.9501 13.7577 79.385 13.8908 79.8305 13.8924C80.1343 13.903 80.4369 13.8503 80.7195 13.7379C81.0016 13.6255 81.2577 13.4556 81.4712 13.2392C81.6844 13.0227 81.8506 12.7643 81.9592 12.4803C82.0674 12.1963 82.1156 11.8929 82.1009 11.5893Z" fill="#475467"/>
<path d="M88.8673 9.53098V12.9285C88.8673 13.8105 89.5043 13.8269 90.7131 13.7452V15.6563C87.7566 15.983 86.7602 15.1173 86.7602 12.9122V9.53098H85.3391V7.48921H86.7602V5.85578L88.8673 5.21875V7.50554H90.7131V9.54732L88.8673 9.53098Z" fill="#475467"/>
<path d="M91.6238 11.5891C91.623 10.7337 91.8762 9.89738 92.3511 9.18602C92.826 8.47463 93.5014 7.92028 94.292 7.59311C95.0822 7.26598 95.952 7.18079 96.7907 7.34838C97.6295 7.51593 98.3997 7.92874 99.0036 8.53441C99.6076 9.14012 100.018 9.91146 100.183 10.7507C100.348 11.59 100.261 12.4594 99.9314 13.2488C99.6019 14.0382 99.0457 14.712 98.3331 15.185C97.6201 15.6579 96.7834 15.9087 95.9279 15.9054C95.3603 15.9104 94.7971 15.802 94.272 15.5867C93.7469 15.3713 93.2699 15.0534 92.8693 14.6514C92.4683 14.2495 92.1518 13.7716 91.9378 13.2458C91.7239 12.7199 91.6173 12.1567 91.6238 11.5891ZM98.1575 11.5891C98.1457 11.1549 98.006 10.7338 97.7561 10.3783C97.5066 10.0228 97.1579 9.74865 96.7536 9.59001C96.3489 9.43136 95.9067 9.39522 95.482 9.48612C95.0573 9.57698 94.6685 9.79088 94.3647 10.1011C94.0605 10.4113 93.8543 10.8041 93.7718 11.2307C93.6897 11.6572 93.7346 12.0985 93.9012 12.4997C94.0678 12.9008 94.3488 13.2441 94.7094 13.4866C95.0695 13.7291 95.4934 13.8603 95.9279 13.8637C96.2268 13.8719 96.5241 13.8183 96.8014 13.7063C97.0786 13.5943 97.3298 13.4263 97.5388 13.2128C97.7483 12.9993 97.9113 12.7449 98.0174 12.4655C98.124 12.1861 98.1718 11.8877 98.1575 11.5891Z" fill="#475467"/>
<path d="M106.226 7.33069V9.68282C105.132 9.55215 103.744 10.0422 103.744 11.7573V15.6611H101.636V7.49404H103.744V8.89878C103.941 8.4103 104.287 7.99619 104.733 7.71483C105.178 7.43348 105.7 7.29913 106.226 7.33069Z" fill="#475467"/>
<path d="M15.531 2.02142L15.3023 1.93975C14.5292 1.66975 13.7394 1.45013 12.9379 1.2823C9.3885 0.524596 5.69881 0.762013 2.27577 1.96834H2.2186L2.09201 2.02142C1.71412 2.18897 1.39298 2.46257 1.16757 2.80906C0.94216 3.15555 0.822103 3.55998 0.822021 3.97336C0.822021 4.02645 0.822021 4.16937 0.822021 4.18571C0.887685 4.9548 1.10436 5.7034 1.45963 6.38866C1.81486 7.07396 2.30174 7.68245 2.89238 8.17942L3.03531 8.29784C3.08431 8.34685 3.1374 8.39177 3.19048 8.43669L3.23132 8.47344L3.32524 8.53877L3.42325 8.6082L3.57842 8.72662L3.5335 8.68987C4.69123 9.51997 5.92124 10.2443 7.2087 10.8542C7.67423 11.0624 8.61753 11.4177 9.0953 11.5892C9.27498 11.6545 9.45874 11.7076 9.6425 11.7689C9.18139 12.4705 8.67531 13.1417 8.1275 13.778C7.63339 14.3531 7.10571 14.8985 6.54717 15.4114C6.46925 15.4824 6.40628 15.5682 6.36198 15.6639C6.31763 15.7595 6.29284 15.863 6.28904 15.9684C6.28525 16.0737 6.30252 16.1788 6.3398 16.2774C6.37713 16.3759 6.43372 16.4661 6.50633 16.5425C6.90268 16.9893 7.3573 17.3807 7.85799 17.7064C8.16883 17.8627 8.51307 17.9411 8.86095 17.9347C9.20887 17.9283 9.54997 17.8373 9.85484 17.6696C11.3943 16.6814 14.943 12.3079 14.996 10.5724C14.943 8.53061 13.0727 8.49794 11.5618 8.07733C11.0922 7.94258 10.6348 7.7874 10.1774 7.61997L10.1407 7.59547C10.0059 7.5383 9.39749 7.31779 9.25865 7.26062C8.3697 6.88036 7.50986 6.43542 6.68601 5.92938C6.48183 5.80279 6.11839 5.55778 5.81213 5.34952L6.08572 5.30868C9.29037 4.86027 12.5561 5.20521 15.5963 6.31324C15.7071 6.35023 15.8244 6.36306 15.9405 6.35089C16.0567 6.33868 16.1688 6.30172 16.2694 6.24251C16.37 6.1833 16.4568 6.10322 16.5238 6.00762C16.5909 5.91207 16.6366 5.8032 16.658 5.68845C16.7356 5.18618 16.7969 4.67982 16.8377 4.17346V4.14079C16.8377 4.09178 16.8377 4.04278 16.8377 3.99378C16.8391 3.57272 16.7157 3.16069 16.4831 2.80967C16.2505 2.45865 15.9193 2.18436 15.531 2.02142ZM9.13614 7.51789C9.27498 7.57506 9.88343 7.79557 10.0182 7.85274C10.1821 7.94523 10.3308 8.06227 10.4592 8.19984C10.6541 8.52048 10.7605 8.88702 10.7677 9.26218C10.7749 9.63733 10.6825 10.0077 10.5 10.3355C10.2795 10.7439 10.0386 11.1522 9.78951 11.5279L9.18106 11.3278C8.68695 11.1482 7.75998 10.797 7.31487 10.601C5.96755 9.9652 4.68245 9.20509 3.47633 8.33051L3.42325 8.28968L3.41916 8.26926H3.39875C3.12621 8.04756 2.92228 7.75302 2.81071 7.41988C2.79291 7.31187 2.78335 7.20264 2.78213 7.0932C2.78041 6.80036 2.87683 6.51542 3.05593 6.28376C3.23504 6.0521 3.48654 5.88708 3.77035 5.81504C4.31624 5.66497 4.86964 5.54369 5.42827 5.45161C5.70595 5.63945 6.28582 6.03964 6.55533 6.20707C7.38323 6.70497 8.24572 7.14302 9.13614 7.51789Z" fill="#475467"/>
</svg>
