<svg width="36" height="26" viewBox="0 0 36 26" fill="none" xmlns="http://www.w3.org/2000/svg">
<path d="M0.803955 5.7293V4.64678C0.803955 3.6591 1.36357 2.8916 2.5867 2.8916C3.36341 2.8916 3.86796 3.25245 3.86796 3.46954C3.86796 3.58268 3.77318 3.69581 3.65087 3.69581C3.48878 3.69581 3.31752 3.32582 2.59588 3.32582C1.73357 3.32582 1.26879 3.83036 1.26879 4.64372V5.72625C1.26879 6.54266 1.72439 7.04415 2.60812 7.04415C3.37565 7.04415 3.53767 6.66498 3.71811 6.66498C3.83125 6.66498 3.92602 6.78729 3.92602 6.89125C3.92602 7.11758 3.4123 7.4784 2.5867 7.4784C1.37275 7.4784 0.803955 6.72922 0.803955 5.72319V5.7293Z" fill="#475467"/>
<path d="M7.22875 5.3411H6.76391C5.83436 5.3411 4.96899 5.4267 4.96899 6.21565C4.96899 6.80274 5.36646 7.06878 5.88019 7.06878C6.54376 7.06878 7.22875 6.46027 7.22875 6.04438V5.3411ZM7.69353 4.71424V7.21862C7.69353 7.33176 7.59875 7.42654 7.4642 7.42654C7.34188 7.42654 7.23787 7.33176 7.23787 7.21862V6.76296C6.91376 7.13296 6.4398 7.48461 5.81294 7.48461C5.08212 7.48461 4.50415 7.08713 4.50415 6.23088C4.50415 5.21573 5.39705 4.95886 6.71502 4.95886H7.22875V4.71118C7.22875 4.0476 6.8954 3.31679 6.03309 3.31679C5.42459 3.31679 5.17078 3.58283 5.03623 3.58283C4.90474 3.58283 4.82832 3.42074 4.82832 3.32596C4.82832 3.11801 5.46436 2.88867 6.05145 2.88867C7.2654 2.88867 7.69353 3.77238 7.69353 4.71118V4.71424Z" fill="#475467"/>
<path d="M11.0905 6.33781C11.0905 4.96177 8.72676 5.72013 8.72676 4.14529C8.72676 3.56738 9.14571 2.8916 10.1701 2.8916C10.7572 2.8916 11.3841 3.10871 11.3841 3.3197C11.3841 3.4053 11.2893 3.56738 11.1761 3.56738C11.0446 3.56738 10.748 3.31052 10.1793 3.31052C9.4301 3.31052 9.16406 3.78447 9.16406 4.13618C9.16406 5.31342 11.537 4.57342 11.537 6.31028C11.537 7.0411 10.9957 7.48758 10.057 7.48758C9.18242 7.48758 8.6228 7.09922 8.6228 6.84236C8.6228 6.74758 8.70846 6.62527 8.79406 6.62527C8.98362 6.62527 9.17324 7.07169 10.0478 7.07169C10.8061 7.07169 11.0905 6.72922 11.0905 6.34087V6.33781Z" fill="#475467"/>
<path d="M12.9709 3.13982V7.22205C12.9709 7.32601 12.867 7.42997 12.7324 7.42997C12.6009 7.42997 12.5061 7.32601 12.5061 7.22205V3.13982C12.5061 3.02667 12.6009 2.95023 12.7324 2.95023C12.867 2.95023 12.9709 3.02667 12.9709 3.13982ZM13.084 1.18584C13.084 1.37543 12.922 1.5375 12.7324 1.5375C12.5245 1.5375 12.3716 1.37543 12.3716 1.18584C12.3716 1.00543 12.5245 0.852539 12.7324 0.852539C12.922 0.852539 13.084 1.00543 13.084 1.18584Z" fill="#475467"/>
<path d="M14.6871 7.22154C14.6871 7.32549 14.5831 7.42945 14.4486 7.42945C14.314 7.42945 14.2192 7.32549 14.2192 7.22154V3.13929C14.2192 3.02615 14.314 2.9497 14.4486 2.9497C14.5709 2.9497 14.6748 3.02615 14.6748 3.13929V3.61327C14.8736 3.24326 15.3109 2.8916 15.9469 2.8916C16.8674 2.8916 17.6471 3.67134 17.6471 4.62849V7.21848C17.6471 7.3622 17.5247 7.42639 17.4086 7.42639C17.2954 7.42639 17.1823 7.35914 17.1823 7.21848V4.62849C17.1823 3.97409 16.6044 3.32887 15.9102 3.32887C15.3017 3.32887 14.6871 3.81201 14.6871 4.62849V7.21848V7.22154Z" fill="#475467"/>
<path d="M21.6924 4.62849C21.6924 3.97409 21.1236 3.32887 20.4112 3.32887C19.6987 3.32887 19.1391 3.97409 19.1391 4.62849V5.7293C19.1391 6.402 19.6987 7.04721 20.4112 7.04721C21.1145 7.04721 21.6924 6.402 21.6924 5.7293V4.62849ZM22.1572 4.62849V5.7293C22.1572 6.64968 21.3408 7.48452 20.4112 7.48452C19.4816 7.48452 18.6743 6.65886 18.6743 5.7293V4.62849C18.6743 3.69887 19.4633 2.8916 20.4112 2.8916C21.3408 2.8916 22.1572 3.67134 22.1572 4.62849Z" fill="#475467"/>
<path d="M3.53767 13.729C3.53767 12.8453 4.29296 12.3132 5.61705 12.3132C6.50078 12.3132 7.01756 12.5425 7.40592 12.7382C7.4701 12.778 7.53429 12.8147 7.60771 12.8391C7.73003 12.885 7.86152 12.9125 7.99913 12.9125C8.60151 12.9125 9.09077 12.4233 9.09077 11.8209C9.09077 11.4662 8.92256 11.1512 8.65964 10.9524C8.62599 10.928 8.59234 10.9035 8.55562 10.8821C7.77592 10.3959 6.3754 10.2705 5.62011 10.2705C3.50408 10.2705 1.14954 11.2093 1.14954 13.9491C1.14954 18.3096 7.05422 17.4626 7.05422 20.2208C7.05422 21.3247 6.09713 21.8201 4.99325 21.8201C3.84043 21.8201 3.20744 21.2849 2.71513 20.8721C2.66007 20.8171 2.602 20.7681 2.53775 20.7254C2.36043 20.6061 2.14946 20.5388 1.92007 20.5388C1.58372 20.5388 1.28097 20.6886 1.07612 20.9241C0.907913 21.1198 0.803955 21.3736 0.803955 21.6519C0.803955 21.8415 0.849845 22.0188 0.932387 22.1748C1.37581 23.0952 3.01177 23.9728 5.06355 23.9728C7.60159 23.9728 9.44241 22.6121 9.44241 19.9823C9.44241 15.2182 3.53767 16.0102 3.53767 13.729Z" fill="#475467"/>
<path d="M35.0332 22.759C35.0332 22.181 34.5623 21.7101 33.9843 21.7101H29.8288V11.555C29.8288 10.8945 29.2936 10.3594 28.6331 10.3594C27.9726 10.3594 27.4375 10.8945 27.4375 11.555V22.6091C27.4375 23.0403 27.6638 23.4165 28.0062 23.6274C28.153 23.7375 28.3212 23.8047 28.4863 23.8047H33.9874C34.5654 23.8047 35.0363 23.3369 35.0363 22.7559L35.0332 22.759Z" fill="#475467"/>
<path d="M18.0872 12.7721C15.6776 12.7721 13.7205 14.7322 13.7205 17.1387C13.7205 19.5483 15.6806 21.5054 18.0872 21.5054C20.4968 21.5054 22.4538 19.5453 22.4538 17.1387C22.4538 14.7292 20.4937 12.7721 18.0872 12.7721ZM18.0872 21.6674C15.592 21.6674 13.5615 19.637 13.5615 17.1418C13.5615 14.6466 15.592 12.6162 18.0872 12.6162C20.5824 12.6162 22.6128 14.6466 22.6128 17.1418C22.6128 19.637 20.5824 21.6674 18.0872 21.6674Z" fill="#475467"/>
<path d="M18.7898 10.8268C18.7806 10.8268 18.7715 10.8268 18.7653 10.8268C18.5421 10.8024 18.3127 10.7902 18.0895 10.7902C17.8663 10.7902 17.637 10.8024 17.4138 10.8268C17.4046 10.8268 17.3954 10.8268 17.3893 10.8268C17.3098 10.8268 17.2333 10.7871 17.1905 10.7168C17.1416 10.6403 17.1386 10.5456 17.1844 10.466L17.8847 9.25207C17.9275 9.1787 18.007 9.13281 18.0926 9.13281C18.1783 9.13281 18.2577 9.1787 18.3006 9.25207L19.0008 10.466C19.0467 10.5425 19.0436 10.6403 18.9947 10.7168C18.9488 10.7841 18.8754 10.8268 18.7959 10.8268H18.7898Z" fill="#475467"/>
<path d="M18.0867 25.1472C18.0011 25.1472 17.9216 25.1013 17.8788 25.028L17.1785 23.8139C17.1327 23.7375 17.1358 23.6397 17.1847 23.5632C17.2275 23.496 17.3039 23.4531 17.3835 23.4531C17.3926 23.4531 17.3988 23.4531 17.4079 23.4531C17.6311 23.4776 17.8605 23.4898 18.0837 23.4898C18.3069 23.4898 18.5362 23.4776 18.7595 23.4531C18.7687 23.4531 18.7778 23.4531 18.7839 23.4531C18.8634 23.4531 18.9399 23.4929 18.9827 23.5632C19.0317 23.6397 19.0346 23.7345 18.9888 23.8139L18.2885 25.028C18.2458 25.1013 18.1662 25.1472 18.0806 25.1472H18.0867Z" fill="#475467"/>
<path d="M24.6397 18.0809C24.5938 18.0809 24.5479 18.0687 24.5082 18.0411C24.4317 17.9923 24.392 17.9066 24.4012 17.8149C24.4256 17.5917 24.4379 17.3623 24.4379 17.1391C24.4379 16.9158 24.4256 16.6865 24.4012 16.4633C24.392 16.3746 24.4317 16.2859 24.5082 16.237C24.5479 16.2126 24.5938 16.1973 24.6397 16.1973C24.6794 16.1973 24.7223 16.2095 24.759 16.2309L25.9729 16.9311C26.0463 16.974 26.0922 17.0535 26.0922 17.1391C26.0922 17.2247 26.0463 17.3042 25.9729 17.347L24.759 18.0473C24.7223 18.0687 24.6794 18.0779 24.6397 18.0779V18.0809Z" fill="#475467"/>
<path d="M11.5338 18.0808C11.494 18.0808 11.4512 18.0716 11.4145 18.0502L10.2006 17.35C10.1271 17.3071 10.0813 17.2276 10.0813 17.142C10.0813 17.0564 10.1271 16.9769 10.2006 16.9341L11.4145 16.2338C11.4512 16.2124 11.494 16.2002 11.5338 16.2002C11.5796 16.2002 11.6255 16.2124 11.6652 16.24C11.7417 16.2889 11.7814 16.3745 11.7723 16.4662C11.7478 16.6894 11.7356 16.9188 11.7356 17.142C11.7356 17.3653 11.7478 17.5946 11.7723 17.8178C11.7814 17.9065 11.7417 17.9952 11.6652 18.0441C11.6255 18.0685 11.5796 18.0838 11.5338 18.0838V18.0808Z" fill="#475467"/>
<path d="M23.2177 13.24C23.1474 13.24 23.0771 13.2094 23.0312 13.1513C22.7468 12.7997 22.4257 12.4786 22.0741 12.1942C22.0038 12.1392 21.9732 12.0474 21.9916 11.9588C22.0099 11.8701 22.0772 11.7997 22.1628 11.7783L23.5174 11.4145C23.5388 11.4083 23.5602 11.4053 23.5786 11.4053C23.6398 11.4053 23.7009 11.4297 23.7468 11.4756C23.8079 11.5368 23.8293 11.6255 23.8079 11.705L23.444 13.0596C23.4195 13.1452 23.3523 13.2125 23.2636 13.2309C23.2483 13.2339 23.23 13.237 23.2147 13.237L23.2177 13.24Z" fill="#475467"/>
<path d="M12.5951 22.8727C12.5339 22.8727 12.4728 22.8482 12.4269 22.8023C12.3657 22.7412 12.3443 22.6556 12.3658 22.573L12.7296 21.2183C12.754 21.1327 12.8244 21.0654 12.91 21.0471C12.9253 21.0441 12.9437 21.041 12.959 21.041C13.0293 21.041 13.0996 21.0715 13.1455 21.1297C13.4299 21.4813 13.7509 21.8024 14.1026 22.0868C14.1729 22.1418 14.2035 22.2336 14.1852 22.3222C14.1668 22.4109 14.0996 22.4812 14.0139 22.5027L12.6593 22.8665C12.6379 22.8727 12.6195 22.8757 12.5981 22.8757L12.5951 22.8727Z" fill="#475467"/>
<path d="M23.582 22.8718C23.5606 22.8718 23.5392 22.8687 23.5208 22.8626L22.1662 22.4987C22.0806 22.4743 22.0133 22.404 21.9949 22.3183C21.9767 22.2296 22.0072 22.141 22.0776 22.0829C22.4292 21.7985 22.7502 21.4774 23.0346 21.1258C23.0805 21.0676 23.1478 21.0371 23.2212 21.0371C23.2365 21.0371 23.2548 21.0402 23.2701 21.0432C23.3588 21.0616 23.4291 21.1288 23.4505 21.2144L23.8144 22.5691C23.8358 22.6517 23.8144 22.7403 23.7532 22.7984C23.7074 22.8443 23.6462 22.8687 23.5851 22.8687L23.582 22.8718Z" fill="#475467"/>
<path d="M12.959 13.2398C12.9437 13.2398 12.9254 13.2368 12.9101 13.2337C12.8214 13.2154 12.7511 13.1481 12.7297 13.0625L12.3658 11.7078C12.3444 11.6253 12.3689 11.5366 12.4269 11.4785C12.4728 11.4327 12.534 11.4082 12.5951 11.4082C12.6166 11.4082 12.638 11.4113 12.6563 11.4174L14.011 11.7813C14.0966 11.8057 14.1639 11.876 14.1822 11.9616C14.2005 12.0504 14.17 12.1421 14.0996 12.1971C13.748 12.4815 13.4269 12.8026 13.1425 13.1542C13.0966 13.2123 13.0294 13.2429 12.956 13.2429L12.959 13.2398Z" fill="#475467"/>
<path d="M14.9315 11.5921C14.8856 11.5921 14.8366 11.5768 14.7969 11.5493C14.7235 11.4973 14.6838 11.4117 14.696 11.32L14.8795 9.92862C14.8917 9.84302 14.9468 9.77271 15.0263 9.73906C15.0569 9.72682 15.0874 9.7207 15.118 9.7207C15.17 9.7207 15.2219 9.73906 15.2648 9.76965L16.3778 10.6228C16.4482 10.6778 16.4848 10.7665 16.4665 10.8552C16.4513 10.9438 16.3839 11.0142 16.2983 11.0417C15.8672 11.167 15.4452 11.3414 15.0507 11.5585C15.014 11.5768 14.9743 11.5891 14.9376 11.5891L14.9315 11.5921Z" fill="#475467"/>
<path d="M21.0619 24.5539C21.0099 24.5539 20.958 24.5355 20.9151 24.5049L19.8021 23.6518C19.7318 23.5968 19.6951 23.5081 19.7134 23.4194C19.7287 23.3308 19.796 23.2604 19.8816 23.2329C20.3128 23.1075 20.7317 22.9332 21.1292 22.7161C21.1659 22.6978 21.2057 22.6855 21.2423 22.6855C21.2882 22.6855 21.3372 22.7008 21.3769 22.7283C21.4503 22.7803 21.4901 22.8659 21.4778 22.9577L21.2943 24.349C21.2821 24.4346 21.2271 24.5049 21.1475 24.5386C21.1169 24.5508 21.0864 24.557 21.0558 24.557L21.0619 24.5539Z" fill="#475467"/>
<path d="M24.4103 15.5186C24.395 15.5186 24.3797 15.5186 24.3675 15.5156C24.2788 15.5003 24.2085 15.433 24.1809 15.3474C24.0556 14.9162 23.8813 14.4943 23.6642 14.0998C23.6214 14.0203 23.6244 13.9255 23.6764 13.8491C23.7223 13.7848 23.7956 13.7451 23.8721 13.7451C23.8813 13.7451 23.8935 13.7451 23.9027 13.7482L25.2909 13.9316C25.3766 13.9439 25.4469 13.9989 25.4806 14.0784C25.5141 14.1579 25.502 14.2466 25.45 14.3139L24.5968 15.4269C24.5509 15.485 24.4806 15.5217 24.4072 15.5217L24.4103 15.5186Z" fill="#475467"/>
<path d="M12.3019 20.5335C12.2928 20.5335 12.2805 20.5335 12.2713 20.5304L10.8801 20.3469C10.7944 20.3347 10.7241 20.2797 10.6905 20.2001C10.6568 20.1206 10.669 20.032 10.721 19.9647L11.5742 18.8516C11.6201 18.7935 11.6904 18.7568 11.7637 18.7568C11.779 18.7568 11.7943 18.7568 11.8066 18.7599C11.8952 18.7752 11.9656 18.8424 11.9931 18.9281C12.1185 19.3592 12.2928 19.7812 12.5099 20.1757C12.5527 20.2552 12.5496 20.35 12.4977 20.4264C12.4518 20.4906 12.3784 20.5304 12.3019 20.5304V20.5335Z" fill="#475467"/>
<path d="M21.2433 11.592C21.2035 11.592 21.1637 11.5828 21.1301 11.5614C20.7357 11.3443 20.3137 11.17 19.8825 11.0446C19.7969 11.0202 19.7327 10.9468 19.7143 10.8581C19.699 10.7694 19.7327 10.6807 19.803 10.6257L20.916 9.77252C20.9589 9.73893 21.0108 9.72363 21.0628 9.72363C21.0934 9.72363 21.124 9.72975 21.1545 9.74199C21.2341 9.77558 21.2891 9.84595 21.3013 9.93155L21.4848 11.3229C21.4971 11.4115 21.4573 11.5003 21.3839 11.5522C21.3442 11.5797 21.2952 11.595 21.2494 11.595L21.2433 11.592Z" fill="#475467"/>
<path d="M15.1146 24.5535C15.084 24.5535 15.0534 24.5474 15.0228 24.5352C14.9434 24.5015 14.8883 24.4312 14.8761 24.3456L14.6926 22.9543C14.6804 22.8656 14.7202 22.7769 14.7935 22.725C14.8333 22.6974 14.8822 22.6821 14.9281 22.6821C14.9678 22.6821 15.0076 22.6913 15.0412 22.7127C15.4357 22.9298 15.8577 23.1041 16.2888 23.2295C16.3744 23.2539 16.4387 23.3273 16.457 23.416C16.4723 23.5047 16.4387 23.5934 16.3683 23.6484L15.2552 24.5015C15.2125 24.5352 15.1605 24.5505 15.1085 24.5505L15.1146 24.5535Z" fill="#475467"/>
<path d="M23.8758 20.5328C23.7963 20.5328 23.7229 20.4931 23.6801 20.4289C23.6281 20.3555 23.625 20.2576 23.6679 20.1781C23.885 19.7837 24.0593 19.3617 24.1846 18.9305C24.2091 18.8449 24.2825 18.7807 24.3711 18.7623C24.3864 18.7593 24.4017 18.7593 24.414 18.7593C24.4873 18.7593 24.5577 18.7929 24.6035 18.8541L25.4567 19.9672C25.5087 20.0344 25.5209 20.1261 25.4873 20.2026C25.4536 20.2821 25.3833 20.3372 25.2977 20.3493L23.9064 20.5328C23.8972 20.5328 23.885 20.5359 23.8758 20.5359V20.5328Z" fill="#475467"/>
<path d="M11.7662 15.5178C11.6928 15.5178 11.6225 15.4842 11.5766 15.4231L10.7234 14.31C10.6715 14.2427 10.6592 14.151 10.6929 14.0746C10.7265 13.995 10.7969 13.94 10.8825 13.9278L12.2738 13.7443C12.283 13.7443 12.2952 13.7412 12.3044 13.7412C12.3839 13.7412 12.4572 13.781 12.5001 13.8452C12.5521 13.9186 12.5551 14.0164 12.5123 14.0959C12.2952 14.4904 12.1209 14.9124 11.9955 15.3435C11.971 15.4292 11.8977 15.4934 11.809 15.5117C11.7937 15.5148 11.7784 15.5148 11.7662 15.5148V15.5178Z" fill="#475467"/>
</svg>
