<svg width="51" height="20" viewBox="0 0 51 20" fill="none" xmlns="http://www.w3.org/2000/svg">
<path d="M0.15332 11.5019V0.265625L9.73153 8.66074V19.7322L7.10907 17.4929L7.13961 9.49276L6.13611 8.56875V16.7146L3.72391 14.669V6.73597L2.80638 5.91157V13.8849L0.15332 11.5019Z" fill="#475467"/>
<path d="M24.259 11.0512H25.0331L25.035 6.03027L23.0491 7.76529L21.0554 6.03027V11.0512H21.8831L21.862 7.69432L23.0586 8.74301L24.259 7.69432V11.0512Z" fill="#475467"/>
<path d="M33.885 7.13848V6.29688H31.1421V7.13848H32.0424V11.0839H32.9847V7.13848H33.885Z" fill="#475467"/>
<path fill-rule="evenodd" clip-rule="evenodd" d="M35.4597 11.0815L35.8267 10.0827H37.6025L37.979 11.0815H38.9863L36.9334 6.29443H34.9149L34.9054 7.06322H36.1173L34.5078 11.0815H35.4597ZM36.727 7.64988L37.3042 9.1893H36.165L36.727 7.64988Z" fill="#475467"/>
<path fill-rule="evenodd" clip-rule="evenodd" d="M40.0648 8.99011L40.0552 11.0817L41.7831 11.1123C42.0622 11.1123 42.2954 11.0951 42.4846 11.0606C42.6605 11.0088 42.8134 10.9398 42.9434 10.8497C43.1364 10.7098 43.276 10.5429 43.362 10.3474C43.469 10.1385 43.5206 9.91031 43.5206 9.66495C43.5206 9.39267 43.4499 9.15498 43.3104 8.94599C43.1708 8.74659 42.9854 8.61435 42.7541 8.54534C42.9147 8.46288 43.0389 8.34207 43.123 8.18107C43.2091 8.01621 43.2512 7.54839 43.2512 7.33179C43.2512 6.95983 43.1192 6.65314 42.8516 6.4192C42.5707 6.17193 42.2247 6.06071 41.8157 6.04922L40.7663 6.01855H40.0552L40.0648 8.23281H39.4149L39.3843 8.99011H40.0648ZM41.0625 8.22132H40.9459L40.9478 6.85635H41.0969C41.267 6.85635 41.4792 6.87356 41.7334 6.90809C41.9857 6.94263 42.1348 6.98091 42.1846 7.01735C42.2973 7.09981 42.3566 7.22056 42.3566 7.39311C42.3566 7.59442 42.2935 8.01811 42.1731 8.11397C42.0851 8.18298 41.7162 8.22132 41.0625 8.22132ZM41.7736 10.2726L40.9459 10.242V8.9997L41.7736 9.03417C42.0545 9.04566 42.261 9.09937 42.3929 9.19904C42.5325 9.32175 42.6032 9.48853 42.6032 9.69752C42.6032 9.88924 42.5325 10.0368 42.3929 10.1385C42.261 10.2267 42.0545 10.2726 41.7736 10.2726Z" fill="#475467"/>
<path d="M44.4011 11.0839H47.3964V10.2423H45.3225V9.06325H46.9682V8.23314H45.3225V7.13848H47.3964V6.29688H44.4011L44.3916 8.23314V9.06325L44.4011 11.0839Z" fill="#475467"/>
<path d="M50.9404 7.13848V6.29688H48.1975V7.13848H49.0978V11.0839H50.0401V7.13848H50.9404Z" fill="#475467"/>
<path d="M29.6985 8.74086C29.6985 9.49784 29.0866 10.1116 28.3318 10.1116C27.577 10.1116 26.9651 9.49784 26.9651 8.74086C26.9651 7.98382 27.577 7.37012 28.3318 7.37012C29.0866 7.37012 29.6985 7.98382 29.6985 8.74086Z" fill="#475467"/>
<path d="M29.892 8.24191C29.8308 8.02905 29.7237 7.83739 29.5728 7.66484L30.0907 6.71582L30.2226 6.83663C30.4864 7.08777 30.6852 7.37726 30.8151 7.7089C30.8935 7.87574 30.949 8.05209 30.9834 8.24191H29.892Z" fill="#475467"/>
<path d="M29.9339 9.02637C29.8957 9.24685 29.8193 9.44815 29.7026 9.63029L30.3907 10.4719C30.5877 10.2437 30.7367 9.99069 30.8342 9.7146C30.926 9.50567 30.9871 9.27751 31.0139 9.02637H29.9339Z" fill="#475467"/>
<path d="M28.0972 10.3354C28.1775 10.3469 28.2578 10.3526 28.3418 10.3526C28.5865 10.3526 28.814 10.3028 29.0242 10.2031L29.699 11.0294C29.5977 11.0888 29.4925 11.1425 29.3836 11.1923C29.0567 11.3265 28.7069 11.3917 28.3418 11.3917C28.08 11.3917 27.8239 11.3591 27.5735 11.294L28.0972 10.3354Z" fill="#475467"/>
<path d="M27.1946 9.87375C26.9462 9.62261 26.7913 9.3408 26.7301 9.02827L25.6616 9.02637C25.6865 9.26221 25.7419 9.49799 25.8241 9.73574C25.9503 10.052 26.1357 10.3358 26.3784 10.5869C26.4874 10.6981 26.6002 10.7997 26.7187 10.8879L27.2462 9.92359L27.1946 9.87375Z" fill="#475467"/>
<path d="M27.0335 7.75372C26.9245 7.89941 26.8443 8.0566 26.7927 8.22724H25.7051C25.7873 7.72305 26.0014 7.284 26.3473 6.91211L27.0335 7.75372Z" fill="#475467"/>
<path d="M27.7378 7.21854C27.9308 7.13995 28.143 7.1016 28.3743 7.1016C28.5195 7.1016 28.6591 7.11887 28.7929 7.15531L29.2955 6.23505C29.0031 6.12002 28.6916 6.0625 28.3609 6.0625C27.8753 6.0625 27.4396 6.16604 27.0515 6.37693L27.7378 7.21854Z" fill="#475467"/>
<path fill-rule="evenodd" clip-rule="evenodd" d="M10.4092 19.7341V8.65694L20.0466 0.265625V11.3351L10.4092 19.7341ZM13.3661 10.2558V9.2474L17.3458 5.75819V6.78771L13.3661 10.2558ZM13.3661 14.23V13.2216L17.3458 9.6768V10.7619L13.3661 14.23Z" fill="#475467"/>
</svg>
